<?xml version="1.0" encoding="UTF-8"?>
<svg width="186px" height="60px" viewBox="0 0 186 60" version="1.1" xmlns="http://www.w3.org/2000/svg" xmlns:xlink="http://www.w3.org/1999/xlink">
    <!-- Generator: Sketch 51.1 (57501) - http://www.bohemiancoding.com/sketch -->
    <title>logo_cn_white</title>
    <desc>Created with Sketch.</desc>
    <defs>
        <polygon id="path-1" points="0 34.2163442 0 0.0073326226 37.9857411 0.0073326226 37.9857411 34.2163442"></polygon>
    </defs>
    <g id="logo_cn_white" stroke="none" stroke-width="1" fill="none" fill-rule="evenodd">
        <g id="Group-4" transform="translate(6.000000, 10.000000)">
            <g id="Group">
                <g id="Page-1-Copy">
                    <path d="M28.0103093,38 L28.0103093,36.9256119 C23.5161176,36.8302991 19.7927083,33.6972443 18.9314605,29.5541357 C18.9129489,29.4984849 18.8802168,29.4480374 18.8404986,29.5566512 C17.9282553,33.6132684 14.2151302,36.8020774 9.79381443,36.9243369 L9.79381443,38 L28.0103093,38 Z" id="Fill-1" fill="#FFFFFF"></path>
                    <path d="M28.4149553,18.5896942 C29.1242963,18.1364089 29.7159753,17.6134941 30.1340822,17.0716621 C29.9622304,16.6619038 29.7482311,16.283871 29.5010799,15.9522115 C28.886356,17.973165 26.9060288,18.8288847 24.9854107,19.6588145 C23.4958019,20.3024179 22.0888754,20.9103388 21.3096827,22.0303448 C21.231982,22.1422864 21.0583383,22.1879655 20.9108576,22.1348931 C20.7638428,22.0819594 20.6931309,21.9483585 20.7488976,21.8285376 C21.625682,19.9425734 24.107121,16.6613831 27.9291112,16.055163 C27.8863544,15.8041709 27.8207317,15.5564763 27.7353614,15.3134328 C25.9085718,15.7094804 24.4498927,16.3563814 23.3014427,17.2812445 C23.1558615,17.4121381 23.004546,17.5434829 22.8474244,17.6752442 C20.607438,19.5540927 19.61826,21.5675835 19.3917526,24.9649848 C21.5056904,21.2850742 26.5080997,19.6333716 29.5194299,19.4616237 C29.6888445,19.4525643 29.8375796,19.5531902 29.8498727,19.687659 C29.8622016,19.822093 29.7341819,19.9389288 29.5639787,19.9486825 C26.4817933,20.1244221 21.8138767,21.8818877 19.9039389,25.2695006 C20.915696,24.4716434 22.3019429,23.9667782 23.9541568,23.8127674 C26.4164216,23.582671 28.9855247,24.2030877 30.3633851,25.3333333 C30.9861371,24.7374223 31.4563909,23.9851748 31.711821,23.2062348 C31.0798223,23.5883635 30.2190224,23.8661522 29.3396217,23.94557 C29.3277229,23.946646 29.3158599,23.947132 29.3041762,23.947132 C29.1492049,23.947132 29.0155584,23.8551837 28.9974951,23.7307463 C28.9782133,23.5967635 29.0998536,23.4757624 29.2694474,23.4603856 C30.5068517,23.3486523 31.5114408,22.8282367 31.902202,22.3529102 C31.9439195,21.9940376 31.9355688,21.6394691 31.870878,21.3017699 C29.8091229,23.4938813 26.0545473,23.6557714 23.3286451,23.0845049 C23.1636746,23.049829 23.0654378,22.9161933 23.1091623,22.7859245 C23.1530302,22.6556211 23.3224448,22.5778 23.4870928,22.6125452 C24.2480789,22.7720056 27.4371027,23.3303946 29.8886155,22.1095196 C30.102364,21.7354438 30.263858,21.3472408 30.3783661,20.9530676 C29.4558501,21.571367 27.7933143,21.9747732 25.3583595,22.1757474 C25.3474284,22.1766152 25.3365689,22.1771011 25.3258887,22.1771011 C25.1696272,22.1771011 25.0354789,22.0837644 25.0189209,21.9583551 C25.0011802,21.8242335 25.1243616,21.7042043 25.2941346,21.6901118 C28.4934445,21.4260338 30.2698433,20.8112402 30.5789972,19.8619755 C30.6408925,19.1143445 30.5541602,18.3725102 30.3538159,17.6908293 C29.9348847,18.1477939 29.4081474,18.5830298 28.8036378,18.969289 C28.7464375,19.0058739 28.6777326,19.0236458 28.6095295,19.0236458 C28.5193925,19.0236458 28.4301514,18.9926145 28.3690446,18.9330512 C28.2617761,18.8281558 28.2822765,18.6744574 28.4149553,18.5896942" id="Fill-3" fill="#FFFFFF"></path>
                    <path d="M10.5773196,14.8116858 C11.6111866,15.0363561 12.5337048,15.338559 13.353985,15.7231467 C12.7670729,14.9842121 12.3823683,14.2649596 12.2056141,13.5716083 C12.1724328,13.4414533 12.2797048,13.3147153 12.4452214,13.2886775 C12.6105607,13.2628789 12.7718232,13.3469038 12.8049691,13.4770247 C13.0760915,14.5404071 13.8883599,15.6827231 15.2217449,16.8780033 C15.3779736,17.0037161 15.5291683,17.1340761 15.6748328,17.2696642 C17.1823488,18.5292872 18.1426568,19.8400632 18.6944023,21.5522046 L18.6944023,18.1208827 C18.6944023,16.2144485 18.6944023,13.0236862 17.2142893,11.2017211 C17.1233952,11.0898473 17.1650845,10.9412403 17.3073458,10.8697558 C17.449678,10.7984081 17.6385208,10.8311433 17.7294149,10.9429146 C18.1563405,11.4684552 18.4674153,12.0922356 18.6944023,12.7612918 L18.6944023,9.43859752 C18.6944023,9.30584557 18.8312397,9.19824302 19.0000177,9.19824302 C19.1687957,9.19824302 19.3056686,9.30584557 19.3056686,9.43859752 L19.3056686,12.7612918 C19.5326202,12.0922356 19.8437304,11.4684552 20.2706206,10.9429146 C20.3615856,10.8310408 20.5504992,10.7984081 20.6927605,10.8697558 C20.8349509,10.9412403 20.8766757,11.0898473 20.7857816,11.2017211 C19.3056686,13.0236862 19.3056686,16.2144485 19.3056686,18.1208827 L19.3056686,21.5522388 C19.8573787,19.8400632 20.8176512,18.5292872 22.3252027,17.2696984 C22.4707963,17.1341787 22.6219201,17.0038528 22.7780424,16.8782425 C24.1116401,15.6827915 24.9240148,14.5404071 25.1951018,13.4770247 C25.2283186,13.3469038 25.3891203,13.2629814 25.5548141,13.2886775 C25.7203306,13.3147153 25.8276381,13.4414533 25.7944214,13.5716083 C25.6176671,14.2649255 25.2329625,14.9842121 24.6459441,15.7232492 C25.4662952,15.3386273 26.3888134,15.0363561 27.4226804,14.8116858 C26.8256651,13.5351143 25.6881065,12.4269687 24.4593702,11.7297561 C24.8626861,14.5558863 22.1052347,16.8412701 20.6810265,17.4878422 C20.6328853,17.509677 20.5803482,17.5200307 20.5285201,17.5200307 C20.4228434,17.5200307 20.3201798,17.4769076 20.2634951,17.3998534 C20.1791239,17.2848359 20.2292149,17.1379032 20.3754111,17.071476 C21.555758,16.5355477 23.331844,15.0060128 23.7779127,13.132348 C23.7683412,13.119124 23.7597268,13.1052509 23.7533458,13.0902501 C23.5331297,12.5758491 23.1272614,12.1262351 22.6279111,11.6639781 C21.6687375,12.2316849 21.0085146,13.5751962 21.0354567,14.885733 C21.6164131,14.4868621 22.1052347,13.4902828 22.2546924,12.9614961 C22.2913478,12.8318194 22.4549146,12.7505964 22.6193322,12.7790262 C22.7841398,12.8077635 22.8880086,12.9361416 22.8513177,13.0656816 C22.8452912,13.0874139 22.1795027,15.2414468 20.8324694,15.5098552 C20.8077252,15.5147757 20.7824847,15.5172018 20.7574215,15.5172018 C20.6950648,15.5172018 20.6335588,15.5022352 20.5815535,15.4734637 C20.5086681,15.4331085 20.461803,15.3698249 20.4532241,15.3000148 C20.2588866,13.7210696 21.0230846,12.0416292 22.2247725,11.3026263 C22.1286318,11.2184646 22.0302932,11.133312 21.9302884,11.0466559 C20.8360853,10.0989402 19.6214227,9.04574059 19.0000177,7.37313433 C18.3785418,9.04570642 17.1639856,10.0989402 16.0697825,11.0465876 C15.9697423,11.1332779 15.8714391,11.2184305 15.7752984,11.3025921 C16.9769508,12.0415951 17.7411488,13.7210354 17.5468822,15.3000148 C17.5382679,15.3698249 17.4914028,15.4331085 17.4184819,15.4734637 C17.3665121,15.5022352 17.3048998,15.5172018 17.2426494,15.5172018 C17.2175507,15.5172018 17.1923457,15.5147757 17.1675661,15.5098552 C15.8205682,15.2414468 15.1547442,13.0874139 15.1487177,13.0656816 C15.1120623,12.9361416 15.2159666,12.8077635 15.3807032,12.7790262 C15.5461134,12.7504939 15.7087231,12.8318194 15.7453431,12.9614961 C15.8948007,13.4902828 16.3836223,14.4868621 16.9646142,14.885733 C16.9915563,13.5751962 16.3312979,12.2316849 15.3721598,11.663944 C14.8728095,12.1262351 14.4669412,12.5758832 14.2467605,13.0902501 C14.2403086,13.105285 14.2316942,13.1191582 14.2220873,13.1323822 C14.6681915,15.0060128 16.444242,16.5355477 17.6246598,17.071476 C17.770856,17.1379032 17.8209116,17.2848359 17.7365403,17.3998534 C17.6799265,17.4769076 17.5772275,17.5200307 17.4715862,17.5200307 C17.4196872,17.5200307 17.3671856,17.509677 17.3190444,17.4878422 C15.8948007,16.8412701 13.1373139,14.5558863 13.5407007,11.7297561 C12.3119644,12.427037 11.1744058,13.5351485 10.5773196,14.8116858" id="Fill-5" fill="#FFFFFF"></path>
                    <path d="M14.0456482,23.8127379 C15.6980112,23.9667482 17.0843346,24.4716464 18.0961668,25.2696049 C16.1862583,21.8818997 11.5182897,20.1244054 8.43602193,19.9487011 C8.26581821,19.9389128 8.13783391,19.8220774 8.150127,19.6876438 C8.16238425,19.5531755 8.31029554,19.4537301 8.48057093,19.4616441 C11.4919115,19.6333914 16.4943022,21.2850535 18.6082474,24.9648819 C18.3817392,21.5675271 17.3925936,19.554078 15.1526354,17.6752707 C14.9954057,17.5434057 14.8439821,17.4120267 14.6983287,17.2810294 C13.5498748,16.3563083 12.0912623,15.7094097 10.2645739,15.3134328 C10.1792033,15.5564754 10.1135804,15.8041692 10.0708234,16.0551952 C13.8928627,16.6614132 16.3743461,19.9425227 17.2511335,21.828515 C17.3069004,21.9483355 17.23626,22.0819707 17.089173,22.1348694 C16.9421219,22.1878029 16.7682266,22.1421586 16.6903465,22.0303216 C15.9111511,20.9103542 14.5041481,20.3024006 13.0146058,19.6587994 C11.0939452,18.8288726 9.11353951,17.9731905 8.49888512,15.9522093 C8.25173313,16.2839023 8.03773305,16.6618991 7.8658807,17.0716213 C8.28395321,17.6134861 8.87563422,18.1364338 9.58504932,18.5896829 C9.71772865,18.6744805 9.73822907,18.8281784 9.63096024,18.9330386 C9.56996072,18.9926365 9.48064767,19.0236329 9.39047447,19.0236329 C9.32230696,19.0236329 9.2536377,19.0058959 9.19636554,18.9692763 C8.59178216,18.5830184 8.0650789,18.1477841 7.64614624,17.6908904 C7.44587284,18.3724996 7.35910443,19.1143313 7.42099995,19.8619597 C7.73011914,20.8112211 9.5064524,21.4260126 12.7059167,21.6901244 C12.8756186,21.7041822 12.998872,21.8242109 12.9811313,21.9583321 C12.9645016,22.0837409 12.8303886,22.1770773 12.6741625,22.1770773 C12.6634464,22.1770773 12.6525869,22.1765914 12.6416557,22.1757583 C10.2066925,21.9747848 8.54415092,21.5713453 7.62163174,20.953048 C7.73614024,21.3472199 7.89763486,21.7353522 8.11134822,22.1094267 C10.5628695,23.3303668 13.7518685,22.7720145 14.512893,22.6125547 C14.6771832,22.5776012 14.8469926,22.6554568 14.8907532,22.7858987 C14.9345495,22.916167 14.8363124,23.0498369 14.6713054,23.0845127 C11.9457881,23.6556384 8.19094865,23.4939571 6.1291147,21.3015756 C6.06442367,21.6393778 6.05607297,21.9940144 6.09782646,22.3528858 C6.48855311,22.8282454 7.49314568,23.3486592 8.73055428,23.4603921 C8.90014871,23.4757341 9.02178935,23.5967348 9.00250748,23.7307518 C8.98448001,23.8551888 8.85079716,23.9471021 8.69582541,23.9471021 C8.6841416,23.9471021 8.67227859,23.9466161 8.66037974,23.9455401 C7.78097597,23.8661226 6.92020894,23.5883348 6.2881722,23.2062075 C6.54356737,23.9851794 7.01385862,24.7374243 7.63661282,25.3333333 C9.01440633,24.2030916 11.5840559,23.5830936 14.0456482,23.8127379" id="Fill-7" fill="#FFFFFF"></path>
                    <g id="Group-11">
                        <mask id="mask-2" fill="white">
                            <use xlink:href="#path-1"></use>
                        </mask>
                        <g id="Clip-10"></g>
                        <path d="M18.9741486,0.00731885242 C15.5345782,3.32180197 3.37554071,12.3588634 0.376535084,22.3024161 C0.033465666,23.4399365 -0.1111197,24.7124047 0.0954206379,25.9540277 C0.581970356,30.5946483 4.63959325,34.2163442 9.57317674,34.2163442 C14.1332837,34.2163442 17.9958803,30.9828298 18.9309797,26.8499158 C18.8369066,26.8008595 18.832415,26.7989317 18.8279947,26.796935 C18.7363812,26.7333512 18.7340642,26.730907 18.7317471,26.7283251 C18.4998972,26.4275154 17.4555032,26.0574418 16.3149328,26.1221272 C15.3422255,26.1787915 14.0179647,26.5568519 13.2334038,28.0371122 C13.1841392,28.1300265 13.0699253,28.1859334 12.9496514,28.1860711 C12.9101899,28.1860711 12.8701223,28.1800122 12.8314094,28.1672748 C12.6747039,28.1157055 12.6008071,27.9739759 12.6661842,27.8505262 C13.6187152,26.0534484 15.332779,25.693668 16.2697321,25.6391725 C16.8899235,25.6031978 17.4804563,25.6722553 17.9750623,25.8007656 C16.7625201,24.6712318 15.0450698,24.3371672 14.0117265,24.2410513 C11.7639872,24.0322265 9.34834934,24.6093693 8.12700225,25.6248859 C8.39549756,25.8293043 8.6852743,26.005597 8.99287467,26.1455365 C10.813809,26.2295691 12.8282368,25.8860374 13.8528822,25.1902301 C12.8974994,25.0582773 11.8016308,25.0944584 10.3872893,25.7376293 C10.2402799,25.8045524 10.0522405,25.7646877 9.96747129,25.6489493 C9.88263077,25.5331076 9.93292908,25.3850781 10.0799028,25.3181895 C11.9516345,24.466779 13.3759929,24.5826207 14.522552,24.8086927 C14.6222574,24.8283152 14.7029629,24.885909 14.7375051,24.9621614 C14.7720473,25.0384138 14.7558991,25.123307 14.6945501,25.1881989 C13.3841561,26.5744777 9.37747317,27.0108548 7.04835122,26.4268269 C7.316597,26.7877779 7.69698912,27.1747889 8.19990094,27.531712 C8.9997546,27.9505666 10.5943287,27.5114354 11.4899666,27.1039413 C11.6369403,27.0372247 11.8248728,27.076814 11.909749,27.1925868 C11.9946251,27.3083252 11.9442912,27.456458 11.7973174,27.5233811 C11.2016871,27.7943094 10.2453775,28.1146727 9.34097036,28.174814 C10.3397358,28.6146337 11.6290623,28.9051157 13.2456664,28.857402 C13.412567,28.8517218 13.5579722,28.9565817 13.5642462,29.0902902 C13.570627,29.2240331 13.4382687,29.336329 13.2685876,29.3414239 C13.144036,29.345073 13.0212311,29.3468632 12.9002086,29.3468632 C10.6162518,29.3468632 8.95915235,28.706825 7.83708293,27.9236803 C7.7496045,27.8733847 7.72636248,27.8532802 7.7077546,27.8312824 C6.89210919,27.2321073 6.37953696,26.5624632 6.13089719,26.0360636 C6.08573208,25.9404296 6.1215576,25.8325747 6.22058574,25.7667188 C6.31954259,25.7008629 6.46052758,25.6908451 6.57263827,25.741898 C6.91506604,25.8976732 7.35506041,26.0120002 7.8519122,26.0861526 C6.60261764,25.2063412 5.75456886,23.8082545 5.57273208,22.437536 C5.49220488,21.7545005 5.55590657,21.1442059 5.78048443,20.5912987 C5.8175576,20.5000368 5.91943752,20.4345251 6.04038874,20.4243352 C6.16037749,20.4137321 6.27847692,20.4610327 6.33932683,20.5439981 C6.60646754,20.9085637 6.91167955,21.2174633 7.24327054,21.4795788 C7.03498349,20.9435744 6.91492345,20.397862 6.86982964,19.8582774 C6.85450131,19.7889789 6.85517861,19.7619205 6.86088218,19.7359982 C6.74791595,17.9377499 7.4587227,16.2226047 8.49545253,15.1880509 C8.57230807,15.1111788 8.70024615,15.0788189 8.81984278,15.1049478 C8.93929681,15.131421 9.02684653,15.2119077 9.04178274,15.3090219 C9.11403977,15.7787229 9.25955197,16.1858039 9.46324053,16.5444828 C9.46791032,16.4471276 9.47575272,16.3500822 9.48694597,16.2533811 C9.54052383,15.8114959 9.65110169,15.399733 9.81073021,15.0012239 C10.5474169,13.2344061 12.1340773,11.7904303 13.7565632,11.0524173 C13.8621861,11.0043249 13.9941167,11.0099707 14.0923962,11.0670825 C14.1907114,11.1240567 14.2368034,11.2214807 14.2100679,11.3152901 C14.1219122,11.6235012 14.0786008,11.9284419 14.0725407,12.2279434 C14.4737865,11.7104599 15.015946,11.2398639 15.5796008,10.750747 C16.8466833,9.65119787 18.2828053,8.40492743 18.6768146,6.18410669 C18.763794,6.03270353 18.842931,5.98832911 18.9386795,5.97779492 C19.0449084,5.98096206 19.0523944,5.98213253 19.0597377,5.98364725 C19.1300698,5.99862232 19.1881036,6.03094783 19.2283137,6.07380753 C19.2798953,6.16059411 19.2804657,6.16321044 19.2811786,6.16575792 C19.6796439,8.40492743 21.1157659,9.65119787 22.3828484,10.7507814 C22.9465032,11.2399328 23.4886983,11.7104944 23.8898728,12.2279778 C23.8838484,11.9284419 23.8406083,11.6235356 23.7524169,11.3152901 C23.7256458,11.2214807 23.7717734,11.1240567 23.8700886,11.0670825 C23.968475,11.0099707 24.1002274,11.0043249 24.2059216,11.0524173 C25.8283006,11.7903958 27.4148897,13.2343373 28.121597,14.9274501 C28.310991,15.3990101 28.4214263,15.8098435 28.4722593,16.2282161 C28.4866608,16.3502543 28.4944675,16.4472309 28.4991373,16.5445172 C28.7028972,16.1858383 28.8483381,15.7787229 28.9205951,15.3090219 C28.9355313,15.2119077 29.0231167,15.131421 29.1425707,15.1049478 C29.2620961,15.0785779 29.3899985,15.1113165 29.466961,15.1880509 C30.5036552,16.2225703 31.2144619,17.9376122 31.101567,19.7357916 C31.0993568,19.8304616 31.0959347,19.8444039 31.0926195,19.8583118 C31.0474901,20.3978964 30.9274657,20.9436432 30.7191786,21.479682 C31.050734,21.2174977 31.3560173,20.9085981 31.623158,20.5439981 C31.6838653,20.4610327 31.800218,20.4137321 31.9220961,20.4243352 C32.0430116,20.4345251 32.1449272,20.5000368 32.1820004,20.5912987 C32.4065426,21.1441371 32.4702443,21.7542939 32.3978803,22.3717834 C32.2077021,23.8084266 31.3597246,25.2063412 30.110537,26.0861526 C30.6074244,26.0120002 31.0474188,25.8977076 31.3898822,25.741898 C31.5020998,25.6908451 31.6430492,25.7008629 31.7419347,25.7667188 C31.8408916,25.8325747 31.8767527,25.9404296 31.8316233,26.0360636 C31.5830548,26.5622911 31.0705182,27.2317286 30.2550867,27.8308004 C30.1646495,27.9020955 30.1444019,27.9133871 30.1239403,27.9244721 C29.0018709,28.7071693 27.3450923,29.3467255 25.0622762,29.3468632 C24.9410398,29.3468632 24.818627,29.345073 24.6938615,29.3414239 C24.5242161,29.336329 24.3918578,29.2240331 24.3982386,29.0902902 C24.4045482,28.9567194 24.5498109,28.8519283 24.7168184,28.857402 C26.3346702,28.9051845 27.6240679,28.6147369 28.6225839,28.1748829 C27.7178203,28.1149481 26.7610829,27.7944127 26.165203,27.5233811 C26.0182293,27.456458 25.967824,27.3083252 26.0527002,27.1925868 C26.1375407,27.076814 26.3254732,27.0372247 26.4725182,27.1039413 C27.3692612,27.5119518 28.9665445,27.9514272 29.7655782,27.530094 C30.2670285,27.1736184 30.6463512,26.7871926 30.9140623,26.4268269 C28.584976,27.0105106 24.5781505,26.5746154 23.2679347,25.1881989 C23.2065501,25.123307 23.1904375,25.0384138 23.2249441,24.9621614 C23.259522,24.885909 23.3401917,24.8283152 23.4398972,24.8086927 C24.586278,24.5829994 26.0107077,24.4668823 27.8824394,25.3181895 C28.0294131,25.3850781 28.0798184,25.5331076 27.9949422,25.6489493 C27.910066,25.7646877 27.7220266,25.8045524 27.5751242,25.7376293 C26.1608897,25.0942174 25.0651992,25.0582773 24.1096026,25.1902301 C25.134248,25.8859341 27.1486758,26.2295002 28.9041617,26.1857799 C29.2771749,26.005597 29.5669516,25.8293043 29.8354826,25.6248859 C28.6139929,24.6092316 26.1978916,24.0319855 23.9505445,24.241189 C22.9172368,24.3371672 21.1998221,24.6712318 19.9873512,25.8009033 C20.4819929,25.6722553 21.0726683,25.6033355 21.6927884,25.6391725 C22.6297058,25.693668 24.3437696,26.0534484 25.2963006,27.8505262 C25.3616777,27.9739759 25.2877452,28.1157055 25.1311111,28.1672748 C25.0924694,28.1800122 25.0522949,28.1860711 25.0128334,28.1860711 C24.8925238,28.1860711 24.7783456,28.1300265 24.7290454,28.0371122 C23.9445201,26.5568519 22.6202593,26.1787915 21.6475163,26.1221272 C20.5075876,26.0569598 19.4626233,26.4275154 19.2443906,26.7123517 C19.1669291,26.7799977 19.1631505,26.7822354 19.1592649,26.7843697 C19.0490792,26.8232017 19.0432687,26.8243033 19.0374582,26.8251639 C19.9017265,31.0510955 23.7477471,34.2163442 28.3598634,34.2163442 C32.5779704,34.2163442 36.1534638,31.5678904 37.4065013,27.8997202 C38.2171205,26.0735873 38.0852612,24.0051337 37.5717621,22.3024161 C34.5727565,12.3588634 22.4136833,3.32180197 18.9741486,0.00731885242 Z" id="Fill-9" fill="#F2F2F2" mask="url(#mask-2)"></path>
                    </g>
                    <path d="M13.2712094,19.2576787 C14.0965478,19.6075404 14.9374317,19.9641777 15.6701031,20.4179104 C14.5122833,18.8555766 12.5657783,17.0650043 9.99435082,16.6368159 C9.98187162,16.8889386 9.99417255,17.1433311 10.0346765,17.3985028 C10.0374932,17.416255 10.0375288,17.4337363 10.0353539,17.450811 C10.8605496,18.2355012 12.0453958,18.7380187 13.2712094,19.2576787" id="Fill-12" fill="#FFFFFF"></path>
                    <path d="M27.7694616,17.3985028 C27.8099661,17.1433311 27.8222315,16.8889386 27.8097878,16.6368159 C25.2386065,17.0650382 23.291858,18.8556782 22.1340206,20.4179104 C22.8666675,19.9640761 23.7075285,19.6075404 24.5329507,19.2576787 C25.7587116,18.7380526 26.9436115,18.2355012 27.7687128,17.4508448 C27.7666091,17.4337363 27.7666091,17.4162212 27.7694616,17.3985028" id="Fill-14" fill="#FFFFFF"></path>
                </g>
            </g>
            <path d="M66.84,14.48 C67.6,16.04 68.28,17.92 68.92,20.08 L78.76,20.08 C79.8,18.28 80.72,16.36 81.48,14.36 L59.12,14.36 L59.12,11.8 L72.68,11.8 C72.28,10.84 71.84,9.92 71.4,9.12 L74.44,8.64 C74.84,9.56 75.24,10.6 75.64,11.8 L89.36,11.8 L89.36,14.36 L81.6,14.36 L84,15.2 C83.28,17.04 82.48,18.64 81.64,20.08 L91.56,20.08 L91.56,22.76 L56.44,22.76 L56.44,20.08 L66.24,20.08 C65.68,18.4 65.04,16.84 64.32,15.4 L66.84,14.48 Z M56.56,3.96 L65.8,3.96 L65.8,1.24 L68.68,1.24 L68.68,3.96 L79.32,3.96 L79.32,1.24 L82.2,1.24 L82.2,3.96 L91.48,3.96 L91.48,6.52 L82.2,6.52 L82.2,9.52 L79.32,9.52 L79.32,6.52 L68.68,6.52 L68.68,9.52 L65.8,9.52 L65.8,6.52 L56.56,6.52 L56.56,3.96 Z M86.72,25.52 L86.72,37.84 L83.88,37.84 L83.88,36.08 L64.68,36.08 L64.68,37.88 L61.84,37.88 L61.84,25.52 L86.72,25.52 Z M64.68,33.52 L83.88,33.52 L83.88,28.08 L64.68,28.08 L64.68,33.52 Z M98.6000001,37.64 L95.0000001,37.64 L94.4000001,34.84 C95.5200001,34.92 96.5600001,35 97.6000001,35 C98.5600001,35 99.0800001,34.48 99.0800001,33.48 L99.0800001,23.72 C97.5600001,24.32 96.0000001,24.88 94.4400001,25.36 L93.7600001,22.48 C95.5600001,22.04 97.3200001,21.48 99.0800001,20.8 L99.0800001,11.76 L94.2400001,11.76 L94.2400001,9 L99.0800001,9 L99.0800001,1.44 L102.04,1.44 L102.04,9 L106.08,9 L106.08,11.76 L102.04,11.76 L102.04,19.56 C103.2,19 104.36,18.44 105.48,17.8 L105.48,20.72 C104.36,21.32 103.2,21.88 102.04,22.44 L102.04,34.24 C102.04,36.48 100.88,37.64 98.6000001,37.64 Z M109.2,2.72 L126.64,2.72 L126.64,16.6 L109.2,16.6 L109.2,2.72 Z M123.84,14.24 L123.84,10.8 L112,10.8 L112,14.24 L123.84,14.24 Z M112,8.56 L123.84,8.56 L123.84,5.08 L112,5.08 L112,8.56 Z M106.4,19.4 L129.28,19.4 L129.28,21.96 L119.28,21.96 L119.28,26.48 L127.64,26.48 L127.64,29.08 L119.28,29.08 L119.28,34.24 C120.88,34.48 122.76,34.6 124.96,34.6 C127.04,34.6 128.84,34.52 130.32,34.4 L129.52,37.2 C127.92,37.2 126.44,37.16 125.16,37.16 C119.88,37.12 116.28,36.6 114.36,35.64 C112.84,34.84 111.44,33.32 110.24,31.08 C109.28,33.56 107.96,35.84 106.24,37.92 L104.12,36.08 C107.16,32.4 108.84,28.24 109.16,23.68 L111.72,23.96 C111.64,25.4 111.44,26.76 111.12,28.12 C112.4,30.8 113.88,32.52 115.56,33.28 C115.84,33.4 116.16,33.52 116.52,33.64 L116.52,21.96 L106.4,21.96 L106.4,19.4 Z" id="菩提" fill="#FFFFFF"></path>
        </g>
    </g>
</svg>