<?xml version="1.0" encoding="UTF-8"?>
<svg width="186px" height="60px" viewBox="0 0 186 60" version="1.1" xmlns="http://www.w3.org/2000/svg" xmlns:xlink="http://www.w3.org/1999/xlink">
    <!-- Generator: Sketch 51.1 (57501) - http://www.bohemiancoding.com/sketch -->
    <title>logo_eng_white</title>
    <desc>Created with Sketch.</desc>
    <defs>
        <polygon id="path-1" points="0 34.2163442 0 0.0073326226 37.9857411 0.0073326226 37.9857411 34.2163442"></polygon>
    </defs>
    <g id="logo_eng_white" stroke="none" stroke-width="1" fill="none" fill-rule="evenodd">
        <g id="Group" transform="translate(6.000000, 10.000000)">
            <path d="M57.26592,5.61296 L71.73576,5.61296 C74.72952,5.61296 77.1336,6.33872 78.90264,7.79024 C80.62632,9.24176 81.48816,11.2376 81.48816,13.77776 C81.48816,15.59216 80.9892,17.17976 80.03664,18.4952 C79.03872,19.67456 77.72328,20.5364 76.09032,21.08072 C78.22224,21.4436 79.8552,22.3508 81.03456,23.7116 C82.21392,25.0724 82.84896,26.79608 82.84896,28.97336 C82.84896,32.14856 81.71496,34.50728 79.49232,36.04952 C77.5872,37.3196 74.95632,38 71.64504,38 L57.26592,38 L57.26592,5.61296 Z M60.98544,8.7428 L60.98544,19.76528 L70.82856,19.76528 C73.09656,19.76528 74.82024,19.26632 75.9996,18.35912 C77.17896,17.40656 77.814,16.0004 77.814,14.14064 C77.814,12.32624 77.22432,10.96544 76.04496,10.05824 C74.8656,9.15104 73.14192,8.7428 70.87392,8.7428 L60.98544,8.7428 Z M60.98544,22.84976 L60.98544,34.87016 L71.32752,34.87016 C73.59552,34.87016 75.36456,34.41656 76.72536,33.60008 C78.31296,32.60216 79.12944,31.01456 79.12944,28.928 C79.12944,26.84144 78.40368,25.2992 77.04288,24.30128 C75.72744,23.30336 73.82232,22.84976 71.32752,22.84976 L60.98544,22.84976 Z M95.7312,13.91384 C99.22392,13.91384 102.03624,15.0932 104.1228,17.54264 C106.11864,19.856 107.11656,22.75904 107.11656,26.29712 C107.11656,29.78984 106.11864,32.69288 104.16816,34.96088 C102.03624,37.41032 99.22392,38.63504 95.7312,38.63504 C92.19312,38.63504 89.42616,37.41032 87.3396,34.96088 C85.34376,32.69288 84.34584,29.78984 84.34584,26.29712 C84.34584,22.75904 85.34376,19.856 87.3396,17.54264 C89.42616,15.0932 92.19312,13.91384 95.7312,13.91384 Z M95.7312,16.95296 C93.2364,16.95296 91.28592,17.90552 89.92512,19.81064 C88.65504,21.53432 88.06536,23.66624 88.06536,26.29712 C88.06536,28.88264 88.65504,31.01456 89.92512,32.73824 C91.28592,34.64336 93.2364,35.59592 95.7312,35.59592 C98.18064,35.59592 100.13112,34.64336 101.58264,32.73824 C102.80736,31.01456 103.4424,28.83728 103.4424,26.29712 C103.4424,23.66624 102.80736,21.53432 101.58264,19.81064 C100.13112,17.90552 98.18064,16.95296 95.7312,16.95296 Z M126.89352,4.97792 L130.52232,4.97792 L130.52232,38 L127.12032,38 L127.12032,34.1444 C125.48736,37.13816 122.85648,38.63504 119.3184,38.63504 C115.87104,38.63504 113.1948,37.36496 111.28968,34.91552 C109.52064,32.64752 108.6588,29.74448 108.6588,26.2064 C108.6588,22.75904 109.52064,19.94672 111.28968,17.67872 C113.1948,15.13856 115.78032,13.91384 119.13696,13.91384 C122.4936,13.91384 125.07912,15.5468 126.89352,18.85808 L126.89352,4.97792 Z M119.90808,16.9076 C117.32256,16.9076 115.37208,17.8148 114.102,19.6292 C112.92264,21.2168 112.37832,23.39408 112.37832,26.2064 C112.37832,29.01872 112.92264,31.24136 114.05664,32.87432 C115.32672,34.68872 117.23184,35.64128 119.772,35.64128 C122.13072,35.64128 123.94512,34.73408 125.26056,32.91968 C126.39456,31.28672 126.98424,29.1548 126.98424,26.52392 L126.98424,26.07032 C126.98424,23.34872 126.30384,21.12608 125.03376,19.44776 C123.71832,17.72408 121.99464,16.9076 119.90808,16.9076 Z M133.87896,4.97792 L133.87896,38 L137.50776,38 L137.50776,24.6188 C137.50776,22.44152 138.09744,20.58176 139.32216,19.13024 C140.50152,17.67872 141.9984,16.95296 143.8128,16.95296 C145.76328,16.95296 147.26016,17.54264 148.3488,18.722 C149.34672,19.90136 149.89104,21.57968 149.89104,23.75696 L149.89104,38 L153.51984,38 L153.51984,23.21264 C153.51984,20.21888 152.79408,17.90552 151.34256,16.31792 C149.89104,14.68496 147.75912,13.91384 145.03752,13.91384 C143.44992,13.91384 142.04376,14.27672 140.77368,15.00248 C139.41288,15.7736 138.32424,16.9076 137.50776,18.40448 L137.50776,4.97792 L133.87896,4.97792 Z M159.82488,5.70368 C159.05376,5.70368 158.41872,5.93048 157.8744,6.4748 C157.33008,6.9284 157.10328,7.56344 157.10328,8.37992 C157.10328,9.15104 157.33008,9.78608 157.8744,10.3304 C158.41872,10.82936 159.05376,11.10152 159.82488,11.10152 C160.596,11.10152 161.23104,10.82936 161.77536,10.3304 C162.31968,9.78608 162.59184,9.15104 162.59184,8.37992 C162.59184,7.56344 162.31968,6.9284 161.77536,6.4748 C161.23104,5.93048 160.596,5.70368 159.82488,5.70368 Z M158.01048,14.54888 L158.01048,38 L161.63928,38 L161.63928,14.54888 L158.01048,14.54888 Z" id="Bodhi" fill="#FFFFFF"></path>
            <g id="Page-1-Copy">
                <path d="M28.0103093,38 L28.0103093,36.9256119 C23.5161176,36.8302991 19.7927083,33.6972443 18.9314605,29.5541357 C18.9129489,29.4984849 18.8802168,29.4480374 18.8404986,29.5566512 C17.9282553,33.6132684 14.2151302,36.8020774 9.79381443,36.9243369 L9.79381443,38 L28.0103093,38 Z" id="Fill-1" fill="#FFFFFF"></path>
                <path d="M28.4149553,18.5896942 C29.1242963,18.1364089 29.7159753,17.6134941 30.1340822,17.0716621 C29.9622304,16.6619038 29.7482311,16.283871 29.5010799,15.9522115 C28.886356,17.973165 26.9060288,18.8288847 24.9854107,19.6588145 C23.4958019,20.3024179 22.0888754,20.9103388 21.3096827,22.0303448 C21.231982,22.1422864 21.0583383,22.1879655 20.9108576,22.1348931 C20.7638428,22.0819594 20.6931309,21.9483585 20.7488976,21.8285376 C21.625682,19.9425734 24.107121,16.6613831 27.9291112,16.055163 C27.8863544,15.8041709 27.8207317,15.5564763 27.7353614,15.3134328 C25.9085718,15.7094804 24.4498927,16.3563814 23.3014427,17.2812445 C23.1558615,17.4121381 23.004546,17.5434829 22.8474244,17.6752442 C20.607438,19.5540927 19.61826,21.5675835 19.3917526,24.9649848 C21.5056904,21.2850742 26.5080997,19.6333716 29.5194299,19.4616237 C29.6888445,19.4525643 29.8375796,19.5531902 29.8498727,19.687659 C29.8622016,19.822093 29.7341819,19.9389288 29.5639787,19.9486825 C26.4817933,20.1244221 21.8138767,21.8818877 19.9039389,25.2695006 C20.915696,24.4716434 22.3019429,23.9667782 23.9541568,23.8127674 C26.4164216,23.582671 28.9855247,24.2030877 30.3633851,25.3333333 C30.9861371,24.7374223 31.4563909,23.9851748 31.711821,23.2062348 C31.0798223,23.5883635 30.2190224,23.8661522 29.3396217,23.94557 C29.3277229,23.946646 29.3158599,23.947132 29.3041762,23.947132 C29.1492049,23.947132 29.0155584,23.8551837 28.9974951,23.7307463 C28.9782133,23.5967635 29.0998536,23.4757624 29.2694474,23.4603856 C30.5068517,23.3486523 31.5114408,22.8282367 31.902202,22.3529102 C31.9439195,21.9940376 31.9355688,21.6394691 31.870878,21.3017699 C29.8091229,23.4938813 26.0545473,23.6557714 23.3286451,23.0845049 C23.1636746,23.049829 23.0654378,22.9161933 23.1091623,22.7859245 C23.1530302,22.6556211 23.3224448,22.5778 23.4870928,22.6125452 C24.2480789,22.7720056 27.4371027,23.3303946 29.8886155,22.1095196 C30.102364,21.7354438 30.263858,21.3472408 30.3783661,20.9530676 C29.4558501,21.571367 27.7933143,21.9747732 25.3583595,22.1757474 C25.3474284,22.1766152 25.3365689,22.1771011 25.3258887,22.1771011 C25.1696272,22.1771011 25.0354789,22.0837644 25.0189209,21.9583551 C25.0011802,21.8242335 25.1243616,21.7042043 25.2941346,21.6901118 C28.4934445,21.4260338 30.2698433,20.8112402 30.5789972,19.8619755 C30.6408925,19.1143445 30.5541602,18.3725102 30.3538159,17.6908293 C29.9348847,18.1477939 29.4081474,18.5830298 28.8036378,18.969289 C28.7464375,19.0058739 28.6777326,19.0236458 28.6095295,19.0236458 C28.5193925,19.0236458 28.4301514,18.9926145 28.3690446,18.9330512 C28.2617761,18.8281558 28.2822765,18.6744574 28.4149553,18.5896942" id="Fill-3" fill="#FFFFFF"></path>
                <path d="M10.5773196,14.8116858 C11.6111866,15.0363561 12.5337048,15.338559 13.353985,15.7231467 C12.7670729,14.9842121 12.3823683,14.2649596 12.2056141,13.5716083 C12.1724328,13.4414533 12.2797048,13.3147153 12.4452214,13.2886775 C12.6105607,13.2628789 12.7718232,13.3469038 12.8049691,13.4770247 C13.0760915,14.5404071 13.8883599,15.6827231 15.2217449,16.8780033 C15.3779736,17.0037161 15.5291683,17.1340761 15.6748328,17.2696642 C17.1823488,18.5292872 18.1426568,19.8400632 18.6944023,21.5522046 L18.6944023,18.1208827 C18.6944023,16.2144485 18.6944023,13.0236862 17.2142893,11.2017211 C17.1233952,11.0898473 17.1650845,10.9412403 17.3073458,10.8697558 C17.449678,10.7984081 17.6385208,10.8311433 17.7294149,10.9429146 C18.1563405,11.4684552 18.4674153,12.0922356 18.6944023,12.7612918 L18.6944023,9.43859752 C18.6944023,9.30584557 18.8312397,9.19824302 19.0000177,9.19824302 C19.1687957,9.19824302 19.3056686,9.30584557 19.3056686,9.43859752 L19.3056686,12.7612918 C19.5326202,12.0922356 19.8437304,11.4684552 20.2706206,10.9429146 C20.3615856,10.8310408 20.5504992,10.7984081 20.6927605,10.8697558 C20.8349509,10.9412403 20.8766757,11.0898473 20.7857816,11.2017211 C19.3056686,13.0236862 19.3056686,16.2144485 19.3056686,18.1208827 L19.3056686,21.5522388 C19.8573787,19.8400632 20.8176512,18.5292872 22.3252027,17.2696984 C22.4707963,17.1341787 22.6219201,17.0038528 22.7780424,16.8782425 C24.1116401,15.6827915 24.9240148,14.5404071 25.1951018,13.4770247 C25.2283186,13.3469038 25.3891203,13.2629814 25.5548141,13.2886775 C25.7203306,13.3147153 25.8276381,13.4414533 25.7944214,13.5716083 C25.6176671,14.2649255 25.2329625,14.9842121 24.6459441,15.7232492 C25.4662952,15.3386273 26.3888134,15.0363561 27.4226804,14.8116858 C26.8256651,13.5351143 25.6881065,12.4269687 24.4593702,11.7297561 C24.8626861,14.5558863 22.1052347,16.8412701 20.6810265,17.4878422 C20.6328853,17.509677 20.5803482,17.5200307 20.5285201,17.5200307 C20.4228434,17.5200307 20.3201798,17.4769076 20.2634951,17.3998534 C20.1791239,17.2848359 20.2292149,17.1379032 20.3754111,17.071476 C21.555758,16.5355477 23.331844,15.0060128 23.7779127,13.132348 C23.7683412,13.119124 23.7597268,13.1052509 23.7533458,13.0902501 C23.5331297,12.5758491 23.1272614,12.1262351 22.6279111,11.6639781 C21.6687375,12.2316849 21.0085146,13.5751962 21.0354567,14.885733 C21.6164131,14.4868621 22.1052347,13.4902828 22.2546924,12.9614961 C22.2913478,12.8318194 22.4549146,12.7505964 22.6193322,12.7790262 C22.7841398,12.8077635 22.8880086,12.9361416 22.8513177,13.0656816 C22.8452912,13.0874139 22.1795027,15.2414468 20.8324694,15.5098552 C20.8077252,15.5147757 20.7824847,15.5172018 20.7574215,15.5172018 C20.6950648,15.5172018 20.6335588,15.5022352 20.5815535,15.4734637 C20.5086681,15.4331085 20.461803,15.3698249 20.4532241,15.3000148 C20.2588866,13.7210696 21.0230846,12.0416292 22.2247725,11.3026263 C22.1286318,11.2184646 22.0302932,11.133312 21.9302884,11.0466559 C20.8360853,10.0989402 19.6214227,9.04574059 19.0000177,7.37313433 C18.3785418,9.04570642 17.1639856,10.0989402 16.0697825,11.0465876 C15.9697423,11.1332779 15.8714391,11.2184305 15.7752984,11.3025921 C16.9769508,12.0415951 17.7411488,13.7210354 17.5468822,15.3000148 C17.5382679,15.3698249 17.4914028,15.4331085 17.4184819,15.4734637 C17.3665121,15.5022352 17.3048998,15.5172018 17.2426494,15.5172018 C17.2175507,15.5172018 17.1923457,15.5147757 17.1675661,15.5098552 C15.8205682,15.2414468 15.1547442,13.0874139 15.1487177,13.0656816 C15.1120623,12.9361416 15.2159666,12.8077635 15.3807032,12.7790262 C15.5461134,12.7504939 15.7087231,12.8318194 15.7453431,12.9614961 C15.8948007,13.4902828 16.3836223,14.4868621 16.9646142,14.885733 C16.9915563,13.5751962 16.3312979,12.2316849 15.3721598,11.663944 C14.8728095,12.1262351 14.4669412,12.5758832 14.2467605,13.0902501 C14.2403086,13.105285 14.2316942,13.1191582 14.2220873,13.1323822 C14.6681915,15.0060128 16.444242,16.5355477 17.6246598,17.071476 C17.770856,17.1379032 17.8209116,17.2848359 17.7365403,17.3998534 C17.6799265,17.4769076 17.5772275,17.5200307 17.4715862,17.5200307 C17.4196872,17.5200307 17.3671856,17.509677 17.3190444,17.4878422 C15.8948007,16.8412701 13.1373139,14.5558863 13.5407007,11.7297561 C12.3119644,12.427037 11.1744058,13.5351485 10.5773196,14.8116858" id="Fill-5" fill="#FFFFFF"></path>
                <path d="M14.0456482,23.8127379 C15.6980112,23.9667482 17.0843346,24.4716464 18.0961668,25.2696049 C16.1862583,21.8818997 11.5182897,20.1244054 8.43602193,19.9487011 C8.26581821,19.9389128 8.13783391,19.8220774 8.150127,19.6876438 C8.16238425,19.5531755 8.31029554,19.4537301 8.48057093,19.4616441 C11.4919115,19.6333914 16.4943022,21.2850535 18.6082474,24.9648819 C18.3817392,21.5675271 17.3925936,19.554078 15.1526354,17.6752707 C14.9954057,17.5434057 14.8439821,17.4120267 14.6983287,17.2810294 C13.5498748,16.3563083 12.0912623,15.7094097 10.2645739,15.3134328 C10.1792033,15.5564754 10.1135804,15.8041692 10.0708234,16.0551952 C13.8928627,16.6614132 16.3743461,19.9425227 17.2511335,21.828515 C17.3069004,21.9483355 17.23626,22.0819707 17.089173,22.1348694 C16.9421219,22.1878029 16.7682266,22.1421586 16.6903465,22.0303216 C15.9111511,20.9103542 14.5041481,20.3024006 13.0146058,19.6587994 C11.0939452,18.8288726 9.11353951,17.9731905 8.49888512,15.9522093 C8.25173313,16.2839023 8.03773305,16.6618991 7.8658807,17.0716213 C8.28395321,17.6134861 8.87563422,18.1364338 9.58504932,18.5896829 C9.71772865,18.6744805 9.73822907,18.8281784 9.63096024,18.9330386 C9.56996072,18.9926365 9.48064767,19.0236329 9.39047447,19.0236329 C9.32230696,19.0236329 9.2536377,19.0058959 9.19636554,18.9692763 C8.59178216,18.5830184 8.0650789,18.1477841 7.64614624,17.6908904 C7.44587284,18.3724996 7.35910443,19.1143313 7.42099995,19.8619597 C7.73011914,20.8112211 9.5064524,21.4260126 12.7059167,21.6901244 C12.8756186,21.7041822 12.998872,21.8242109 12.9811313,21.9583321 C12.9645016,22.0837409 12.8303886,22.1770773 12.6741625,22.1770773 C12.6634464,22.1770773 12.6525869,22.1765914 12.6416557,22.1757583 C10.2066925,21.9747848 8.54415092,21.5713453 7.62163174,20.953048 C7.73614024,21.3472199 7.89763486,21.7353522 8.11134822,22.1094267 C10.5628695,23.3303668 13.7518685,22.7720145 14.512893,22.6125547 C14.6771832,22.5776012 14.8469926,22.6554568 14.8907532,22.7858987 C14.9345495,22.916167 14.8363124,23.0498369 14.6713054,23.0845127 C11.9457881,23.6556384 8.19094865,23.4939571 6.1291147,21.3015756 C6.06442367,21.6393778 6.05607297,21.9940144 6.09782646,22.3528858 C6.48855311,22.8282454 7.49314568,23.3486592 8.73055428,23.4603921 C8.90014871,23.4757341 9.02178935,23.5967348 9.00250748,23.7307518 C8.98448001,23.8551888 8.85079716,23.9471021 8.69582541,23.9471021 C8.6841416,23.9471021 8.67227859,23.9466161 8.66037974,23.9455401 C7.78097597,23.8661226 6.92020894,23.5883348 6.2881722,23.2062075 C6.54356737,23.9851794 7.01385862,24.7374243 7.63661282,25.3333333 C9.01440633,24.2030916 11.5840559,23.5830936 14.0456482,23.8127379" id="Fill-7" fill="#FFFFFF"></path>
                <g id="Group-11">
                    <mask id="mask-2" fill="white">
                        <use xlink:href="#path-1"></use>
                    </mask>
                    <g id="Clip-10"></g>
                    <path d="M37.5717621,22.3024161 C34.5727565,12.3588634 22.4136833,3.32180197 18.9741486,0.00731885242 C15.5345782,3.32180197 3.37554071,12.3588634 0.376535084,22.3024161 C0.033465666,23.4399365 -0.1111197,24.7124047 0.0954206379,25.9540277 C0.581970356,30.5946483 4.63959325,34.2163442 9.57317674,34.2163442 C14.1332837,34.2163442 17.9958803,30.9828298 18.9309797,26.8499158 C18.9342236,26.8411718 18.9373606,26.8338391 18.9404976,26.8270917 C18.9390717,26.8269196 18.9376458,26.8267131 18.9362199,26.8265409 C18.9324413,26.8260934 18.9286627,26.8257147 18.9249197,26.8251295 C18.9191805,26.8243033 18.9134769,26.8232361 18.9077734,26.8221345 C18.904066,26.8214115 18.9003587,26.820723 18.8966514,26.8198968 C18.8946552,26.8194149 18.892552,26.819105 18.8904844,26.8185887 C18.8868484,26.817728 18.8833193,26.8165575 18.8797189,26.8155592 C18.8760116,26.8145264 18.87234,26.8134937 18.8686683,26.8123921 C18.8676702,26.8120478 18.8666008,26.8118068 18.865567,26.8114626 C18.8645689,26.8111872 18.8635351,26.8109462 18.8625013,26.8106019 C18.8592931,26.8095348 18.8562274,26.808261 18.8531261,26.807125 C18.8491692,26.8056791 18.8453193,26.8042677 18.8414694,26.8027185 C18.8369066,26.8008595 18.832415,26.7989317 18.8279947,26.796935 C18.8237171,26.7949728 18.819475,26.7929417 18.8153043,26.7908417 C18.8133794,26.7898778 18.8113118,26.7890172 18.8093869,26.7880188 C18.807355,26.7869517 18.8055726,26.7857123 18.8035764,26.7846107 C18.7994413,26.7823042 18.7953775,26.7798944 18.791385,26.7774158 C18.7875351,26.7750404 18.7837208,26.7726307 18.7800492,26.7700832 C18.7765201,26.7676734 18.7730623,26.7651948 18.7696758,26.7626473 C18.7657902,26.7597555 18.7620116,26.756795 18.75834,26.7537655 C18.7554169,26.7513213 18.7526008,26.7488427 18.7498203,26.7462952 C18.746006,26.7428526 18.7423343,26.7394101 18.7388053,26.7357954 C18.7363812,26.7333512 18.7340642,26.730907 18.7317471,26.7283251 C18.728218,26.7244694 18.7248315,26.7205105 18.7216233,26.7164827 C18.7204826,26.7150713 18.7191992,26.7137976 18.7180585,26.7123517 C18.4998972,26.4275154 17.4555032,26.0574418 16.3149328,26.1221272 C15.3422255,26.1787915 14.0179647,26.5568519 13.2334038,28.0371122 C13.1841392,28.1300265 13.0699253,28.1859334 12.9496514,28.1860711 C12.9101899,28.1860711 12.8701223,28.1800122 12.8314094,28.1672748 C12.6747039,28.1157055 12.6008071,27.9739759 12.6661842,27.8505262 C13.6187152,26.0534484 15.332779,25.693668 16.2697321,25.6391725 C16.8899235,25.6031978 17.4804563,25.6722553 17.9750623,25.8007656 C16.7625201,24.6712318 15.0450698,24.3371672 14.0117265,24.2410513 C11.7639872,24.0322265 9.34834934,24.6093693 8.12700225,25.6248859 C8.39549756,25.8293043 8.6852743,26.005597 8.99287467,26.1455365 C9.01757824,26.1567936 9.03932308,26.170495 9.05839437,26.1858143 C10.813809,26.2295691 12.8282368,25.8860374 13.8528822,25.1902301 C12.8974994,25.0582773 11.8016308,25.0944584 10.3872893,25.7376293 C10.2402799,25.8045524 10.0522405,25.7646877 9.96747129,25.6489493 C9.88263077,25.5331076 9.93292908,25.3850781 10.0799028,25.3181895 C11.9516345,24.466779 13.3759929,24.5826207 14.522552,24.8086927 C14.6222574,24.8283152 14.7029629,24.885909 14.7375051,24.9621614 C14.7720473,25.0384138 14.7558991,25.123307 14.6945501,25.1881989 C13.3841561,26.5744777 9.37747317,27.0108548 7.04835122,26.4268269 C7.316597,26.7877779 7.69698912,27.1747889 8.19990094,27.531712 C8.9997546,27.9505666 10.5943287,27.5114354 11.4899666,27.1039413 C11.6369403,27.0372247 11.8248728,27.076814 11.909749,27.1925868 C11.9946251,27.3083252 11.9442912,27.456458 11.7973174,27.5233811 C11.2016871,27.7943094 10.2453775,28.1146727 9.34097036,28.174814 C10.3397358,28.6146337 11.6290623,28.9051157 13.2456664,28.857402 C13.412567,28.8517218 13.5579722,28.9565817 13.5642462,29.0902902 C13.570627,29.2240331 13.4382687,29.336329 13.2685876,29.3414239 C13.144036,29.345073 13.0212311,29.3468632 12.9002086,29.3468632 C10.6162518,29.3468632 8.95915235,28.706825 7.83708293,27.9236803 C7.8171561,27.9128707 7.79733621,27.9018201 7.77790844,27.8902187 C7.7496045,27.8733847 7.72636248,27.8532802 7.7077546,27.8312824 C6.89210919,27.2321073 6.37953696,26.5624632 6.13089719,26.0360636 C6.08573208,25.9404296 6.1215576,25.8325747 6.22058574,25.7667188 C6.31954259,25.7008629 6.46052758,25.6908451 6.57263827,25.741898 C6.91506604,25.8976732 7.35506041,26.0120002 7.8519122,26.0861526 C6.60261764,25.2063412 5.75456886,23.8082545 5.57273208,22.437536 C5.56610169,22.4158824 5.56357073,22.3938845 5.5646045,22.3720932 C5.49220488,21.7545005 5.55590657,21.1442059 5.78048443,20.5912987 C5.8175576,20.5000368 5.91943752,20.4345251 6.04038874,20.4243352 C6.16037749,20.4137321 6.27847692,20.4610327 6.33932683,20.5439981 C6.60646754,20.9085637 6.91167955,21.2174633 7.24327054,21.4795788 C7.03498349,20.9435744 6.91492345,20.397862 6.86982964,19.8582774 C6.86651445,19.8444039 6.86312795,19.8304616 6.86020488,19.816416 C6.85450131,19.7889789 6.85517861,19.7619205 6.86088218,19.7359982 C6.74791595,17.9377499 7.4587227,16.2226047 8.49545253,15.1880509 C8.57230807,15.1111788 8.70024615,15.0788189 8.81984278,15.1049478 C8.93929681,15.131421 9.02684653,15.2119077 9.04178274,15.3090219 C9.11403977,15.7787229 9.25955197,16.1858039 9.46324053,16.5444828 C9.46791032,16.4471276 9.47575272,16.3500822 9.48694597,16.2533811 C9.48740938,16.2459108 9.48844315,16.2383716 9.48979775,16.230798 C9.54052383,15.8114959 9.65110169,15.399733 9.81073021,15.0012239 C9.81219174,14.9934782 9.8141167,14.985698 9.81657636,14.9779523 C9.82231557,14.9600855 9.83058574,14.9433203 9.84070957,14.9275534 C10.5474169,13.2344061 12.1340773,11.7904303 13.7565632,11.0524173 C13.8621861,11.0043249 13.9941167,11.0099707 14.0923962,11.0670825 C14.1907114,11.1240567 14.2368034,11.2214807 14.2100679,11.3152901 C14.1219122,11.6235012 14.0786008,11.9284419 14.0725407,12.2279434 C14.4737865,11.7104599 15.015946,11.2398639 15.5796008,10.750747 C16.8466833,9.65119787 18.2828053,8.40492743 18.6768146,6.18410669 C18.6769572,6.18341818 18.6772068,6.18272968 18.6773493,6.18200674 C18.6783831,6.17646424 18.679809,6.17105945 18.6813062,6.16565465 C18.6820548,6.16317602 18.6825895,6.16062853 18.6833737,6.1581499 C18.6850848,6.1528828 18.687188,6.14768456 18.6893625,6.14252074 C18.6903606,6.14011096 18.6912518,6.13756347 18.6923212,6.13518812 C18.6947809,6.1298866 18.697597,6.1247572 18.7004844,6.11962781 C18.7016251,6.11759671 18.7026589,6.11553118 18.7038353,6.11350008 C18.7076495,6.10723465 18.7119272,6.10110691 18.7164188,6.09508246 C18.7168465,6.09449723 18.717203,6.09391199 18.7176308,6.09332676 C18.763794,6.03270353 18.842931,5.98832911 18.9386795,5.97779492 C18.9457021,5.97700314 18.9526533,5.97672773 18.9596402,5.97634905 C18.9607096,5.9762802 18.9617433,5.97617693 18.9628484,5.9761425 C18.9705126,5.97576382 18.9781411,5.9757294 18.9857696,5.97583267 C18.9890848,5.97583267 18.9923644,5.97583267 18.9956795,5.97593595 C19.0010266,5.9761425 19.0063024,5.97655561 19.0116495,5.97696871 C19.0156777,5.97727854 19.0197058,5.97734739 19.0238053,5.97779492 C19.025445,5.97796705 19.0270135,5.9783113 19.0286533,5.97851786 C19.0315764,5.97889654 19.0344281,5.97941292 19.0373512,5.97982602 C19.0449084,5.98096206 19.0523944,5.98213253 19.0597377,5.98364725 C19.0602724,5.98378495 19.0608428,5.98392265 19.0613418,5.98402593 C19.1300698,5.99862232 19.1881036,6.03094783 19.2283137,6.07380753 C19.2285989,6.07408293 19.2288484,6.07439276 19.2290623,6.07466816 C19.2345163,6.08052049 19.2396852,6.08654495 19.2444263,6.09274153 C19.2459235,6.09466935 19.2471711,6.09670046 19.2485614,6.09869713 C19.2520191,6.10344785 19.2554413,6.10819856 19.2584356,6.11315582 C19.2600041,6.11577216 19.2613231,6.11845735 19.2627846,6.12110811 C19.2653156,6.12568669 19.2678822,6.1302997 19.2700923,6.13498157 C19.2713043,6.1375979 19.2722311,6.14038636 19.2733719,6.14303712 C19.2754038,6.14799439 19.2774356,6.15302051 19.2790754,6.15808105 C19.2798953,6.16059411 19.2804657,6.16321044 19.2811786,6.16575792 C19.2826758,6.1711283 19.2841017,6.17649867 19.2851711,6.18200674 C19.285278,6.18272968 19.2855276,6.18338376 19.2856345,6.18410669 C19.6796439,8.40492743 21.1157659,9.65119787 22.3828484,10.7507814 C22.9465032,11.2399328 23.4886983,11.7104944 23.8898728,12.2279778 C23.8838484,11.9284419 23.8406083,11.6235356 23.7524169,11.3152901 C23.7256458,11.2214807 23.7717734,11.1240567 23.8700886,11.0670825 C23.968475,11.0099707 24.1002274,11.0043249 24.2059216,11.0524173 C25.8283006,11.7903958 27.4148897,13.2343373 28.121597,14.9274501 C28.1317921,14.9432514 28.1400979,14.9600511 28.1458371,14.9779523 C28.1482968,14.9857669 28.1502218,14.993547 28.1517189,15.0013616 C28.310991,15.3990101 28.4214263,15.8098435 28.4722593,16.2282161 C28.4722593,16.2282505 28.4722949,16.2283194 28.4722949,16.2283882 C28.4739347,16.2368569 28.4749328,16.2452567 28.4754675,16.2536221 C28.4866608,16.3502543 28.4944675,16.4472309 28.4991373,16.5445172 C28.7028972,16.1858383 28.8483381,15.7787229 28.9205951,15.3090219 C28.9355313,15.2119077 29.0231167,15.131421 29.1425707,15.1049478 C29.2620961,15.0785779 29.3899985,15.1113165 29.466961,15.1880509 C30.5036552,16.2225703 31.2144619,17.9376122 31.101567,19.7357916 C31.1072705,19.7618172 31.1080191,19.7889101 31.1022799,19.816416 C31.0993568,19.8304616 31.0959347,19.8444039 31.0926195,19.8583118 C31.0474901,20.3978964 30.9274657,20.9436432 30.7191786,21.479682 C31.050734,21.2174977 31.3560173,20.9085981 31.623158,20.5439981 C31.6838653,20.4610327 31.800218,20.4137321 31.9220961,20.4243352 C32.0430116,20.4345251 32.1449272,20.5000368 32.1820004,20.5912987 C32.4065426,21.1441371 32.4702443,21.7542939 32.3978803,22.3717834 C32.3989854,22.3937124 32.3963475,22.4159168 32.3896814,22.437777 C32.2077021,23.8084266 31.3597246,25.2063412 30.110537,26.0861526 C30.6074244,26.0120002 31.0474188,25.8977076 31.3898822,25.741898 C31.5020998,25.6908451 31.6430492,25.7008629 31.7419347,25.7667188 C31.8408916,25.8325747 31.8767527,25.9404296 31.8316233,26.0360636 C31.5830548,26.5622911 31.0705182,27.2317286 30.2550867,27.8308004 C30.2364432,27.8530048 30.2130229,27.8732814 30.1845051,27.8902187 C30.1646495,27.9020955 30.1444019,27.9133871 30.1239403,27.9244721 C29.0018709,28.7071693 27.3450923,29.3467255 25.0622762,29.3468632 C24.9410398,29.3468632 24.818627,29.345073 24.6938615,29.3414239 C24.5242161,29.336329 24.3918578,29.2240331 24.3982386,29.0902902 C24.4045482,28.9567194 24.5498109,28.8519283 24.7168184,28.857402 C26.3346702,28.9051845 27.6240679,28.6147369 28.6225839,28.1748829 C27.7178203,28.1149481 26.7610829,27.7944127 26.165203,27.5233811 C26.0182293,27.456458 25.967824,27.3083252 26.0527002,27.1925868 C26.1375407,27.076814 26.3254732,27.0372247 26.4725182,27.1039413 C27.3692612,27.5119518 28.9665445,27.9514272 29.7655782,27.530094 C30.2670285,27.1736184 30.6463512,26.7871926 30.9140623,26.4268269 C28.584976,27.0105106 24.5781505,26.5746154 23.2679347,25.1881989 C23.2065501,25.123307 23.1904375,25.0384138 23.2249441,24.9621614 C23.259522,24.885909 23.3401917,24.8283152 23.4398972,24.8086927 C24.586278,24.5829994 26.0107077,24.4668823 27.8824394,25.3181895 C28.0294131,25.3850781 28.0798184,25.5331076 27.9949422,25.6489493 C27.910066,25.7646877 27.7220266,25.8045524 27.5751242,25.7376293 C26.1608897,25.0942174 25.0651992,25.0582773 24.1096026,25.1902301 C25.134248,25.8859341 27.1486758,26.2295002 28.9041617,26.1857799 C28.9231974,26.1704605 28.9449066,26.1567936 28.9696101,26.1455365 C29.2771749,26.005597 29.5669516,25.8293043 29.8354826,25.6248859 C28.6139929,24.6092316 26.1978916,24.0319855 23.9505445,24.241189 C22.9172368,24.3371672 21.1998221,24.6712318 19.9873512,25.8009033 C20.4819929,25.6722553 21.0726683,25.6033355 21.6927884,25.6391725 C22.6297058,25.693668 24.3437696,26.0534484 25.2963006,27.8505262 C25.3616777,27.9739759 25.2877452,28.1157055 25.1311111,28.1672748 C25.0924694,28.1800122 25.0522949,28.1860711 25.0128334,28.1860711 C24.8925238,28.1860711 24.7783456,28.1300265 24.7290454,28.0371122 C23.9445201,26.5568519 22.6202593,26.1787915 21.6475163,26.1221272 C20.5075876,26.0569598 19.4626233,26.4275154 19.2443906,26.7123517 C19.2433212,26.7137631 19.2420379,26.7150369 19.2408972,26.7164139 C19.2376176,26.7205105 19.2341955,26.7245383 19.2305951,26.7284628 C19.228385,26.730907 19.2261392,26.7332824 19.2238578,26.7356233 C19.2201505,26.7393757 19.2163362,26.7429903 19.2123794,26.7465706 C19.2097415,26.7489115 19.2071036,26.751218 19.2043944,26.7535245 C19.2005445,26.7567605 19.1965163,26.7598244 19.1924169,26.7628883 C19.1892443,26.765298 19.186036,26.7676045 19.1827921,26.7698422 C19.1788353,26.7725618 19.1748071,26.7751437 19.170672,26.7776912 C19.1669291,26.7799977 19.1631505,26.7822354 19.1592649,26.7843697 C19.1553081,26.7866418 19.1512443,26.7887762 19.1470735,26.7908762 C19.1470379,26.7909106 19.1470023,26.790945 19.146931,26.790945 C19.1428672,26.7929761 19.1388034,26.7949384 19.1346326,26.7968318 C19.1322086,26.7979334 19.1298916,26.7992071 19.1273962,26.8002399 C19.1273962,26.8002743 19.1273606,26.8002743 19.127325,26.8002743 C19.126612,26.8005841 19.1259347,26.8007907 19.1252218,26.8011005 C19.1237602,26.8016858 19.122263,26.8022021 19.1208015,26.8027874 C19.1170942,26.8042677 19.1133156,26.8056791 19.109537,26.8070561 C19.1063287,26.8082266 19.103263,26.8095003 19.1000191,26.8105675 C19.0982011,26.8111872 19.0963831,26.8115659 19.0945651,26.8121511 C19.0942443,26.8122544 19.0939591,26.8123232 19.0936739,26.8124265 C19.0901092,26.8135281 19.0864732,26.8145264 19.0829084,26.8155248 C19.0792368,26.8165231 19.0757077,26.8176936 19.0720004,26.8185887 C19.0699328,26.819105 19.0677583,26.8194493 19.0656552,26.8199312 C19.0620904,26.820723 19.0584544,26.8214115 19.0548897,26.8221 C19.0490792,26.8232017 19.0432687,26.8243033 19.0374582,26.8251639 C19.0337865,26.8257147 19.0300435,26.8260934 19.0263362,26.8265409 C19.0225576,26.8269885 19.0188503,26.8275737 19.0150717,26.8279179 C19.0177452,26.8341834 19.0201692,26.8407586 19.0224507,26.8474372 C19.9017265,31.0510955 23.7477471,34.2163442 28.3598634,34.2163442 C32.5779704,34.2163442 36.1534638,31.5678904 37.4065013,27.8997202 C38.2171205,26.0735873 38.0852612,24.0051337 37.5717621,22.3024161" id="Fill-9" fill="#F2F2F2" mask="url(#mask-2)"></path>
                </g>
                <path d="M13.2712094,19.2576787 C14.0965478,19.6075404 14.9374317,19.9641777 15.6701031,20.4179104 C14.5122833,18.8555766 12.5657783,17.0650043 9.99435082,16.6368159 C9.98187162,16.8889386 9.99417255,17.1433311 10.0346765,17.3985028 C10.0374932,17.416255 10.0375288,17.4337363 10.0353539,17.450811 C10.8605496,18.2355012 12.0453958,18.7380187 13.2712094,19.2576787" id="Fill-12" fill="#FFFFFF"></path>
                <path d="M27.7694616,17.3985028 C27.8099661,17.1433311 27.8222315,16.8889386 27.8097878,16.6368159 C25.2386065,17.0650382 23.291858,18.8556782 22.1340206,20.4179104 C22.8666675,19.9640761 23.7075285,19.6075404 24.5329507,19.2576787 C25.7587116,18.7380526 26.9436115,18.2355012 27.7687128,17.4508448 C27.7666091,17.4337363 27.7666091,17.4162212 27.7694616,17.3985028" id="Fill-14" fill="#FFFFFF"></path>
            </g>
        </g>
    </g>
</svg>