<?xml version="1.0" standalone="no"?><!DOCTYPE svg PUBLIC "-//W3C//DTD SVG 1.1//EN" "http://www.w3.org/Graphics/SVG/1.1/DTD/svg11.dtd"><svg t="1559082167739" class="icon" style="" viewBox="0 0 1024 1024" version="1.1" xmlns="http://www.w3.org/2000/svg" p-id="1976" xmlns:xlink="http://www.w3.org/1999/xlink" width="200" height="200"><defs><style type="text/css"></style></defs><path d="M78.848 233.472V814.08h870.4V233.472h-870.4z m196.096 215.552l-51.2-37.376-51.2 37.376 19.456-59.904-51.2-37.376h63.488L223.744 291.84l19.456 60.416h63.488l-51.2 37.376 19.456 59.392zM376.32 501.76l-1.536 20.992-10.752-17.408-19.456 5.12 13.312-16.384-11.776-17.408 19.968 7.68 13.312-16.384-1.024 21.504 18.432 7.68-20.48 4.608z m1.024-202.752l-2.048 20.992-10.752-17.92-20.48 4.608 13.824-15.872-10.752-17.92 19.456 8.192 13.824-15.872-2.048 20.992 19.456 8.192-20.48 4.608z m36.864 24.576l14.848 15.36 18.944-9.216-10.24 18.432 14.848 15.36-20.992-3.584-9.728 18.432-3.072-20.992-20.992-3.584 18.944-9.216-2.56-20.992z m30.72 136.192l-17.408-11.776-16.384 12.8 5.632-20.48-17.408-11.776 20.992-0.512 5.632-20.48 7.168 19.968 20.992-0.512-16.384 12.8 7.168 19.968z" fill="#DB1F15" p-id="1977"></path><path d="M378.368 489.472l1.024-22.016-13.312 16.896-19.968-7.68 11.776 17.408-13.312 16.896 19.456-5.632 10.752 17.408 1.536-20.992 20.48-5.12zM243.2 351.744L223.744 291.84l-19.456 59.904H140.8l51.2 37.376-19.456 59.904 51.2-36.864 51.2 36.864-19.456-59.904 51.2-37.376zM380.416 265.216l-13.824 15.872-19.456-8.704 10.752 18.432-13.824 15.872 20.48-4.608 10.752 17.92 2.048-20.992 20.48-4.608-19.456-8.192zM418.816 357.376l3.072 20.992 9.728-18.432 20.992 3.584-14.848-15.36 10.24-18.432-18.944 9.216-14.848-15.36 3.072 20.992-18.944 9.216zM454.144 427.008l-20.992 0.512-7.168-19.968-5.632 20.48-21.504 1.024 17.92 11.776-6.144 19.968 16.896-12.8 17.408 11.776-7.168-19.968z" fill="#FFE200" p-id="1978"></path></svg>