<svg width="194" height="182" viewBox="0 0 194 182" fill="none" xmlns="http://www.w3.org/2000/svg">
<rect x="-1.15844" y="-0.811148" width="102.092" height="146.015" rx="9" transform="matrix(0.984805 -0.173662 0.173635 0.98481 1.12324 18.1688)" fill="#F9F9F9" stroke="#D8D8D8" stroke-width="2"/>
<path fill-rule="evenodd" clip-rule="evenodd" d="M65.375 93.7093C65.1543 98.9468 61.3336 103.706 55.9782 104.806L56.2142 106.143L78.3896 102.237L78.154 100.901C72.662 101.747 67.4423 98.6512 65.4852 93.6867C65.4654 93.6496 65.4404 93.6157 65.418 93.6196C65.4011 93.6226 65.3856 93.6475 65.375 93.7093Z" fill="#585AFA"/>
<path fill-rule="evenodd" clip-rule="evenodd" d="M41.3092 88.6255C42.7578 75.6146 55.4985 61.7771 58.9363 56.9196C63.8294 60.3094 80.5385 68.9586 86.3537 80.6898C87.3494 82.6987 87.9632 85.2439 87.3825 87.6889C86.6704 92.5199 82.9219 96.5777 77.8137 97.4777C72.2283 98.4617 66.8756 95.3444 64.8879 90.302C64.8531 90.2368 64.8022 90.181 64.7777 90.3246C64.5527 95.666 60.5849 100.513 55.0625 101.486C49.0878 102.538 43.3787 98.8983 41.7705 93.2286C41.2478 91.7279 41.1435 90.1139 41.3092 88.6255ZM57.146 70.7939C56.5706 71.5228 56.017 72.2242 55.6448 72.954C55.5862 72.5798 55.5722 72.1908 55.6114 71.7884C55.6231 71.666 55.5459 71.5545 55.4144 71.5047C55.2828 71.4545 55.1217 71.4757 55.0044 71.558C53.2016 72.8224 51.5969 74.9573 51.1128 77.2147C51.104 77.2364 51.0979 77.2592 51.0949 77.2825C51.0937 77.2921 51.093 77.3016 51.0928 77.3109C50.9863 77.8434 50.9428 78.3821 50.9742 78.9173C50.9743 78.9233 50.9746 78.9292 50.9752 78.935C50.9829 79.0593 50.9946 79.1833 51.0106 79.3069C50.6852 78.9042 50.4199 78.4286 50.2293 77.8598C50.1899 77.7422 50.0662 77.6607 49.9157 77.6532C49.7651 77.6462 49.6173 77.7139 49.5411 77.8258C48.5128 79.334 48.0282 81.6197 48.5598 83.8327C48.5586 83.8663 48.564 83.9002 48.577 83.9331C48.5836 83.9499 48.5904 83.9666 48.5975 83.9831C48.7707 84.645 49.036 85.2989 49.4063 85.9215C48.947 85.6662 48.5097 85.3461 48.106 84.9494C48.0141 84.8591 47.8606 84.8255 47.7177 84.8644C47.5734 84.9028 47.4644 85.0059 47.4396 85.1275C47.2891 85.8631 47.3455 86.6358 47.5686 87.3885C47.5721 87.416 47.5803 87.4431 47.5931 87.4688C48.1143 89.1354 49.4486 90.6938 51.1547 91.5219C50.5366 91.5356 49.9787 91.4872 49.5297 91.3664C49.3828 91.3269 49.2142 91.3695 49.1088 91.4726C49.0035 91.5756 48.9837 91.7174 49.0594 91.8267C49.476 92.4284 50.2433 93.152 51.362 93.7232C51.3895 93.7469 51.4227 93.767 51.4611 93.7821C51.4872 93.7925 51.5134 93.8021 51.5399 93.8113C53.0707 94.5463 55.2183 94.9887 57.9842 94.5015C58.1307 94.4757 58.2791 94.4473 58.4291 94.4161C58.6334 94.3737 58.7691 94.2057 58.7321 94.0406C58.695 93.8756 58.4959 93.7761 58.2951 93.8188C56.3479 94.2231 54.7223 94.137 53.4162 93.8029C54.4983 93.5352 55.5863 92.9324 56.2482 92.4682C56.4114 92.3536 56.4399 92.1585 56.3117 92.0327C56.1836 91.9068 55.9472 91.8976 55.7838 92.0119C54.7904 92.7089 52.9597 93.5943 51.8984 93.2487C51.2085 92.9115 50.6613 92.51 50.2563 92.1171C53.2051 92.3469 57.9615 90.9492 59.2441 88.9448C59.3042 88.851 59.305 88.742 59.2465 88.6544C59.1879 88.5669 59.0776 88.5126 58.9524 88.5094C57.5143 88.4727 55.7639 88.6324 53.6841 90.091C53.5209 90.2057 53.4924 90.4006 53.6206 90.5265C53.7487 90.6526 53.9851 90.662 54.1485 90.5473C55.7201 89.4453 57.0393 89.1666 58.2252 89.1269C57.1373 90.211 54.7734 91.0682 52.6381 91.3883C52.6116 91.3733 52.5819 91.3611 52.5493 91.3523C52.1461 91.2439 51.7562 91.0865 51.3862 90.8894C52.6422 89.3654 55.4412 88.1319 58.2092 87.9122C59.4818 87.8113 61.6349 87.8603 63.3514 89.0071C62.7242 88.9526 61.9939 88.9927 61.2506 89.1697C60.1279 89.4374 58.1312 90.2507 57.3722 92.6898C57.3201 92.8573 57.4408 93.0179 57.6418 93.0487C57.6916 93.0563 57.7413 93.0552 57.7892 93.0468C57.9348 93.021 58.0609 92.9271 58.1001 92.8009C58.7252 90.792 60.2459 90.039 61.4115 89.761C62.7749 89.438 64.1173 89.6735 64.4487 89.9802C64.4847 90.0148 64.5313 90.0426 64.5866 90.0599C64.5887 90.0605 64.5907 90.0611 64.5926 90.0618C64.5991 90.0636 64.6057 90.0654 64.6124 90.067C64.6433 90.0745 64.6748 90.0784 64.7062 90.0791C64.7354 90.0797 64.7654 90.0774 64.7957 90.072C64.8377 90.0646 64.8771 90.0519 64.913 90.0348C64.9305 90.0266 64.9488 90.0162 64.9663 90.0047C64.9687 90.003 64.9712 90.0014 64.9736 89.9997C64.9775 89.997 64.9813 89.9942 64.985 89.9915C65.0326 89.9559 65.0679 89.913 65.0903 89.8672C65.2968 89.4657 66.4783 88.785 67.8694 88.6233C69.0599 88.4862 70.7465 88.6742 72.0217 90.3483C72.1018 90.4534 72.2523 90.4988 72.3981 90.4731C72.4458 90.4647 72.4931 90.4486 72.5371 90.4245C72.7155 90.3269 72.7739 90.1348 72.6677 89.9952C71.1195 87.9625 68.9647 87.8806 67.8181 88.0127C67.0593 88.1005 66.3592 88.3122 65.7883 88.5779C67.0086 86.9136 69.0152 86.1317 70.2454 85.7917C72.9212 85.0521 75.9741 85.2546 77.6764 86.2577C77.3961 86.5694 77.0836 86.8505 76.7418 87.0902C76.7143 87.1096 76.6905 87.1312 76.6707 87.1544C74.5546 87.5833 72.0399 87.5855 70.6464 86.9386C71.7747 86.5706 73.1095 86.3815 74.9635 86.8803C75.156 86.9322 75.375 86.8426 75.4524 86.6803C75.5297 86.5182 75.4363 86.3447 75.2436 86.2927C72.7899 85.6331 71.0903 86.0814 69.7516 86.6068C69.6352 86.6526 69.5501 86.7414 69.525 86.8436C69.5 86.9459 69.5381 87.0481 69.6267 87.1156C71.5178 88.561 76.4659 88.2484 79.1584 87.0253C78.9125 87.5322 78.5369 88.0957 78.0055 88.6476C77.1277 89.3375 75.1016 89.1311 73.9282 88.8153C73.7354 88.7638 73.5166 88.8531 73.4393 89.0153C73.3618 89.1773 73.4554 89.3509 73.648 89.4028C74.4293 89.6129 75.6585 89.8077 76.7674 89.6891C75.6547 90.4493 74.1567 91.0857 72.187 91.3714C71.9835 91.4004 71.8306 91.5616 71.8522 91.7292C71.8739 91.897 72.0588 92.0085 72.2655 91.9785C72.4173 91.9565 72.5659 91.9326 72.7128 91.9067C75.4775 91.4195 77.3439 90.2702 78.531 89.0569C78.5531 89.0389 78.5748 89.0205 78.5961 89.0016C78.6273 88.9742 78.6517 88.9437 78.6696 88.9118C79.525 87.9928 79.9983 87.0509 80.1836 86.3434C80.2173 86.2148 80.1503 86.0883 80.0159 86.0275C79.8818 85.9667 79.7089 85.9843 79.5841 86.0716C79.2035 86.3385 78.6959 86.5747 78.1103 86.773C79.4301 85.4118 80.1503 83.4918 80.0697 81.7475C80.0731 81.7188 80.0714 81.6904 80.0651 81.6631C80.0171 80.8797 79.8057 80.1343 79.4125 79.4947C79.3475 79.3889 79.2099 79.3292 79.0612 79.3424C78.9112 79.3552 78.7807 79.4389 78.7254 79.555C78.4819 80.0659 78.1804 80.5161 77.8362 80.9132C77.9711 80.2013 77.9966 79.4963 77.9327 78.815C77.9337 78.7971 77.9344 78.779 77.9349 78.761C77.9358 78.7255 77.9293 78.6917 77.9166 78.6606C77.6585 76.3994 76.4207 74.4174 74.9382 73.3515C74.8282 73.2724 74.6661 73.2591 74.527 73.3173C74.3883 73.3758 74.2999 73.4947 74.3031 73.6186C74.3187 74.2182 74.2323 74.7558 74.0644 75.2454C74.0371 75.1241 74.0057 75.004 73.9706 74.885C73.969 74.8787 73.967 74.8722 73.9649 74.8658C73.8112 74.3525 73.586 73.8617 73.3038 73.3979C73.3004 73.3892 73.2965 73.3806 73.2921 73.3719C73.2813 73.3509 73.2677 73.3317 73.252 73.3142C72.0244 71.3585 69.7857 69.9006 67.6589 69.3286C67.5203 69.2914 67.362 69.3265 67.2554 69.4186C67.1488 69.5104 67.1144 69.6415 67.1674 69.7525C67.3419 70.1173 67.4619 70.4876 67.535 70.8592C66.9354 70.3008 66.1751 69.8309 65.3849 69.3424C63.6104 68.2455 61.5993 67.0025 60.6336 64.3277C60.5908 64.1984 60.4436 64.11 60.2689 64.1209C60.2627 64.1212 60.2564 64.1217 60.2502 64.1225C60.2222 64.1252 60.194 64.1308 60.1659 64.139C59.9982 64.1885 59.89 64.3218 59.8942 64.458C59.9024 67.3015 58.438 69.1568 57.146 70.7939ZM57.7683 71.1019C58.8908 69.6798 60.1373 68.1004 60.5246 65.8717C61.6513 67.8337 63.3634 68.8919 64.9051 69.8447C65.0457 69.9316 65.1839 70.0171 65.3193 70.1017C64.0197 71.2858 63.4613 73.5555 64.0472 75.4928C64.0731 75.5784 64.1441 75.6476 64.2419 75.6826C64.3115 75.7076 64.3897 75.7131 64.4657 75.6997C64.4962 75.6943 64.5264 75.6859 64.5555 75.6745C66.1365 75.049 66.4708 72.2062 66.4733 72.1778C66.4893 72.0075 66.3343 71.8689 66.1274 71.8682C65.9209 71.8677 65.7397 72.0047 65.7237 72.1752C65.6587 72.87 65.2838 74.224 64.6646 74.8486C64.3419 73.2118 64.8486 71.3859 65.8909 70.4685C66.6014 70.9409 67.1951 71.4174 67.5771 72.015C67.5885 72.0327 67.6019 72.0491 67.6168 72.0639C67.4874 74.5075 65.6629 76.8051 64.3443 77.7298C64.1809 77.8444 64.1526 78.0394 64.2807 78.1655C64.3667 78.25 64.5013 78.2819 64.63 78.2592C64.6931 78.2481 64.7548 78.2239 64.8086 78.1861C66.3999 77.0701 69.2523 73.6141 68.136 70.1583C69.7864 70.7684 71.4167 71.9132 72.4262 73.3851C71.2173 73.8883 70.1613 74.465 69.2476 75.1228C69.7988 74.0708 70.1073 73.0872 70.1692 72.1805C70.1809 72.0102 70.0222 71.8744 69.8148 71.8772C69.6074 71.8805 69.4301 72.0202 69.4185 72.1905C69.3238 73.5789 68.5899 75.1817 67.2351 76.9622C67.0695 77.1566 66.9118 77.3559 66.7618 77.5608C65.205 79.4627 64.3258 81.3116 64.0327 83.5755L63.2737 79.2747C62.852 76.8852 62.1462 72.8857 63.5456 70.2845C63.6316 70.1249 63.5479 69.9475 63.3589 69.8885C63.1699 69.8294 62.947 69.9109 62.861 70.0707C62.4575 70.8208 62.2165 71.6691 62.088 72.556L61.4056 68.6893C61.3472 68.3587 61.1334 68.1203 60.9278 68.1565C60.7222 68.1927 60.6029 68.4898 60.6612 68.8204L61.3436 72.6871C60.9194 71.8976 60.4024 71.1828 59.7665 70.6158C59.631 70.4953 59.3938 70.4946 59.2362 70.6148C59.0789 70.7348 59.0609 70.9301 59.1963 71.0507C61.4018 73.0169 62.1076 77.0164 62.5293 79.4058L63.2504 83.4916C62.1985 81.4615 60.737 80.0237 58.6184 78.7671C56.3739 77.436 54.9184 76.0453 54.2922 74.6336C54.2231 74.4776 54.0081 74.4068 53.8125 74.4746C53.6167 74.5428 53.5141 74.7247 53.5833 74.8807C53.9993 75.8185 54.7441 76.7411 55.8077 77.6384C54.641 77.2761 53.3483 77.0645 51.9127 76.9991C52.3575 75.2711 53.4976 73.6382 54.8397 72.5008C54.9736 76.1297 58.8371 78.4025 60.7145 78.9074C60.7779 78.9245 60.8441 78.9262 60.9073 78.9151C61.036 78.8924 61.1516 78.8164 61.2034 78.7076C61.2807 78.5454 61.1873 78.3718 60.9946 78.3199C59.4388 77.9016 56.9379 76.3661 55.9798 74.1141C55.9888 74.095 55.9957 74.075 56.0004 74.0545C56.1548 73.3624 56.5495 72.7117 57.0555 72.0251C58.349 72.5309 59.4502 74.0736 59.7072 75.722C58.9116 75.3466 58.0958 74.2023 57.7969 73.5717C57.7235 73.4169 57.5076 73.3499 57.3124 73.4211C57.1181 73.4925 57.02 73.6757 57.0933 73.8303C57.1055 73.8561 58.3928 76.4132 60.0924 76.4607C60.1237 76.4616 60.155 76.4591 60.1855 76.4538C60.2613 76.4404 60.333 76.4085 60.39 76.3612C60.4699 76.2949 60.5129 76.2056 60.508 76.1164C60.3953 74.0956 59.0937 72.1537 57.467 71.485C57.5652 71.3592 57.6659 71.2316 57.7683 71.1019ZM67.8503 77.2816C69.0317 75.9002 70.646 74.7949 72.7565 73.9203C72.9121 74.2018 73.045 74.4937 73.1512 74.794C68.6792 76.353 66.4051 80.9287 65.7596 83.4417C65.7185 83.6013 65.8328 83.7512 66.0214 83.7853C66.2106 83.8196 66.4098 83.7263 66.4791 83.5718C67.1737 82.0245 68.7361 80.9759 70.3901 79.8656C72.5229 78.4341 74.722 76.9581 75.0223 74.3341C75.3922 74.691 75.7325 75.1119 76.0287 75.581C75.6431 76.3383 75.0439 77.109 74.2883 77.8188C74.147 77.9515 74.1557 78.1456 74.3078 78.2522C74.3943 78.3127 74.5086 78.3321 74.6172 78.313C74.6993 78.2985 74.7783 78.262 74.8391 78.2047C75.4832 77.5997 76.0231 76.951 76.4282 76.2983C76.818 77.097 77.084 77.9942 77.1722 78.93C77.0059 80.1667 74.9998 81.3018 71.2043 82.3065C71.0029 82.3598 70.8806 82.5341 70.9312 82.6958C70.9785 82.847 71.1604 82.9336 71.3485 82.9004C71.3615 82.8981 71.3745 82.8954 71.3875 82.892C74.2766 82.1274 76.1916 81.2769 77.1682 80.3183C77.1161 80.829 77.006 81.3425 76.83 81.8496C74.1428 83.8759 70.1799 83.8633 69.2285 83.8281C69.0227 83.82 68.8355 83.9521 68.8111 84.1222C68.7867 84.292 68.9341 84.4361 69.1405 84.444C72.5482 84.5704 77.0355 83.5738 79.0416 80.4317C79.193 80.8346 79.2804 81.2704 79.3083 81.7221C78.941 82.3915 77.8441 83.2466 76.3781 83.6471C76.1772 83.7019 76.057 83.8771 76.1095 84.0383C76.1582 84.188 76.3393 84.2731 76.5259 84.2402C76.5401 84.2377 76.5543 84.2346 76.5683 84.2308C77.6103 83.9462 78.5869 83.4208 79.265 82.8151C79.1269 83.8304 78.7241 84.8583 78.1038 85.7256C76.198 84.6234 72.9683 84.4033 70.0525 85.2097C68.0962 85.7502 66.5362 86.667 65.4912 87.8658C67.0544 83.2812 72.2941 80.1226 75.9682 79.2517C76.1711 79.2036 76.2999 79.0322 76.2558 78.8691C76.2118 78.7057 76.0106 78.6131 75.8085 78.6602C72.219 79.5112 66.5528 82.6098 64.8075 87.5982C64.341 83.3615 65.0933 80.6686 67.3789 77.8772C67.3815 77.874 67.3841 77.8708 67.3866 77.8675C67.548 77.6704 67.7025 77.475 67.8503 77.2816ZM51.7141 78.5707C51.711 78.2521 51.7359 77.9324 51.7858 77.6148C54.3772 77.729 56.4693 78.3411 58.1723 79.4819C58.2583 79.5397 58.3699 79.5576 58.4758 79.5389C58.5003 79.5346 58.5244 79.5284 58.5478 79.5203C61.4546 81.357 62.9917 83.6635 63.9568 87.7748C60.6143 83.664 54.2118 82.6838 50.5405 83.1118C50.3336 83.1382 50.1771 83.2923 50.1917 83.4609C50.2061 83.6293 50.3857 83.7463 50.5928 83.7221C54.3436 83.285 60.3486 84.4626 63.387 88.2368C61.9945 87.4671 60.2147 87.1387 58.1911 87.2993C55.1761 87.5383 52.2157 88.8485 50.8022 90.5354C49.9224 89.9324 49.192 89.1041 48.7148 88.1973C49.5593 88.5347 50.6568 88.6947 51.7334 88.606C51.7479 88.6048 51.7624 88.6028 51.7764 88.6004C51.963 88.5675 52.1041 88.4257 52.0988 88.2684C52.0928 88.0989 51.9198 87.9754 51.7123 87.9925C50.1977 88.1172 48.8742 87.6885 48.2999 87.1851C48.1714 86.7509 48.1043 86.3116 48.1087 85.8809C51.0696 88.1484 55.6276 87.5512 58.7862 86.2681C58.9773 86.1902 59.0666 86.0044 58.9855 85.8532C58.9043 85.7014 58.6829 85.6414 58.4926 85.7194C57.6106 86.0776 53.8911 87.4437 50.6724 86.4577C50.3333 86.0414 50.0542 85.5966 49.8304 85.1345C51.0762 85.7014 53.167 85.8463 56.1435 85.5775C56.1569 85.5763 56.1701 85.5745 56.183 85.5722C56.3712 85.539 56.5124 85.3955 56.5051 85.2373C56.4972 85.0681 56.3227 84.946 56.1152 84.9648C52.2044 85.3177 49.9308 84.9365 49.3513 83.8311C49.1139 82.9216 49.0567 81.9878 49.1496 81.1041C49.7537 81.579 50.4831 82.0041 51.2955 82.3524C51.3723 82.3855 51.459 82.3928 51.5411 82.3784C51.6497 82.3592 51.7505 82.3019 51.811 82.2155C51.9174 82.0634 51.8593 81.878 51.6809 81.8016C50.7277 81.3929 49.901 80.8734 49.2794 80.2935C49.3972 79.7515 49.5729 79.2396 49.7984 78.7779C50.9788 81.141 53.5505 81.7765 56.0447 82.3929C57.979 82.871 59.8062 83.3224 60.9886 84.539C61.1068 84.6605 61.3262 84.6798 61.4918 84.5833C61.6574 84.4868 61.7134 84.3069 61.6202 84.1709C60.1533 82.0301 56.45 78.5075 51.7141 78.5707ZM67.2943 81.3774C68.3476 79.1554 70.3052 76.4761 73.323 75.3864C73.3944 75.7026 73.4359 76.027 73.4438 76.3584C73.4443 76.3815 73.448 76.404 73.4545 76.4254C72.6306 77.5931 71.308 78.4807 69.94 79.399C69.0187 80.0173 68.0801 80.6473 67.2943 81.3774ZM51.9746 80.1411C51.8685 79.8271 51.7965 79.508 51.7554 79.1865C54.9645 79.1791 57.7209 81.0279 59.4713 82.756C58.4831 82.3387 57.3853 82.0672 56.308 81.801C54.7082 81.4056 53.1615 81.0234 51.9873 80.2076C51.9862 80.1854 51.982 80.163 51.9746 80.1411Z" fill="#585AFA" fill-opacity="0.7"/>
<mask id="mask0" mask-type="alpha" maskUnits="userSpaceOnUse" x="41" y="56" width="47" height="46">
<path fill-rule="evenodd" clip-rule="evenodd" d="M41.3092 88.6255C42.7578 75.6146 55.4985 61.7771 58.9363 56.9196C63.8294 60.3094 80.5385 68.9586 86.3537 80.6898C87.3494 82.6987 87.9632 85.2439 87.3825 87.6889C86.6704 92.5199 82.9219 96.5777 77.8137 97.4777C72.2283 98.4617 66.8756 95.3444 64.8879 90.302C64.8531 90.2368 64.8022 90.181 64.7777 90.3246C64.5527 95.666 60.5849 100.513 55.0625 101.486C49.0878 102.538 43.3787 98.8983 41.7705 93.2286C41.2478 91.7279 41.1435 90.1139 41.3092 88.6255ZM57.146 70.7939C56.5706 71.5228 56.017 72.2242 55.6448 72.954C55.5862 72.5798 55.5722 72.1908 55.6114 71.7884C55.6231 71.666 55.5459 71.5545 55.4144 71.5047C55.2828 71.4545 55.1217 71.4757 55.0044 71.558C53.2016 72.8224 51.5969 74.9573 51.1128 77.2147C51.104 77.2364 51.0979 77.2592 51.0949 77.2825C51.0937 77.2921 51.093 77.3016 51.0928 77.3109C50.9863 77.8434 50.9428 78.3821 50.9742 78.9173C50.9743 78.9233 50.9746 78.9292 50.9752 78.935C50.9829 79.0593 50.9946 79.1833 51.0106 79.3069C50.6852 78.9042 50.4199 78.4286 50.2293 77.8598C50.1899 77.7422 50.0662 77.6607 49.9157 77.6532C49.7651 77.6462 49.6173 77.7139 49.5411 77.8258C48.5128 79.334 48.0282 81.6197 48.5598 83.8327C48.5586 83.8663 48.564 83.9002 48.577 83.9331C48.5836 83.9499 48.5904 83.9666 48.5975 83.9831C48.7707 84.645 49.036 85.2989 49.4063 85.9215C48.947 85.6662 48.5097 85.3461 48.106 84.9494C48.0141 84.8591 47.8606 84.8255 47.7177 84.8644C47.5734 84.9028 47.4644 85.0059 47.4396 85.1275C47.2891 85.8631 47.3455 86.6358 47.5686 87.3885C47.5721 87.416 47.5803 87.4431 47.5931 87.4688C48.1143 89.1354 49.4486 90.6938 51.1547 91.5219C50.5366 91.5356 49.9787 91.4872 49.5297 91.3664C49.3828 91.3269 49.2142 91.3695 49.1088 91.4726C49.0035 91.5756 48.9837 91.7174 49.0594 91.8267C49.476 92.4284 50.2433 93.152 51.362 93.7232C51.3895 93.7469 51.4227 93.767 51.4611 93.7821C51.4872 93.7925 51.5134 93.8021 51.5399 93.8113C53.0707 94.5463 55.2183 94.9887 57.9842 94.5015C58.1307 94.4757 58.2791 94.4473 58.4291 94.4161C58.6334 94.3737 58.7691 94.2057 58.7321 94.0406C58.695 93.8756 58.4959 93.7761 58.2951 93.8188C56.3479 94.2231 54.7223 94.137 53.4162 93.8029C54.4983 93.5352 55.5863 92.9324 56.2482 92.4682C56.4114 92.3536 56.4399 92.1585 56.3117 92.0327C56.1836 91.9068 55.9472 91.8976 55.7838 92.0119C54.7904 92.7089 52.9597 93.5943 51.8984 93.2487C51.2085 92.9115 50.6613 92.51 50.2563 92.1171C53.2051 92.3469 57.9615 90.9492 59.2441 88.9448C59.3042 88.851 59.305 88.742 59.2465 88.6544C59.1879 88.5669 59.0776 88.5126 58.9524 88.5094C57.5143 88.4727 55.7639 88.6324 53.6841 90.091C53.5209 90.2057 53.4924 90.4006 53.6206 90.5265C53.7487 90.6526 53.9851 90.662 54.1485 90.5473C55.7201 89.4453 57.0393 89.1666 58.2252 89.1269C57.1373 90.211 54.7734 91.0682 52.6381 91.3883C52.6116 91.3733 52.5819 91.3611 52.5493 91.3523C52.1461 91.2439 51.7562 91.0865 51.3862 90.8894C52.6422 89.3654 55.4412 88.1319 58.2092 87.9122C59.4818 87.8113 61.6349 87.8603 63.3514 89.0071C62.7242 88.9526 61.9939 88.9927 61.2506 89.1697C60.1279 89.4374 58.1312 90.2507 57.3722 92.6898C57.3201 92.8573 57.4408 93.0179 57.6418 93.0487C57.6916 93.0563 57.7413 93.0552 57.7892 93.0468C57.9348 93.021 58.0609 92.9271 58.1001 92.8009C58.7252 90.792 60.2459 90.039 61.4115 89.761C62.7749 89.438 64.1173 89.6735 64.4487 89.9802C64.4847 90.0148 64.5313 90.0426 64.5866 90.0599C64.5887 90.0605 64.5907 90.0611 64.5926 90.0618C64.5991 90.0636 64.6057 90.0654 64.6124 90.067C64.6433 90.0745 64.6748 90.0784 64.7062 90.0791C64.7354 90.0797 64.7654 90.0774 64.7957 90.072C64.8377 90.0646 64.8771 90.0519 64.913 90.0348C64.9305 90.0266 64.9488 90.0162 64.9663 90.0047C64.9687 90.003 64.9712 90.0014 64.9736 89.9997C64.9775 89.997 64.9813 89.9942 64.985 89.9915C65.0326 89.9559 65.0679 89.913 65.0903 89.8672C65.2968 89.4657 66.4783 88.785 67.8694 88.6233C69.0599 88.4862 70.7465 88.6742 72.0217 90.3483C72.1018 90.4534 72.2523 90.4988 72.3981 90.4731C72.4458 90.4647 72.4931 90.4486 72.5371 90.4245C72.7155 90.3269 72.7739 90.1348 72.6677 89.9952C71.1195 87.9625 68.9647 87.8806 67.8181 88.0127C67.0593 88.1005 66.3592 88.3122 65.7883 88.5779C67.0086 86.9136 69.0152 86.1317 70.2454 85.7917C72.9212 85.0521 75.9741 85.2546 77.6764 86.2577C77.3961 86.5694 77.0836 86.8505 76.7418 87.0902C76.7143 87.1096 76.6905 87.1312 76.6707 87.1544C74.5546 87.5833 72.0399 87.5855 70.6464 86.9386C71.7747 86.5706 73.1095 86.3815 74.9635 86.8803C75.156 86.9322 75.375 86.8426 75.4524 86.6803C75.5297 86.5182 75.4363 86.3447 75.2436 86.2927C72.7899 85.6331 71.0903 86.0814 69.7516 86.6068C69.6352 86.6526 69.5501 86.7414 69.525 86.8436C69.5 86.9459 69.5381 87.0481 69.6267 87.1156C71.5178 88.561 76.4659 88.2484 79.1584 87.0253C78.9125 87.5322 78.5369 88.0957 78.0055 88.6476C77.1277 89.3375 75.1016 89.1311 73.9282 88.8153C73.7354 88.7638 73.5166 88.8531 73.4393 89.0153C73.3618 89.1773 73.4554 89.3509 73.648 89.4028C74.4293 89.6129 75.6585 89.8077 76.7674 89.6891C75.6547 90.4493 74.1567 91.0857 72.187 91.3714C71.9835 91.4004 71.8306 91.5616 71.8522 91.7292C71.8739 91.897 72.0588 92.0085 72.2655 91.9785C72.4173 91.9565 72.5659 91.9326 72.7128 91.9067C75.4775 91.4195 77.3439 90.2702 78.531 89.0569C78.5531 89.0389 78.5748 89.0205 78.5961 89.0016C78.6273 88.9742 78.6517 88.9437 78.6696 88.9118C79.525 87.9928 79.9983 87.0509 80.1836 86.3434C80.2173 86.2148 80.1503 86.0883 80.0159 86.0275C79.8818 85.9667 79.7089 85.9843 79.5841 86.0716C79.2035 86.3385 78.6959 86.5747 78.1103 86.773C79.4301 85.4118 80.1503 83.4918 80.0697 81.7475C80.0731 81.7188 80.0714 81.6904 80.0651 81.6631C80.0171 80.8797 79.8057 80.1343 79.4125 79.4947C79.3475 79.3889 79.2099 79.3292 79.0612 79.3424C78.9112 79.3552 78.7807 79.4389 78.7254 79.555C78.4819 80.0659 78.1804 80.5161 77.8362 80.9132C77.9711 80.2013 77.9966 79.4963 77.9327 78.815C77.9337 78.7971 77.9344 78.779 77.9349 78.761C77.9358 78.7255 77.9293 78.6917 77.9166 78.6606C77.6585 76.3994 76.4207 74.4174 74.9382 73.3515C74.8282 73.2724 74.6661 73.2591 74.527 73.3173C74.3883 73.3758 74.2999 73.4947 74.3031 73.6186C74.3187 74.2182 74.2323 74.7558 74.0644 75.2454C74.0371 75.1241 74.0057 75.004 73.9706 74.885C73.969 74.8787 73.967 74.8722 73.9649 74.8658C73.8112 74.3525 73.586 73.8617 73.3038 73.3979C73.3004 73.3892 73.2965 73.3806 73.2921 73.3719C73.2813 73.3509 73.2677 73.3317 73.252 73.3142C72.0244 71.3585 69.7857 69.9006 67.6589 69.3286C67.5203 69.2914 67.362 69.3265 67.2554 69.4186C67.1488 69.5104 67.1144 69.6415 67.1674 69.7525C67.3419 70.1173 67.4619 70.4876 67.535 70.8592C66.9354 70.3008 66.1751 69.8309 65.3849 69.3424C63.6104 68.2455 61.5993 67.0025 60.6336 64.3277C60.5908 64.1984 60.4436 64.11 60.2689 64.1209C60.2627 64.1212 60.2564 64.1217 60.2502 64.1225C60.2222 64.1252 60.194 64.1308 60.1659 64.139C59.9982 64.1885 59.89 64.3218 59.8942 64.458C59.9024 67.3015 58.438 69.1568 57.146 70.7939ZM57.7683 71.1019C58.8908 69.6798 60.1373 68.1004 60.5246 65.8717C61.6513 67.8337 63.3634 68.8919 64.9051 69.8447C65.0457 69.9316 65.1839 70.0171 65.3193 70.1017C64.0197 71.2858 63.4613 73.5555 64.0472 75.4928C64.0731 75.5784 64.1441 75.6476 64.2419 75.6826C64.3115 75.7076 64.3897 75.7131 64.4657 75.6997C64.4962 75.6943 64.5264 75.6859 64.5555 75.6745C66.1365 75.049 66.4708 72.2062 66.4733 72.1778C66.4893 72.0075 66.3343 71.8689 66.1274 71.8682C65.9209 71.8677 65.7397 72.0047 65.7237 72.1752C65.6587 72.87 65.2838 74.224 64.6646 74.8486C64.3419 73.2118 64.8486 71.3859 65.8909 70.4685C66.6014 70.9409 67.1951 71.4174 67.5771 72.015C67.5885 72.0327 67.6019 72.0491 67.6168 72.0639C67.4874 74.5075 65.6629 76.8051 64.3443 77.7298C64.1809 77.8444 64.1526 78.0394 64.2807 78.1655C64.3667 78.25 64.5013 78.2819 64.63 78.2592C64.6931 78.2481 64.7548 78.2239 64.8086 78.1861C66.3999 77.0701 69.2523 73.6141 68.136 70.1583C69.7864 70.7684 71.4167 71.9132 72.4262 73.3851C71.2173 73.8883 70.1613 74.465 69.2476 75.1228C69.7988 74.0708 70.1073 73.0872 70.1692 72.1805C70.1809 72.0102 70.0222 71.8744 69.8148 71.8772C69.6074 71.8805 69.4301 72.0202 69.4185 72.1905C69.3238 73.5789 68.5899 75.1817 67.2351 76.9622C67.0695 77.1566 66.9118 77.3559 66.7618 77.5608C65.205 79.4627 64.3258 81.3116 64.0327 83.5755L63.2737 79.2747C62.852 76.8852 62.1462 72.8857 63.5456 70.2845C63.6316 70.1249 63.5479 69.9475 63.3589 69.8885C63.1699 69.8294 62.947 69.9109 62.861 70.0707C62.4575 70.8208 62.2165 71.6691 62.088 72.556L61.4056 68.6893C61.3472 68.3587 61.1334 68.1203 60.9278 68.1565C60.7222 68.1927 60.6029 68.4898 60.6612 68.8204L61.3436 72.6871C60.9194 71.8976 60.4024 71.1828 59.7665 70.6158C59.631 70.4953 59.3938 70.4946 59.2362 70.6148C59.0789 70.7348 59.0609 70.9301 59.1963 71.0507C61.4018 73.0169 62.1076 77.0164 62.5293 79.4058L63.2504 83.4916C62.1985 81.4615 60.737 80.0237 58.6184 78.7671C56.3739 77.436 54.9184 76.0453 54.2922 74.6336C54.2231 74.4776 54.0081 74.4068 53.8125 74.4746C53.6167 74.5428 53.5141 74.7247 53.5833 74.8807C53.9993 75.8185 54.7441 76.7411 55.8077 77.6384C54.641 77.2761 53.3483 77.0645 51.9127 76.9991C52.3575 75.2711 53.4976 73.6382 54.8397 72.5008C54.9736 76.1297 58.8371 78.4025 60.7145 78.9074C60.7779 78.9245 60.8441 78.9262 60.9073 78.9151C61.036 78.8924 61.1516 78.8164 61.2034 78.7076C61.2807 78.5454 61.1873 78.3718 60.9946 78.3199C59.4388 77.9016 56.9379 76.3661 55.9798 74.1141C55.9888 74.095 55.9957 74.075 56.0004 74.0545C56.1548 73.3624 56.5495 72.7117 57.0555 72.0251C58.349 72.5309 59.4502 74.0736 59.7072 75.722C58.9116 75.3466 58.0958 74.2023 57.7969 73.5717C57.7235 73.4169 57.5076 73.3499 57.3124 73.4211C57.1181 73.4925 57.02 73.6757 57.0933 73.8303C57.1055 73.8561 58.3928 76.4132 60.0924 76.4607C60.1237 76.4616 60.155 76.4591 60.1855 76.4538C60.2613 76.4404 60.333 76.4085 60.39 76.3612C60.4699 76.2949 60.5129 76.2056 60.508 76.1164C60.3953 74.0956 59.0937 72.1537 57.467 71.485C57.5652 71.3592 57.6659 71.2316 57.7683 71.1019ZM67.8503 77.2816C69.0317 75.9002 70.646 74.7949 72.7565 73.9203C72.9121 74.2018 73.045 74.4937 73.1512 74.794C68.6792 76.353 66.4051 80.9287 65.7596 83.4417C65.7185 83.6013 65.8328 83.7512 66.0214 83.7853C66.2106 83.8196 66.4098 83.7263 66.4791 83.5718C67.1737 82.0245 68.7361 80.9759 70.3901 79.8656C72.5229 78.4341 74.722 76.9581 75.0223 74.3341C75.3922 74.691 75.7325 75.1119 76.0287 75.581C75.6431 76.3383 75.0439 77.109 74.2883 77.8188C74.147 77.9515 74.1557 78.1456 74.3078 78.2522C74.3943 78.3127 74.5086 78.3321 74.6172 78.313C74.6993 78.2985 74.7783 78.262 74.8391 78.2047C75.4832 77.5997 76.0231 76.951 76.4282 76.2983C76.818 77.097 77.084 77.9942 77.1722 78.93C77.0059 80.1667 74.9998 81.3018 71.2043 82.3065C71.0029 82.3598 70.8806 82.5341 70.9312 82.6958C70.9785 82.847 71.1604 82.9336 71.3485 82.9004C71.3615 82.8981 71.3745 82.8954 71.3875 82.892C74.2766 82.1274 76.1916 81.2769 77.1682 80.3183C77.1161 80.829 77.006 81.3425 76.83 81.8496C74.1428 83.8759 70.1799 83.8633 69.2285 83.8281C69.0227 83.82 68.8355 83.9521 68.8111 84.1222C68.7867 84.292 68.9341 84.4361 69.1405 84.444C72.5482 84.5704 77.0355 83.5738 79.0416 80.4317C79.193 80.8346 79.2804 81.2704 79.3083 81.7221C78.941 82.3915 77.8441 83.2466 76.3781 83.6471C76.1772 83.7019 76.057 83.8771 76.1095 84.0383C76.1582 84.188 76.3393 84.2731 76.5259 84.2402C76.5401 84.2377 76.5543 84.2346 76.5683 84.2308C77.6103 83.9462 78.5869 83.4208 79.265 82.8151C79.1269 83.8304 78.7241 84.8583 78.1038 85.7256C76.198 84.6234 72.9683 84.4033 70.0525 85.2097C68.0962 85.7502 66.5362 86.667 65.4912 87.8658C67.0544 83.2812 72.2941 80.1226 75.9682 79.2517C76.1711 79.2036 76.2999 79.0322 76.2558 78.8691C76.2118 78.7057 76.0106 78.6131 75.8085 78.6602C72.219 79.5112 66.5528 82.6098 64.8075 87.5982C64.341 83.3615 65.0933 80.6686 67.3789 77.8772C67.3815 77.874 67.3841 77.8708 67.3866 77.8675C67.548 77.6704 67.7025 77.475 67.8503 77.2816ZM51.7141 78.5707C51.711 78.2521 51.7359 77.9324 51.7858 77.6148C54.3772 77.729 56.4693 78.3411 58.1723 79.4819C58.2583 79.5397 58.3699 79.5576 58.4758 79.5389C58.5003 79.5346 58.5244 79.5284 58.5478 79.5203C61.4546 81.357 62.9917 83.6635 63.9568 87.7748C60.6143 83.664 54.2118 82.6838 50.5405 83.1118C50.3336 83.1382 50.1771 83.2923 50.1917 83.4609C50.2061 83.6293 50.3857 83.7463 50.5928 83.7221C54.3436 83.285 60.3486 84.4626 63.387 88.2368C61.9945 87.4671 60.2147 87.1387 58.1911 87.2993C55.1761 87.5383 52.2157 88.8485 50.8022 90.5354C49.9224 89.9324 49.192 89.1041 48.7148 88.1973C49.5593 88.5347 50.6568 88.6947 51.7334 88.606C51.7479 88.6048 51.7624 88.6028 51.7764 88.6004C51.963 88.5675 52.1041 88.4257 52.0988 88.2684C52.0928 88.0989 51.9198 87.9754 51.7123 87.9925C50.1977 88.1172 48.8742 87.6885 48.2999 87.1851C48.1714 86.7509 48.1043 86.3116 48.1087 85.8809C51.0696 88.1484 55.6276 87.5512 58.7862 86.2681C58.9773 86.1902 59.0666 86.0044 58.9855 85.8532C58.9043 85.7014 58.6829 85.6414 58.4926 85.7194C57.6106 86.0776 53.8911 87.4437 50.6724 86.4577C50.3333 86.0414 50.0542 85.5966 49.8304 85.1345C51.0762 85.7014 53.167 85.8463 56.1435 85.5775C56.1569 85.5763 56.1701 85.5745 56.183 85.5722C56.3712 85.539 56.5124 85.3955 56.5051 85.2373C56.4972 85.0681 56.3227 84.946 56.1152 84.9648C52.2044 85.3177 49.9308 84.9365 49.3513 83.8311C49.1139 82.9216 49.0567 81.9878 49.1496 81.1041C49.7537 81.579 50.4831 82.0041 51.2955 82.3524C51.3723 82.3855 51.459 82.3928 51.5411 82.3784C51.6497 82.3592 51.7505 82.3019 51.811 82.2155C51.9174 82.0634 51.8593 81.878 51.6809 81.8016C50.7277 81.3929 49.901 80.8734 49.2794 80.2935C49.3972 79.7515 49.5729 79.2396 49.7984 78.7779C50.9788 81.141 53.5505 81.7765 56.0447 82.3929C57.979 82.871 59.8062 83.3224 60.9886 84.539C61.1068 84.6605 61.3262 84.6798 61.4918 84.5833C61.6574 84.4868 61.7134 84.3069 61.6202 84.1709C60.1533 82.0301 56.45 78.5075 51.7141 78.5707ZM67.2943 81.3774C68.3476 79.1554 70.3052 76.4761 73.323 75.3864C73.3944 75.7026 73.4359 76.027 73.4438 76.3584C73.4443 76.3815 73.448 76.404 73.4545 76.4254C72.6306 77.5931 71.308 78.4807 69.94 79.399C69.0187 80.0173 68.0801 80.6473 67.2943 81.3774ZM51.9746 80.1411C51.8685 79.8271 51.7965 79.508 51.7554 79.1865C54.9645 79.1791 57.7209 81.0279 59.4713 82.756C58.4831 82.3387 57.3853 82.0672 56.308 81.801C54.7082 81.4056 53.1615 81.0234 51.9873 80.2076C51.9862 80.1854 51.982 80.163 51.9746 80.1411Z" fill="white"/>
</mask>
<g mask="url(#mask0)">
</g>
<rect x="-0.685467" y="-1.23661" width="102.088" height="146.021" rx="9" transform="matrix(0.961325 0.275417 -0.275858 0.961198 96.4151 15.1579)" fill="#F9F9F9" stroke="#D8D8D8" stroke-width="2"/>
<path fill-rule="evenodd" clip-rule="evenodd" d="M121.593 110.917C119.096 115.528 113.574 118.132 108.278 116.775L107.903 118.08L129.549 124.281L129.923 122.978C124.616 121.332 121.282 116.264 121.702 110.945C121.7 110.903 121.692 110.861 121.671 110.855C121.654 110.85 121.629 110.866 121.593 110.917Z" fill="#585AFA" fill-opacity="0.7"/>
<path fill-rule="evenodd" clip-rule="evenodd" d="M102.193 95.8068C109.203 84.7472 126.726 77.8905 131.947 75.0303C134.858 80.2201 146.081 95.3125 146.16 108.403C146.174 110.645 145.609 113.202 144.014 115.145C141.255 119.175 136.105 121.18 131.119 119.752C125.667 118.19 122.224 113.044 122.65 107.641C122.647 107.567 122.626 107.495 122.541 107.613C119.995 112.315 114.302 114.934 108.912 113.389C103.08 111.719 99.5456 105.946 100.588 100.146C100.776 98.5684 101.391 97.072 102.193 95.8068ZM124.251 86.7166C123.414 87.1197 122.608 87.5076 121.954 88.0005C122.065 87.6386 122.223 87.2828 122.435 86.9383C122.499 86.8334 122.479 86.6994 122.382 86.597C122.286 86.4943 122.132 86.4428 121.99 86.4654C119.815 86.8122 117.436 88.0282 116.011 89.8451C115.993 89.8607 115.978 89.8786 115.965 89.8982C115.96 89.9063 115.955 89.9145 115.951 89.9228C115.621 90.3547 115.346 90.8199 115.139 91.3147C115.137 91.3201 115.134 91.3256 115.132 91.331C115.085 91.4461 115.041 91.5626 115.001 91.6808C114.885 91.1763 114.855 90.6326 114.934 90.0379C114.95 89.915 114.874 89.7875 114.742 89.7149C114.61 89.6427 114.448 89.6388 114.33 89.706C112.744 90.6111 111.306 92.4532 110.813 94.6751C110.797 94.7047 110.787 94.7376 110.784 94.7729C110.783 94.7909 110.781 94.8088 110.78 94.8268C110.646 95.4976 110.597 96.2015 110.657 96.9233C110.356 96.4927 110.103 96.0134 109.915 95.48C109.872 95.3586 109.748 95.2612 109.603 95.2335C109.456 95.2049 109.313 95.2498 109.238 95.3482C108.78 95.9434 108.491 96.6627 108.362 97.4369C108.353 97.4631 108.348 97.4911 108.348 97.5198C108.086 99.2461 108.601 101.231 109.771 102.723C109.21 102.464 108.729 102.176 108.379 101.871C108.264 101.771 108.094 101.736 107.954 101.782C107.814 101.829 107.734 101.947 107.754 102.079C107.865 102.802 108.237 103.789 108.992 104.792C109.006 104.825 109.027 104.858 109.055 104.888C109.074 104.909 109.093 104.929 109.113 104.949C110.166 106.28 111.902 107.618 114.602 108.392C114.745 108.433 114.891 108.472 115.039 108.51C115.242 108.561 115.437 108.47 115.477 108.305C115.516 108.141 115.38 107.964 115.181 107.915C113.254 107.425 111.83 106.636 110.803 105.763C111.893 105.997 113.135 105.931 113.934 105.804C114.131 105.773 114.242 105.61 114.182 105.44C114.122 105.271 113.914 105.159 113.717 105.191C112.518 105.382 110.484 105.376 109.682 104.6C109.21 103.995 108.894 103.395 108.703 102.864C111.252 104.362 116.14 105.189 118.173 103.949C118.268 103.892 118.316 103.794 118.302 103.689C118.288 103.585 118.213 103.488 118.101 103.43C116.825 102.767 115.182 102.144 112.672 102.544C112.475 102.576 112.364 102.739 112.424 102.908C112.484 103.077 112.692 103.189 112.89 103.158C114.786 102.856 116.094 103.183 117.177 103.667C115.723 104.165 113.223 103.9 111.163 103.252C111.146 103.227 111.124 103.203 111.099 103.181C110.784 102.907 110.503 102.595 110.257 102.256C112.054 101.436 115.111 101.553 117.696 102.568C118.884 103.035 120.797 104.022 121.837 105.804C121.297 105.481 120.623 105.197 119.877 105.03C118.751 104.779 116.599 104.636 114.847 106.496C114.727 106.623 114.765 106.821 114.932 106.936C114.973 106.965 115.018 106.986 115.065 106.999C115.207 107.04 115.362 107.01 115.452 106.914C116.896 105.382 118.593 105.372 119.762 105.632C121.13 105.939 122.233 106.739 122.396 107.16C122.413 107.207 122.443 107.252 122.485 107.292C122.487 107.293 122.488 107.295 122.49 107.296C122.495 107.301 122.5 107.305 122.505 107.309C122.53 107.33 122.556 107.347 122.584 107.361C122.61 107.375 122.638 107.386 122.668 107.394C122.709 107.406 122.75 107.412 122.79 107.412C122.809 107.412 122.83 107.411 122.851 107.408C122.854 107.408 122.856 107.408 122.859 107.407C122.864 107.406 122.869 107.406 122.873 107.405C122.932 107.394 122.982 107.37 123.022 107.339C123.384 107.069 124.745 106.974 126.066 107.438C127.196 107.836 128.63 108.744 129.041 110.807C129.067 110.937 129.182 111.044 129.325 111.084C129.371 111.098 129.421 111.104 129.471 111.102C129.674 111.092 129.811 110.945 129.777 110.773C129.277 108.268 127.376 107.25 126.288 106.867C125.567 106.614 124.845 106.497 124.215 106.486C126.042 105.525 128.189 105.701 129.444 105.934C132.173 106.441 134.828 107.96 135.918 109.608C135.53 109.765 135.125 109.881 134.713 109.946C134.68 109.952 134.649 109.961 134.621 109.973C132.531 109.432 130.27 108.332 129.301 107.14C130.477 107.304 131.759 107.719 133.207 108.979C133.357 109.11 133.593 109.125 133.734 109.013C133.875 108.901 133.867 108.705 133.716 108.573C131.8 106.906 130.076 106.564 128.642 106.45C128.518 106.44 128.402 106.483 128.335 106.564C128.268 106.645 128.257 106.753 128.307 106.853C129.373 108.98 133.957 110.867 136.914 110.946C136.47 111.294 135.885 111.636 135.166 111.9C134.074 112.135 132.343 111.062 131.427 110.265C131.277 110.134 131.041 110.118 130.9 110.23C130.76 110.342 130.767 110.539 130.918 110.67C131.528 111.201 132.547 111.914 133.596 112.294C132.262 112.489 130.637 112.405 128.741 111.799C128.545 111.736 128.337 111.814 128.283 111.974C128.229 112.135 128.346 112.316 128.545 112.379C128.691 112.426 128.835 112.47 128.979 112.511C131.677 113.284 133.859 113.068 135.458 112.498C135.486 112.491 135.514 112.484 135.541 112.477C135.581 112.466 135.616 112.449 135.647 112.428C136.819 111.977 137.657 111.337 138.134 110.783C138.221 110.682 138.216 110.539 138.122 110.425C138.028 110.312 137.865 110.252 137.715 110.276C137.256 110.349 136.696 110.339 136.082 110.261C137.866 109.615 139.355 108.205 140.048 106.602C140.064 106.578 140.075 106.551 140.081 106.524C140.382 105.799 140.519 105.036 140.446 104.289C140.434 104.166 140.337 104.052 140.197 103.999C140.057 103.944 139.903 103.962 139.802 104.043C139.359 104.395 138.89 104.668 138.407 104.874C138.84 104.293 139.173 103.671 139.414 103.03C139.423 103.015 139.432 102.999 139.44 102.983C139.456 102.951 139.465 102.918 139.468 102.884C140.228 100.739 139.985 98.4155 139.12 96.8082C139.056 96.6889 138.916 96.6059 138.765 96.5974C138.615 96.5891 138.483 96.6573 138.432 96.7701C138.183 97.3158 137.869 97.7612 137.504 98.1277C137.532 98.0067 137.557 97.8851 137.577 97.7627C137.579 97.7563 137.58 97.7496 137.581 97.7429C137.668 97.2143 137.681 96.6744 137.631 96.134C137.631 96.1247 137.632 96.1152 137.631 96.1056C137.631 96.0819 137.627 96.0587 137.621 96.0361C137.375 93.7406 136.003 91.4498 134.342 90.0042C134.234 89.91 134.076 89.8722 133.94 89.9083C133.804 89.9441 133.716 90.0469 133.715 90.1699C133.711 90.5742 133.657 90.9596 133.559 91.3256C133.266 90.561 132.788 89.8057 132.292 89.0206C131.179 87.2575 129.917 85.2594 130.222 82.4324C130.24 82.2974 130.147 82.1535 129.985 82.0867C129.979 82.0843 129.974 82.0819 129.968 82.08C129.941 82.0702 129.913 82.0628 129.885 82.0579C129.712 82.0289 129.556 82.1014 129.5 82.2256C128.26 84.7849 126.13 85.811 124.251 86.7166ZM124.675 87.2657C126.308 86.4792 128.121 85.6056 129.447 83.7721C129.599 86.029 130.674 87.73 131.641 89.2615C131.729 89.4012 131.816 89.5386 131.901 89.674C130.213 90.1691 128.715 91.9644 128.392 93.9623C128.378 94.0506 128.411 94.1439 128.484 94.2182C128.535 94.2711 128.603 94.3103 128.677 94.3316C128.707 94.3401 128.738 94.3458 128.769 94.3482C130.465 94.4785 132.012 92.0698 132.027 92.0454C132.116 91.8994 132.038 91.7069 131.852 91.6156C131.666 91.5248 131.444 91.5685 131.354 91.7147C130.991 92.3107 130.06 93.3636 129.229 93.6537C129.658 92.0412 130.914 90.6221 132.253 90.254C132.685 90.9898 133.009 91.6781 133.09 92.3825C133.093 92.4034 133.098 92.424 133.105 92.4439C131.916 94.5835 129.268 95.8494 127.677 96.103C127.48 96.1345 127.369 96.2974 127.429 96.4668C127.469 96.5804 127.576 96.668 127.702 96.704C127.764 96.7217 127.83 96.7269 127.895 96.7165C129.814 96.4105 133.895 94.5535 134.407 90.9586C135.623 92.2298 136.586 93.9728 136.848 95.7379C135.54 95.6606 134.338 95.7165 133.228 95.9074C134.185 95.2034 134.894 94.4544 135.348 93.6666C135.433 93.5187 135.35 93.3271 135.162 93.2388C134.974 93.1509 134.754 93.1989 134.668 93.3468C133.974 94.5532 132.611 95.6724 130.613 96.6793C130.378 96.7814 130.149 96.8916 129.924 97.01C127.691 98.0375 126.089 99.3142 124.833 101.221L126.037 97.0227C126.707 94.6903 127.827 90.7864 130.226 89.0614C130.374 88.9556 130.376 88.7596 130.232 88.6237C130.088 88.4878 129.852 88.4634 129.705 88.5694C129.013 89.0668 128.424 89.7237 127.92 90.4646L129.003 86.6904C129.095 86.3677 129.008 86.0597 128.807 86.0022C128.606 85.9447 128.369 86.1595 128.276 86.4822L127.193 90.2565C127.158 89.361 127.007 88.4921 126.684 87.704C126.615 87.5363 126.402 87.4319 126.208 87.4708C126.014 87.5098 125.912 87.6775 125.981 87.8452C127.101 90.5783 125.98 94.4822 125.311 96.8145L124.166 100.803C124.112 98.5172 123.429 96.5848 122.076 94.5275C120.643 92.348 119.945 90.4606 120.001 88.9174C120.008 88.747 119.845 88.5892 119.64 88.5645C119.434 88.54 119.262 88.6585 119.256 88.829C119.218 89.8542 119.483 91.0096 120.045 92.2819C119.155 91.4453 118.086 90.689 116.825 90.0013C117.983 88.6431 119.724 87.6748 121.429 87.2403C119.957 90.5605 122.432 94.2956 123.898 95.5716C123.948 95.6148 124.007 95.6453 124.068 95.663C124.194 95.699 124.331 95.6813 124.425 95.6062C124.566 95.4943 124.558 95.2973 124.408 95.1663C123.193 94.1089 121.619 91.6334 121.746 89.1897C121.762 89.1765 121.777 89.1616 121.791 89.1451C122.233 88.5907 122.873 88.1788 123.629 87.7832C124.57 88.8044 124.883 90.6733 124.391 92.2674C123.84 91.5816 123.609 90.1958 123.617 89.498C123.619 89.3268 123.454 89.172 123.248 89.1505C123.042 89.1296 122.873 89.2513 122.871 89.4223C122.871 89.4508 122.906 92.313 124.413 93.1001C124.44 93.1146 124.47 93.1261 124.499 93.1346C124.573 93.1558 124.652 93.1585 124.724 93.141C124.825 93.1164 124.903 93.055 124.937 92.9726C125.723 91.107 125.405 88.7915 124.236 87.478C124.38 87.408 124.526 87.3374 124.675 87.2657ZM131.025 97.2355C132.693 96.5114 134.629 96.225 136.909 96.3633C136.926 96.6845 136.917 97.005 136.881 97.3215C132.177 96.764 128.126 99.8806 126.443 101.856C126.336 101.982 126.373 102.167 126.528 102.28C126.683 102.394 126.903 102.397 127.033 102.289C128.336 101.202 130.2 100.944 132.174 100.67C134.719 100.318 137.343 99.9546 138.764 97.7277C138.94 98.2104 139.061 98.7378 139.122 99.2891C138.443 99.8009 137.566 100.231 136.576 100.538C136.391 100.596 136.313 100.774 136.403 100.936C136.454 101.029 136.549 101.096 136.655 101.126C136.735 101.149 136.822 101.151 136.902 101.126C137.746 100.865 138.516 100.518 139.166 100.109C139.166 100.997 139.012 101.92 138.68 102.8C137.988 103.839 135.687 103.98 131.835 103.221C131.63 103.181 131.444 103.284 131.419 103.451C131.395 103.608 131.52 103.765 131.704 103.818C131.717 103.822 131.729 103.825 131.743 103.827C134.675 104.406 136.769 104.48 138.068 104.046C137.797 104.482 137.472 104.896 137.092 105.274C133.787 105.919 130.231 104.171 129.392 103.723C129.21 103.626 128.984 103.662 128.887 103.805C128.791 103.947 128.86 104.141 129.042 104.238C132.05 105.844 136.52 106.914 139.702 104.969C139.661 105.397 139.548 105.827 139.375 106.245C138.751 106.686 137.39 106.974 135.897 106.692C135.692 106.653 135.507 106.758 135.484 106.926C135.462 107.082 135.587 107.238 135.77 107.29C135.783 107.294 135.797 107.297 135.812 107.3C136.873 107.5 137.981 107.456 138.857 107.209C138.287 108.061 137.474 108.808 136.536 109.316C135.307 107.491 132.5 105.878 129.526 105.326C127.53 104.955 125.726 105.096 124.261 105.715C127.677 102.279 133.773 101.735 137.457 102.562C137.66 102.607 137.851 102.51 137.883 102.344C137.915 102.178 137.775 102.006 137.573 101.96C133.973 101.153 127.521 101.456 123.764 105.175C125.203 101.163 127.061 99.0722 130.34 97.5644C130.344 97.5627 130.348 97.5609 130.351 97.5591C130.583 97.4527 130.807 97.3447 131.025 97.2355ZM115.956 91.3273C116.093 91.0396 116.256 90.7632 116.44 90.4995C118.719 91.7372 120.331 93.2037 121.361 94.975C121.413 95.0646 121.505 95.1295 121.609 95.1591C121.633 95.1659 121.657 95.1709 121.682 95.1739C123.488 98.0979 123.858 100.844 122.921 104.962C121.721 99.8034 116.396 96.1181 112.909 94.8948C112.711 94.828 112.503 94.8979 112.442 95.0558C112.381 95.2135 112.491 95.3973 112.688 95.4663C116.251 96.7162 121.132 100.405 122.207 105.128C121.293 103.826 119.837 102.751 117.948 102.009C115.133 100.904 111.898 100.785 109.887 101.682C109.361 100.754 109.068 99.6901 109.037 98.666C109.648 99.3391 110.564 99.9636 111.57 100.356C111.584 100.361 111.598 100.365 111.612 100.369C111.794 100.421 111.983 100.356 112.047 100.212C112.116 100.057 112.015 99.8704 111.821 99.7949C110.405 99.2435 109.403 98.2785 109.108 97.5745C109.183 97.128 109.315 96.7037 109.508 96.3186C111.175 99.6535 115.533 101.113 118.935 101.343C119.141 101.357 119.303 101.229 119.296 101.058C119.29 100.886 119.117 100.735 118.912 100.722C117.962 100.657 114.02 100.256 111.559 97.9599C111.437 97.4372 111.382 96.9152 111.383 96.4018C112.254 97.457 114.07 98.503 116.863 99.5651C116.875 99.5698 116.888 99.574 116.901 99.5776C117.084 99.6302 117.274 99.5631 117.337 99.4176C117.404 99.2621 117.301 99.076 117.106 99.002C113.437 97.6063 111.56 96.2678 111.524 95.0205C111.71 94.099 112.068 93.2347 112.54 92.4811C112.874 93.1725 113.343 93.8741 113.921 94.543C113.975 94.6064 114.05 94.6509 114.13 94.6739C114.236 94.7042 114.352 94.6969 114.444 94.6457C114.606 94.5556 114.635 94.3635 114.509 94.2167C113.831 93.4318 113.316 92.6028 113.012 91.8094C113.356 91.3738 113.738 90.9907 114.143 90.6745C114.167 93.3155 116.2 95.013 118.171 96.6594C119.7 97.9364 121.144 99.1424 121.673 100.754C121.726 100.915 121.915 101.028 122.106 101.014C122.297 101 122.427 100.863 122.402 100.7C122.023 98.1329 120.24 93.3448 115.956 91.3273ZM128.728 100.674C130.65 99.1385 133.585 97.5878 136.775 97.9301C136.701 98.2455 136.596 98.5553 136.457 98.8566C136.448 98.8776 136.441 98.8994 136.437 98.9215C135.185 99.6101 133.606 99.8287 131.974 100.055C130.875 100.207 129.755 100.362 128.728 100.674ZM115.501 92.8526C115.544 92.5238 115.619 92.2055 115.723 91.8985C118.611 93.2974 120.277 96.1664 121.092 98.4863C120.387 97.6784 119.519 96.9536 118.668 96.2425C117.404 95.1863 116.181 94.1654 115.484 92.9179C115.492 92.8975 115.498 92.8755 115.501 92.8526Z" fill="#585AFA" fill-opacity="0.7"/>
<mask id="mask1" mask-type="alpha" maskUnits="userSpaceOnUse" x="100" y="75" width="47" height="46">
<path fill-rule="evenodd" clip-rule="evenodd" d="M102.193 95.8068C109.203 84.7472 126.726 77.8905 131.947 75.0303C134.858 80.2201 146.081 95.3125 146.16 108.403C146.174 110.645 145.609 113.202 144.014 115.145C141.255 119.175 136.105 121.18 131.119 119.752C125.667 118.19 122.224 113.044 122.65 107.641C122.647 107.567 122.626 107.495 122.541 107.613C119.995 112.315 114.302 114.934 108.912 113.389C103.08 111.719 99.5456 105.946 100.588 100.146C100.776 98.5684 101.391 97.072 102.193 95.8068ZM124.251 86.7166C123.414 87.1197 122.608 87.5076 121.954 88.0005C122.065 87.6386 122.223 87.2828 122.435 86.9383C122.499 86.8334 122.479 86.6994 122.382 86.597C122.286 86.4943 122.132 86.4428 121.99 86.4654C119.815 86.8122 117.436 88.0282 116.011 89.8451C115.993 89.8607 115.978 89.8786 115.965 89.8982C115.96 89.9063 115.955 89.9145 115.951 89.9228C115.621 90.3547 115.346 90.8199 115.139 91.3147C115.137 91.3201 115.134 91.3256 115.132 91.331C115.085 91.4461 115.041 91.5626 115.001 91.6808C114.885 91.1763 114.855 90.6326 114.934 90.0379C114.95 89.915 114.874 89.7875 114.742 89.7149C114.61 89.6427 114.448 89.6388 114.33 89.706C112.744 90.6111 111.306 92.4532 110.813 94.6751C110.797 94.7047 110.787 94.7376 110.784 94.7729C110.783 94.7909 110.781 94.8088 110.78 94.8268C110.646 95.4976 110.597 96.2015 110.657 96.9233C110.356 96.4927 110.103 96.0134 109.915 95.48C109.872 95.3586 109.748 95.2612 109.603 95.2335C109.456 95.2049 109.313 95.2498 109.238 95.3482C108.78 95.9434 108.491 96.6627 108.362 97.4369C108.353 97.4631 108.348 97.4911 108.348 97.5198C108.086 99.2461 108.601 101.231 109.771 102.723C109.21 102.464 108.729 102.176 108.379 101.871C108.264 101.771 108.094 101.736 107.954 101.782C107.814 101.829 107.734 101.947 107.754 102.079C107.865 102.802 108.237 103.789 108.992 104.792C109.006 104.825 109.027 104.858 109.055 104.888C109.074 104.909 109.093 104.929 109.113 104.949C110.166 106.28 111.902 107.618 114.602 108.392C114.745 108.433 114.891 108.472 115.039 108.51C115.242 108.561 115.437 108.47 115.477 108.305C115.516 108.141 115.38 107.964 115.181 107.915C113.254 107.425 111.83 106.636 110.803 105.763C111.893 105.997 113.135 105.931 113.934 105.804C114.131 105.773 114.242 105.61 114.182 105.44C114.122 105.271 113.914 105.159 113.717 105.191C112.518 105.382 110.484 105.376 109.682 104.6C109.21 103.995 108.894 103.395 108.703 102.864C111.252 104.362 116.14 105.189 118.173 103.949C118.268 103.892 118.316 103.794 118.302 103.689C118.288 103.585 118.213 103.488 118.101 103.43C116.825 102.767 115.182 102.144 112.672 102.544C112.475 102.576 112.364 102.739 112.424 102.908C112.484 103.077 112.692 103.189 112.89 103.158C114.786 102.856 116.094 103.183 117.177 103.667C115.723 104.165 113.223 103.9 111.163 103.252C111.146 103.227 111.124 103.203 111.099 103.181C110.784 102.907 110.503 102.595 110.257 102.256C112.054 101.436 115.111 101.553 117.696 102.568C118.884 103.035 120.797 104.022 121.837 105.804C121.297 105.481 120.623 105.197 119.877 105.03C118.751 104.779 116.599 104.636 114.847 106.496C114.727 106.623 114.765 106.821 114.932 106.936C114.973 106.965 115.018 106.986 115.065 106.999C115.207 107.04 115.362 107.01 115.452 106.914C116.896 105.382 118.593 105.372 119.762 105.632C121.13 105.939 122.233 106.739 122.396 107.16C122.413 107.207 122.443 107.252 122.485 107.292C122.487 107.293 122.488 107.295 122.49 107.296C122.495 107.301 122.5 107.305 122.505 107.309C122.53 107.33 122.556 107.347 122.584 107.361C122.61 107.375 122.638 107.386 122.668 107.394C122.709 107.406 122.75 107.412 122.79 107.412C122.809 107.412 122.83 107.411 122.851 107.408C122.854 107.408 122.856 107.408 122.859 107.407C122.864 107.406 122.869 107.406 122.873 107.405C122.932 107.394 122.982 107.37 123.022 107.339C123.384 107.069 124.745 106.974 126.066 107.438C127.196 107.836 128.63 108.744 129.041 110.807C129.067 110.937 129.182 111.044 129.325 111.084C129.371 111.098 129.421 111.104 129.471 111.102C129.674 111.092 129.811 110.945 129.777 110.773C129.277 108.268 127.376 107.25 126.288 106.867C125.567 106.614 124.845 106.497 124.215 106.486C126.042 105.525 128.189 105.701 129.444 105.934C132.173 106.441 134.828 107.96 135.918 109.608C135.53 109.765 135.125 109.881 134.713 109.946C134.68 109.952 134.649 109.961 134.621 109.973C132.531 109.432 130.27 108.332 129.301 107.14C130.477 107.304 131.759 107.719 133.207 108.979C133.357 109.11 133.593 109.125 133.734 109.013C133.875 108.901 133.867 108.705 133.716 108.573C131.8 106.906 130.076 106.564 128.642 106.45C128.518 106.44 128.402 106.483 128.335 106.564C128.268 106.645 128.257 106.753 128.307 106.853C129.373 108.98 133.957 110.867 136.914 110.946C136.47 111.294 135.885 111.636 135.166 111.9C134.074 112.135 132.343 111.062 131.427 110.265C131.277 110.134 131.041 110.118 130.9 110.23C130.76 110.342 130.767 110.539 130.918 110.67C131.528 111.201 132.547 111.914 133.596 112.294C132.262 112.489 130.637 112.405 128.741 111.799C128.545 111.736 128.337 111.814 128.283 111.974C128.229 112.135 128.346 112.316 128.545 112.379C128.691 112.426 128.835 112.47 128.979 112.511C131.677 113.284 133.859 113.068 135.458 112.498C135.486 112.491 135.514 112.484 135.541 112.477C135.581 112.466 135.616 112.449 135.647 112.428C136.819 111.977 137.657 111.337 138.134 110.783C138.221 110.682 138.216 110.539 138.122 110.425C138.028 110.312 137.865 110.252 137.715 110.276C137.256 110.349 136.696 110.339 136.082 110.261C137.866 109.615 139.355 108.205 140.048 106.602C140.064 106.578 140.075 106.551 140.081 106.524C140.382 105.799 140.519 105.036 140.446 104.289C140.434 104.166 140.337 104.052 140.197 103.999C140.057 103.944 139.903 103.962 139.802 104.043C139.359 104.395 138.89 104.668 138.407 104.874C138.84 104.293 139.173 103.671 139.414 103.03C139.423 103.015 139.432 102.999 139.44 102.983C139.456 102.951 139.465 102.918 139.468 102.884C140.228 100.739 139.985 98.4155 139.12 96.8082C139.056 96.6889 138.916 96.6059 138.765 96.5974C138.615 96.5891 138.483 96.6573 138.432 96.7701C138.183 97.3158 137.869 97.7612 137.504 98.1277C137.532 98.0067 137.557 97.8851 137.577 97.7627C137.579 97.7563 137.58 97.7496 137.581 97.7429C137.668 97.2143 137.681 96.6744 137.631 96.134C137.631 96.1247 137.632 96.1152 137.631 96.1056C137.631 96.0819 137.627 96.0587 137.621 96.0361C137.375 93.7406 136.003 91.4498 134.342 90.0042C134.234 89.91 134.076 89.8722 133.94 89.9083C133.804 89.9441 133.716 90.0469 133.715 90.1699C133.711 90.5742 133.657 90.9596 133.559 91.3256C133.266 90.561 132.788 89.8057 132.292 89.0206C131.179 87.2575 129.917 85.2594 130.222 82.4324C130.24 82.2974 130.147 82.1535 129.985 82.0867C129.979 82.0843 129.974 82.0819 129.968 82.08C129.941 82.0702 129.913 82.0628 129.885 82.0579C129.712 82.0289 129.556 82.1014 129.5 82.2256C128.26 84.7849 126.13 85.811 124.251 86.7166ZM124.675 87.2657C126.308 86.4792 128.121 85.6056 129.447 83.7721C129.599 86.029 130.674 87.73 131.641 89.2615C131.729 89.4012 131.816 89.5386 131.901 89.674C130.213 90.1691 128.715 91.9644 128.392 93.9623C128.378 94.0506 128.411 94.1439 128.484 94.2182C128.535 94.2711 128.603 94.3103 128.677 94.3316C128.707 94.3401 128.738 94.3458 128.769 94.3482C130.465 94.4785 132.012 92.0698 132.027 92.0454C132.116 91.8994 132.038 91.7069 131.852 91.6156C131.666 91.5248 131.444 91.5685 131.354 91.7147C130.991 92.3107 130.06 93.3636 129.229 93.6537C129.658 92.0412 130.914 90.6221 132.253 90.254C132.685 90.9898 133.009 91.6781 133.09 92.3825C133.093 92.4034 133.098 92.424 133.105 92.4439C131.916 94.5835 129.268 95.8494 127.677 96.103C127.48 96.1345 127.369 96.2974 127.429 96.4668C127.469 96.5804 127.576 96.668 127.702 96.704C127.764 96.7217 127.83 96.7269 127.895 96.7165C129.814 96.4105 133.895 94.5535 134.407 90.9586C135.623 92.2298 136.586 93.9728 136.848 95.7379C135.54 95.6606 134.338 95.7165 133.228 95.9074C134.185 95.2034 134.894 94.4544 135.348 93.6666C135.433 93.5187 135.35 93.3271 135.162 93.2388C134.974 93.1509 134.754 93.1989 134.668 93.3468C133.974 94.5532 132.611 95.6724 130.613 96.6793C130.378 96.7814 130.149 96.8916 129.924 97.01C127.691 98.0375 126.089 99.3142 124.833 101.221L126.037 97.0227C126.707 94.6903 127.827 90.7864 130.226 89.0614C130.374 88.9556 130.376 88.7596 130.232 88.6237C130.088 88.4878 129.852 88.4634 129.705 88.5694C129.013 89.0668 128.424 89.7237 127.92 90.4646L129.003 86.6904C129.095 86.3677 129.008 86.0597 128.807 86.0022C128.606 85.9447 128.369 86.1595 128.276 86.4822L127.193 90.2565C127.158 89.361 127.007 88.4921 126.684 87.704C126.615 87.5363 126.402 87.4319 126.208 87.4708C126.014 87.5098 125.912 87.6775 125.981 87.8452C127.101 90.5783 125.98 94.4822 125.311 96.8145L124.166 100.803C124.112 98.5172 123.429 96.5848 122.076 94.5275C120.643 92.348 119.945 90.4606 120.001 88.9174C120.008 88.747 119.845 88.5892 119.64 88.5645C119.434 88.54 119.262 88.6585 119.256 88.829C119.218 89.8542 119.483 91.0096 120.045 92.2819C119.155 91.4453 118.086 90.689 116.825 90.0013C117.983 88.6431 119.724 87.6748 121.429 87.2403C119.957 90.5605 122.432 94.2956 123.898 95.5716C123.948 95.6148 124.007 95.6453 124.068 95.663C124.194 95.699 124.331 95.6813 124.425 95.6062C124.566 95.4943 124.558 95.2973 124.408 95.1663C123.193 94.1089 121.619 91.6334 121.746 89.1897C121.762 89.1765 121.777 89.1616 121.791 89.1451C122.233 88.5907 122.873 88.1788 123.629 87.7832C124.57 88.8044 124.883 90.6733 124.391 92.2674C123.84 91.5816 123.609 90.1958 123.617 89.498C123.619 89.3268 123.454 89.172 123.248 89.1505C123.042 89.1296 122.873 89.2513 122.871 89.4223C122.871 89.4508 122.906 92.313 124.413 93.1001C124.44 93.1146 124.47 93.1261 124.499 93.1346C124.573 93.1558 124.652 93.1585 124.724 93.141C124.825 93.1164 124.903 93.055 124.937 92.9726C125.723 91.107 125.405 88.7915 124.236 87.478C124.38 87.408 124.526 87.3374 124.675 87.2657ZM131.025 97.2355C132.693 96.5114 134.629 96.225 136.909 96.3633C136.926 96.6845 136.917 97.005 136.881 97.3215C132.177 96.764 128.126 99.8806 126.443 101.856C126.336 101.982 126.373 102.167 126.528 102.28C126.683 102.394 126.903 102.397 127.033 102.289C128.336 101.202 130.2 100.944 132.174 100.67C134.719 100.318 137.343 99.9546 138.764 97.7277C138.94 98.2104 139.061 98.7378 139.122 99.2891C138.443 99.8009 137.566 100.231 136.576 100.538C136.391 100.596 136.313 100.774 136.403 100.936C136.454 101.029 136.549 101.096 136.655 101.126C136.735 101.149 136.822 101.151 136.902 101.126C137.746 100.865 138.516 100.518 139.166 100.109C139.166 100.997 139.012 101.92 138.68 102.8C137.988 103.839 135.687 103.98 131.835 103.221C131.63 103.181 131.444 103.284 131.419 103.451C131.395 103.608 131.52 103.765 131.704 103.818C131.717 103.822 131.729 103.825 131.743 103.827C134.675 104.406 136.769 104.48 138.068 104.046C137.797 104.482 137.472 104.896 137.092 105.274C133.787 105.919 130.231 104.171 129.392 103.723C129.21 103.626 128.984 103.662 128.887 103.805C128.791 103.947 128.86 104.141 129.042 104.238C132.05 105.844 136.52 106.914 139.702 104.969C139.661 105.397 139.548 105.827 139.375 106.245C138.751 106.686 137.39 106.974 135.897 106.692C135.692 106.653 135.507 106.758 135.484 106.926C135.462 107.082 135.587 107.238 135.77 107.29C135.783 107.294 135.797 107.297 135.812 107.3C136.873 107.5 137.981 107.456 138.857 107.209C138.287 108.061 137.474 108.808 136.536 109.316C135.307 107.491 132.5 105.878 129.526 105.326C127.53 104.955 125.726 105.096 124.261 105.715C127.677 102.279 133.773 101.735 137.457 102.562C137.66 102.607 137.851 102.51 137.883 102.344C137.915 102.178 137.775 102.006 137.573 101.96C133.973 101.153 127.521 101.456 123.764 105.175C125.203 101.163 127.061 99.0722 130.34 97.5644C130.344 97.5627 130.348 97.5609 130.351 97.5591C130.583 97.4527 130.807 97.3447 131.025 97.2355ZM115.956 91.3273C116.093 91.0396 116.256 90.7632 116.44 90.4995C118.719 91.7372 120.331 93.2037 121.361 94.975C121.413 95.0646 121.505 95.1295 121.609 95.1591C121.633 95.1659 121.657 95.1709 121.682 95.1739C123.488 98.0979 123.858 100.844 122.921 104.962C121.721 99.8034 116.396 96.1181 112.909 94.8948C112.711 94.828 112.503 94.8979 112.442 95.0558C112.381 95.2135 112.491 95.3973 112.688 95.4663C116.251 96.7162 121.132 100.405 122.207 105.128C121.293 103.826 119.837 102.751 117.948 102.009C115.133 100.904 111.898 100.785 109.887 101.682C109.361 100.754 109.068 99.6901 109.037 98.666C109.648 99.3391 110.564 99.9636 111.57 100.356C111.584 100.361 111.598 100.365 111.612 100.369C111.794 100.421 111.983 100.356 112.047 100.212C112.116 100.057 112.015 99.8704 111.821 99.7949C110.405 99.2435 109.403 98.2785 109.108 97.5745C109.183 97.128 109.315 96.7037 109.508 96.3186C111.175 99.6535 115.533 101.113 118.935 101.343C119.141 101.357 119.303 101.229 119.296 101.058C119.29 100.886 119.117 100.735 118.912 100.722C117.962 100.657 114.02 100.256 111.559 97.9599C111.437 97.4372 111.382 96.9152 111.383 96.4018C112.254 97.457 114.07 98.503 116.863 99.5651C116.875 99.5698 116.888 99.574 116.901 99.5776C117.084 99.6302 117.274 99.5631 117.337 99.4176C117.404 99.2621 117.301 99.076 117.106 99.002C113.437 97.6063 111.56 96.2678 111.524 95.0205C111.71 94.099 112.068 93.2347 112.54 92.4811C112.874 93.1725 113.343 93.8741 113.921 94.543C113.975 94.6064 114.05 94.6509 114.13 94.6739C114.236 94.7042 114.352 94.6969 114.444 94.6457C114.606 94.5556 114.635 94.3635 114.509 94.2167C113.831 93.4318 113.316 92.6028 113.012 91.8094C113.356 91.3738 113.738 90.9907 114.143 90.6745C114.167 93.3155 116.2 95.013 118.171 96.6594C119.7 97.9364 121.144 99.1424 121.673 100.754C121.726 100.915 121.915 101.028 122.106 101.014C122.297 101 122.427 100.863 122.402 100.7C122.023 98.1329 120.24 93.3448 115.956 91.3273ZM128.728 100.674C130.65 99.1385 133.585 97.5878 136.775 97.9301C136.701 98.2455 136.596 98.5553 136.457 98.8566C136.448 98.8776 136.441 98.8994 136.437 98.9215C135.185 99.6101 133.606 99.8287 131.974 100.055C130.875 100.207 129.755 100.362 128.728 100.674ZM115.501 92.8526C115.544 92.5238 115.619 92.2055 115.723 91.8985C118.611 93.2974 120.277 96.1664 121.092 98.4863C120.387 97.6784 119.519 96.9536 118.668 96.2425C117.404 95.1863 116.181 94.1654 115.484 92.9179C115.492 92.8975 115.498 92.8755 115.501 92.8526Z" fill="white"/>
</mask>
<g mask="url(#mask1)">
</g>
</svg>
