<svg width="24" height="24" viewBox="0 0 24 24" fill="none" xmlns="http://www.w3.org/2000/svg">
<path fill-rule="evenodd" clip-rule="evenodd" d="M10.5938 16.875C10.5938 16.875 10.3125 19.125 8.625 20.25H15.375C13.6875 19.125 13.4062 16.875 13.4062 16.875H10.5938Z" fill="#D0D0D0"/>
<path fill-rule="evenodd" clip-rule="evenodd" d="M12 16.875V20.25H15.375C13.6875 19.125 13.4062 16.875 13.4062 16.875H12Z" fill="#A9A9A4"/>
<path fill-rule="evenodd" clip-rule="evenodd" d="M4.5 2.25V9.90352C4.5 13.9434 8.28724 17.25 11.9994 17.25C15.7128 17.25 19.5 13.9434 19.5 9.90352V2.25H4.5Z" fill="#D0D0D0"/>
<path d="M5.52745 4.5H1.50577C1.50577 4.5 1.15135 10.8432 6 12.375" stroke="#D0D0D0" stroke-width="1.5" stroke-linecap="round" stroke-linejoin="round"/>
<path d="M18.0975 4.5H22.1192C22.1192 4.5 22.4736 10.8432 17.625 12.375" stroke="#D0D0D0" stroke-width="1.5" stroke-linecap="round" stroke-linejoin="round"/>
<path fill-rule="evenodd" clip-rule="evenodd" d="M19.5 9.375V2.25H4.5V5.625L19.5 9.375Z" fill="#EAE7E7"/>
<path fill-rule="evenodd" clip-rule="evenodd" d="M7.5 22.5H16.5V20.25H7.5V22.5Z" fill="#D0D0D0"/>
<path fill-rule="evenodd" clip-rule="evenodd" d="M7.5 22.5H16.5V21.375H7.5V22.5Z" fill="#EAE7E7"/>
<path fill-rule="evenodd" clip-rule="evenodd" d="M6.375 0.75L6.9375 3.1875L9.3756 3.74767L6.9375 4.3125L6.375 6.75L5.8125 4.3125L3.375 3.75L5.8125 3.1875L6.375 0.75Z" fill="#FEFEFE"/>
<path fill-rule="evenodd" clip-rule="evenodd" d="M8.62485 4.5L8.90607 5.71863L10.125 5.99868L8.90607 6.28107L8.62485 7.4997L8.34363 6.28107L7.125 5.99985L8.34363 5.71863L8.62485 4.5Z" fill="#FEFEFE"/>
<path d="M9.333 13.651L12.633 10.459C12.729 10.363 12.829 10.263 12.933 10.159C13.037 10.047 13.129 9.93099 13.209 9.81099C13.297 9.69099 13.369 9.56699 13.425 9.43899C13.481 9.30299 13.509 9.16299 13.509 9.01899C13.509 8.84299 13.473 8.68699 13.401 8.55099C13.337 8.41499 13.249 8.29899 13.137 8.20299C13.025 8.10699 12.893 8.03499 12.741 7.98699C12.597 7.93099 12.441 7.90299 12.273 7.90299C11.913 7.90299 11.617 8.00699 11.385 8.21499C11.153 8.42299 11.013 8.70299 10.965 9.05499L9.453 8.93499C9.485 8.54299 9.577 8.19899 9.729 7.90299C9.889 7.59899 10.093 7.34699 10.341 7.14699C10.589 6.94699 10.877 6.79499 11.205 6.69099C11.533 6.58699 11.889 6.53499 12.273 6.53499C12.657 6.53499 13.013 6.58699 13.341 6.69099C13.677 6.78699 13.969 6.93499 14.217 7.13499C14.465 7.32699 14.661 7.57499 14.805 7.87899C14.949 8.18299 15.021 8.53899 15.021 8.94699C15.021 9.48299 14.897 9.94699 14.649 10.339C14.409 10.723 14.097 11.091 13.713 11.443L11.085 13.879H15.021V15.175H9.333V13.651Z" fill="#7A7877"/>
</svg>
