<svg width="24" height="24" viewBox="0 0 24 24" fill="none" xmlns="http://www.w3.org/2000/svg">
<path fill-rule="evenodd" clip-rule="evenodd" d="M10.5938 16.875C10.5938 16.875 10.3125 19.125 8.625 20.25H15.375C13.6875 19.125 13.4062 16.875 13.4062 16.875H10.5938Z" fill="#CF982A"/>
<path fill-rule="evenodd" clip-rule="evenodd" d="M12 16.875V20.25H15.375C13.6875 19.125 13.4062 16.875 13.4062 16.875H12Z" fill="#AE7D1A"/>
<path fill-rule="evenodd" clip-rule="evenodd" d="M4.5 2.25V9.90352C4.5 13.9434 8.28724 17.25 11.9994 17.25C15.7128 17.25 19.5 13.9434 19.5 9.90352V2.25H4.5Z" fill="#CF982A"/>
<path d="M5.52745 4.5H1.50577C1.50577 4.5 1.15135 10.8432 6 12.375" stroke="#CF982A" stroke-width="1.5" stroke-linecap="round" stroke-linejoin="round"/>
<path d="M18.0975 4.5H22.1192C22.1192 4.5 22.4736 10.8432 17.625 12.375" stroke="#CF982A" stroke-width="1.5" stroke-linecap="round" stroke-linejoin="round"/>
<path fill-rule="evenodd" clip-rule="evenodd" d="M19.5 9.375V2.25H4.5V5.625L19.5 9.375Z" fill="#DFAD4A"/>
<path fill-rule="evenodd" clip-rule="evenodd" d="M7.5 22.5H16.5V20.25H7.5V22.5Z" fill="#CF982A"/>
<path fill-rule="evenodd" clip-rule="evenodd" d="M7.5 22.5H16.5V21.375H7.5V22.5Z" fill="#DFAD4A"/>
<path fill-rule="evenodd" clip-rule="evenodd" d="M6.375 0.75L6.9375 3.1875L9.3756 3.74767L6.9375 4.3125L6.375 6.75L5.8125 4.3125L3.375 3.75L5.8125 3.1875L6.375 0.75Z" fill="#FEFEFE"/>
<path fill-rule="evenodd" clip-rule="evenodd" d="M8.62485 4.5L8.90607 5.71863L10.125 5.99868L8.90607 6.28107L8.62485 7.4997L8.34363 6.28107L7.125 5.99985L8.34363 5.71863L8.62485 4.5Z" fill="#FEFEFE"/>
<path d="M11.289 10.099H11.661C11.869 10.099 12.069 10.087 12.261 10.063C12.461 10.039 12.637 9.98699 12.789 9.90699C12.949 9.82699 13.077 9.71099 13.173 9.55899C13.269 9.40699 13.317 9.20299 13.317 8.94699C13.317 8.61899 13.205 8.35099 12.981 8.14299C12.757 7.93499 12.465 7.83099 12.105 7.83099C11.817 7.83099 11.557 7.91499 11.325 8.08299C11.101 8.24299 10.937 8.47099 10.833 8.76699L9.309 8.35899C9.405 8.04699 9.541 7.77499 9.717 7.54299C9.893 7.31099 10.101 7.12299 10.341 6.97899C10.581 6.82699 10.845 6.71499 11.133 6.64299C11.421 6.57099 11.721 6.53499 12.033 6.53499C12.401 6.53499 12.749 6.58299 13.077 6.67899C13.405 6.77499 13.693 6.91899 13.941 7.11099C14.189 7.29499 14.385 7.53099 14.529 7.81899C14.681 8.09899 14.757 8.42699 14.757 8.80299C14.757 9.25899 14.629 9.66699 14.373 10.027C14.117 10.379 13.761 10.611 13.305 10.723V10.747C13.849 10.827 14.261 11.059 14.541 11.443C14.821 11.827 14.961 12.283 14.961 12.811C14.961 13.219 14.881 13.579 14.721 13.891C14.569 14.203 14.361 14.467 14.097 14.683C13.833 14.891 13.525 15.051 13.173 15.163C12.829 15.267 12.469 15.319 12.093 15.319C11.741 15.319 11.409 15.279 11.097 15.199C10.785 15.127 10.501 15.011 10.245 14.851C9.997 14.691 9.781 14.487 9.597 14.239C9.413 13.983 9.273 13.679 9.177 13.327L10.713 12.919C10.801 13.271 10.957 13.543 11.181 13.735C11.405 13.927 11.709 14.023 12.093 14.023C12.285 14.023 12.465 13.991 12.633 13.927C12.809 13.863 12.961 13.775 13.089 13.663C13.225 13.543 13.329 13.403 13.401 13.243C13.481 13.075 13.521 12.891 13.521 12.691C13.521 12.419 13.461 12.199 13.341 12.031C13.229 11.855 13.081 11.723 12.897 11.635C12.721 11.539 12.521 11.475 12.297 11.443C12.073 11.411 11.853 11.395 11.637 11.395H11.289V10.099Z" fill="#905E1D"/>
</svg>
