<?xml version="1.0" standalone="no"?><!DOCTYPE svg PUBLIC "-//W3C//DTD SVG 1.1//EN" "http://www.w3.org/Graphics/SVG/1.1/DTD/svg11.dtd"><svg t="1559082500972" class="icon" style="" viewBox="0 0 1024 1024" version="1.1" xmlns="http://www.w3.org/2000/svg" p-id="2209" xmlns:xlink="http://www.w3.org/1999/xlink" width="200" height="200"><defs><style type="text/css"></style></defs><path d="M2.133333 171.52h1019.733334v680.96H2.133333z" fill="#FFFFFF" p-id="2210"></path><path d="M654.933333 601.6a168.789333 168.789333 0 1 1-52.906666-232.533333 169.173333 169.173333 0 0 1 52.906666 232.533333z" fill="#E60012" p-id="2211"></path><path d="M654.933333 601.6a168.789333 168.789333 0 0 1-285.866666-179.626667 84.352 84.352 0 0 0 142.933333 89.6 84.48 84.48 0 0 1 142.933333 90.026667z" fill="#0068B7" p-id="2212"></path><path d="M728.32 258.133333l-19.2 12.8 98.56 146.346667 19.2-12.8z" fill="#231815" p-id="2213"></path><path d="M733.013333 347.306667l-42.666666-63.573334-19.626667 12.8 43.093333 63.573334z" fill="#231815" p-id="2214"></path><path d="M726.613333 379.306667l43.093334 63.573333 19.2-12.8-42.666667-63.573333z" fill="#231815" p-id="2215"></path><path d="M809.386667 296.106667l-43.093334-63.573334-19.2 12.8 42.666667 63.573334z" fill="#231815" p-id="2216"></path><path d="M822.186667 315.306667l-19.2 12.8 42.666666 64 19.626667-13.226667z" fill="#231815" p-id="2217"></path><path d="M240.64 581.12l-19.2 12.8 98.56 146.346667 19.626667-12.8z" fill="#231815" p-id="2218"></path><path d="M245.333333 669.866667l-42.666666-63.573334-19.2 13.226667 42.666666 63.573333z" fill="#231815" p-id="2219"></path><path d="M239.061333 702.208l19.114667-12.885333 42.922667 63.658666-19.114667 12.885334z" fill="#231815" p-id="2220"></path><path d="M164.693333 631.893333l-19.626666 13.226667 98.986666 146.346667 19.2-13.226667z" fill="#231815" p-id="2221"></path><path d="M320 283.733333l-98.56 146.346667 19.2 12.8 98.986667-146.346667z" fill="#231815" p-id="2222"></path><path d="M282.026667 258.133333L183.466667 404.48l19.2 12.8 98.56-146.346667z" fill="#231815" p-id="2223"></path><path d="M244.053333 232.533333L145.066667 378.88l19.626666 13.226667 98.56-146.773334z" fill="#231815" p-id="2224"></path><path d="M788.906667 593.92l-19.2-12.8-43.093334 63.573333 19.626667 12.8z" fill="#231815" p-id="2225"></path><path d="M670.72 727.466667l19.626667 12.8 42.666666-63.573334-19.2-12.8z" fill="#231815" p-id="2226"></path><path d="M826.88 619.52l-19.2-13.226667-42.666667 63.573334 19.2 13.226666z" fill="#231815" p-id="2227"></path><path d="M709.12 753.066667l19.2 12.8 42.666667-63.573334-19.2-12.8z" fill="#231815" p-id="2228"></path><path d="M865.28 645.12l-19.626667-13.226667-42.666666 63.573334 19.2 13.226666z" fill="#231815" p-id="2229"></path><path d="M747.093333 778.24l19.2 13.226667 43.093334-63.573334-19.626667-13.226666z" fill="#231815" p-id="2230"></path></svg>