<svg width="385" height="48" viewBox="0 0 385 48" fill="none" xmlns="http://www.w3.org/2000/svg">
<path fill-rule="evenodd" clip-rule="evenodd" d="M384.323 30.9693C385.006 32.3002 384.039 33.8824 382.544 33.8824H344.353C343.249 33.8824 342.353 32.9869 342.353 31.8824V0H382.544C384.039 0 385.006 1.58214 384.323 2.91306L377.593 16.0281C377.299 16.6013 377.299 17.2811 377.593 17.8542L384.323 30.9693Z" fill="#2F319F"/>
<path fill-rule="evenodd" clip-rule="evenodd" d="M342.353 7.05884L351.177 7.05884L342.353 1.43051e-05V7.05884Z" fill="#494B4D"/>
<path fill-rule="evenodd" clip-rule="evenodd" d="M0.383059 30.9693C-0.299868 32.3002 0.666568 33.8824 2.16247 33.8824H40.3529C41.4575 33.8824 42.3529 32.9869 42.3529 31.8824V0H2.16248C0.666572 0 -0.299869 1.58214 0.383057 2.91306L7.11271 16.0281C7.40682 16.6013 7.40682 17.2811 7.11271 17.8542L0.383059 30.9693Z" fill="#3334A6"/>
<path fill-rule="evenodd" clip-rule="evenodd" d="M42.353 7.05884L33.5295 7.05884L42.353 1.43051e-05V7.05884Z" fill="#494B4D"/>
<rect width="317.647" height="42.3529" rx="1" transform="matrix(1 0 0 -1 33.5293 48)" fill="#585AFA"/>
</svg>
