<?xml version="1.0" encoding="UTF-8"?>
<svg width="51px" height="54px" viewBox="0 0 51 54" version="1.1" xmlns="http://www.w3.org/2000/svg" xmlns:xlink="http://www.w3.org/1999/xlink">
    <!-- Generator: Sketch 50.2 (55047) - http://www.bohemiancoding.com/sketch -->
    <title>Group 4</title>
    <desc>Created with Sketch.</desc>
    <defs>
        <path d="M11.5550562,0.530337079 C11.194382,0.614606742 10.835206,0.714981273 10.4775281,0.829962547 C7.83370787,1.68089888 5.59775281,3.21011236 3.90037453,5.16741573 C2.99775281,6.20262172 2.24981273,7.3576779 1.67228464,8.59475655 C0.157303371,11.8337079 -0.183895131,15.6303371 0.998501873,19.3033708 C1.88838951,22.0681648 3.51835206,24.3850187 5.60074906,26.106367 C5.66217228,26.1573034 5.72359551,26.2082397 5.78726592,26.258427 C8.85580524,28.7157303 12.8629213,29.9033708 16.9089888,29.3614232 C16.9153558,29.3614232 16.9235955,29.3610487 16.929588,29.3588015 C17.7764045,29.2430712 18.628839,29.0516854 19.4730337,28.7801498 C19.8164794,28.6696629 20.1520599,28.5486891 20.4820225,28.4149813 C22.5973783,27.5629213 24.4161049,26.2602996 25.8617978,24.6535581 C26.2378277,24.2393258 26.5898876,23.8026217 26.9149813,23.3490637 C29.5224719,19.7003745 30.4307116,14.905618 28.9509363,10.3071161 C27.1917603,4.84194757 22.5318352,1.11910112 17.2217228,0.295505618 C16.4842697,0.180524345 15.7340824,0.121348315 14.9775281,0.121348315 C13.8445693,0.121348315 12.6970037,0.253932584 11.5550562,0.530337079" id="path-1"></path>
        <radialGradient cx="102.995886%" cy="80.5599972%" fx="102.995886%" fy="80.5599972%" r="56.1775543%" gradientTransform="translate(1.029959,0.805600),scale(0.999896,1.000000),rotate(162.167474),translate(-1.029959,-0.805600)" id="radialGradient-3">
            <stop stop-color="#999A9E" offset="0%"></stop>
            <stop stop-color="#FFFFFF" offset="100%"></stop>
        </radialGradient>
        <path d="M0.859925094,0.537453184 C-0.36928839,1.76741573 0.303370787,4.4340824 2.36329588,6.49363296 C4.42284644,8.55355805 7.08951311,9.22659176 8.31872659,7.99700375 C8.45692884,7.85842697 8.57003745,7.70149813 8.66067416,7.53071161 C7.30561798,8.24794007 5,7.51423221 3.17153558,5.68539326 C1.34269663,3.85692884 0.608614232,1.55131086 1.32659176,0.196254682 C1.15505618,0.286891386 0.998127341,0.399625468 0.859925094,0.537453184" id="path-4"></path>
        <path d="M0.57752809,0.570786517 C-0.140449438,1.9258427 0.593632959,4.23146067 2.42247191,6.05992509 C4.25093633,7.88876404 6.55655431,8.62247191 7.91161049,7.90524345 C8.62996255,6.5494382 7.89513109,4.24382022 6.0670412,2.41535581 C4.70524345,1.05393258 3.07827715,0.298876404 1.77715356,0.298876404 C1.33108614,0.298876404 0.923595506,0.387265918 0.57752809,0.570786517" id="path-6"></path>
        <path d="M4.66067416,0.636329588 C1.83820225,1.40674157 -0.0734082397,3.41161049 0.391011236,5.11385768 C0.405243446,5.16479401 0.420973783,5.21423221 0.438576779,5.26367041 C0.822846442,3.88052434 2.47640449,2.51498127 4.69250936,1.91011236 C7.43108614,1.16254682 10.0213483,1.85093633 10.5973783,3.44756554 C10.7029963,3.06891386 10.7131086,2.68913858 10.6134831,2.32284644 C10.2719101,1.07340824 8.74531835,0.334456929 6.84082397,0.334082397 C6.15093633,0.334082397 5.41161049,0.431086142 4.66067416,0.636329588" id="path-8"></path>
        <path d="M4.31797753,0.411985019 C2.10187266,1.01685393 0.448314607,2.382397 0.0640449438,3.76554307 C0.640449438,5.36179775 3.23033708,6.0505618 5.96891386,5.30262172 C8.18501873,4.69775281 9.83895131,3.33183521 10.2228464,1.9494382 C9.80449438,0.790636704 8.32509363,0.11011236 6.49775281,0.11011236 C5.80786517,0.109737828 5.06853933,0.207116105 4.31797753,0.411985019" id="path-10"></path>
        <path d="M2.62546816,0.0625468165 C4.24719101,0.676404494 4.90337079,3.35393258 4.08764045,6.16516854 C3.39438202,8.55355805 1.85543071,10.2906367 0.367041199,10.5445693 C0.415355805,10.5632959 0.464794007,10.5805243 0.515730337,10.5947566 C2.24606742,11.0966292 4.32996255,9.15617978 5.17041199,6.26067416 C6.01048689,3.36441948 5.28913858,0.61011236 3.55917603,0.1082397 C3.37640449,0.0550561798 3.18988764,0.0299625468 3.00149813,0.0299625468 C2.87677903,0.0299625468 2.75131086,0.04082397 2.62546816,0.0625468165" id="path-12"></path>
        <path d="M0.402996255,4.44269663 C-0.413108614,7.25393258 0.243445693,9.93108614 1.86516854,10.5445693 C3.35355805,10.2906367 4.89250936,8.55355805 5.58576779,6.16516854 C6.40149813,3.35393258 5.74531835,0.676404494 4.12359551,0.0625468165 C2.63483146,0.316853933 1.09625468,2.05393258 0.402996255,4.44269663" id="path-14"></path>
        <path d="M0.213108614,2.17340824 C0.213108614,2.17340824 3.98164794,3.62284644 6.22434457,7.9494382 C5.75617978,5.44531835 7.17902622,1.77228464 8.34681648,0.0528089888 C5.26779026,1.98464419 1.69925094,2.38876404 0.213108614,2.17340824 M4.63970037,3.51198502 C4.54007491,3.35655431 4.25917603,3.18689139 4.25917603,3.18689139 C4.25917603,3.18689139 4.56853933,3.16292135 4.74756554,3.0505618 C4.90187266,2.95318352 5.08726592,2.6741573 5.08726592,2.6741573 C5.08726592,2.6741573 5.11423221,2.99138577 5.22359551,3.1659176 C5.32996255,3.33558052 5.59775281,3.50374532 5.59775281,3.50374532 C5.59775281,3.50374532 5.25992509,3.51835206 5.1011236,3.62434457 C4.9411985,3.7340824 4.77003745,4.01460674 4.77003745,4.01460674 C4.77003745,4.01460674 4.72846442,3.64831461 4.63970037,3.51198502" id="path-16"></path>
        <path d="M0.84494382,6.88951311 C2.71348315,5.95655431 4.47565543,5.25543071 7.08651685,7.18726592 C6.32172285,5.72022472 5.37003745,4.34382022 4.19962547,3.16816479 C4.19625468,3.16516854 4.19475655,3.16329588 4.19138577,3.16067416 C4.14382022,3.11273408 4.09812734,3.06666667 4.04906367,3.02247191 C4.04719101,3.01722846 4.04419476,3.01460674 4.04082397,3.01273408 C2.90861423,1.91198502 1.57602996,1 0.0172284644,0.371910112 C0.0172284644,0.371910112 2.98913858,2.66554307 0.84494382,6.88951311 M2.74344569,4.5752809 C2.73520599,4.32621723 2.55168539,3.94868914 2.55168539,3.94868914 C2.55168539,3.94868914 2.97490637,4.15617978 3.18277154,4.15617978 C3.41947566,4.15505618 3.79662921,3.96928839 3.79662921,3.96928839 C3.79662921,3.96928839 3.60786517,4.31985019 3.60636704,4.58951311 C3.60449438,4.82247191 3.77602996,5.21385768 3.77602996,5.21385768 C3.77602996,5.21385768 3.41573034,5.02509363 3.15280899,5.02397004 C2.89700375,5.02059925 2.53108614,5.19363296 2.53108614,5.19363296 C2.53108614,5.19363296 2.74831461,4.81947566 2.74344569,4.5752809" id="path-18"></path>
        <path d="M2.19737828,4.20786517 C1.68501873,4.59812734 1.02022472,4.9329588 0.152808989,5.19962547 C1.65168539,5.4340824 3.18389513,5.49925094 4.69213483,5.32134831 C6.46741573,5.11235955 8.21011236,4.56816479 9.83108614,3.56891386 C9.68988764,3.6071161 6.18164794,4.50786517 4.10224719,0.356928839 C3.84382022,1.83857678 3.52022472,3.20561798 2.19737828,4.20786517 M4.31011236,3.94456929 C4.12434457,3.80524345 3.7071161,3.71011236 3.7071161,3.71011236 C3.7071161,3.71011236 4.07378277,3.5340824 4.23258427,3.32134831 C4.38614232,3.11835206 4.46404494,2.72209738 4.46404494,2.72209738 C4.46404494,2.72209738 4.63707865,3.11835206 4.83632959,3.25955056 C5.03970037,3.40224719 5.45205993,3.47827715 5.45205993,3.47827715 C5.45205993,3.47827715 5.03333333,3.69400749 4.90973783,3.86217228 C4.77003745,4.05243446 4.69550562,4.46666667 4.69550562,4.46666667 C4.69550562,4.46666667 4.5258427,4.10674157 4.31011236,3.94456929" id="path-20"></path>
        <path d="M0.167041199,9.54981273 C0.836329588,8.117603 1.68651685,6.30449438 5.45505618,6.16816479 C3.47453184,4.84681648 2.20861423,3.08614232 2.87940075,0.0505617978 C2.87940075,0.0505617978 -0.308614232,3.76029963 0.167041199,9.54981273 M2.09925094,5.52247191 C1.9659176,5.31348315 1.61235955,5.08651685 1.61235955,5.08651685 C1.61235955,5.08651685 2.08314607,5.04494382 2.26104869,4.93707865 C2.46217228,4.81385768 2.68951311,4.45992509 2.68951311,4.45992509 C2.68951311,4.45992509 2.7082397,4.85655431 2.84606742,5.08951311 C2.96516854,5.28951311 3.31573034,5.53670412 3.31573034,5.53670412 C3.31573034,5.53670412 2.9093633,5.56029963 2.68277154,5.69550562 C2.46217228,5.8258427 2.23857678,6.16179775 2.23857678,6.16179775 C2.23857678,6.16179775 2.23071161,5.72883895 2.09925094,5.52247191" id="path-22"></path>
    </defs>
    <g id="Page-1" stroke="none" stroke-width="1" fill="none" fill-rule="evenodd">
        <g id="home_01" transform="translate(-45.000000, -99.000000)">
            <g id="btn_create" transform="translate(36.000000, 99.000000)">
                <g id="Group-4" transform="translate(9.000000, 0.000000)">
                    <g id="Group-2460" transform="translate(4.500000, 0.067135)">
                        <g id="Group-3" transform="translate(0.308989, 0.000000)" fill="#585AFA" opacity="0.5">
                            <g id="Group-2438">
                                <g id="Group">
                                    <path d="M30.8130504,17.3309972 L43.1849077,4.92444232 C44.0058537,4.09756732 44.113035,2.45203021 43.1849077,1.45776751 C42.2567804,0.463504817 40.1932508,0.886404494 39.3723049,1.7136236 L23.0152307,17.8630409 C21.8665483,19.0642128 19.2105425,16.9948769 21.0162065,15.2890663 L23.0152307,13.0756874 C23.8361766,12.2488124 24.8754555,10.1918984 23.0152307,8.68921282 C21.1550058,7.18652728 19.0313544,8.54674157 18.2104084,9.37361657 L3.05416793,23.6393188 C3.05371242,23.6397776 2.91796994,23.7763858 2.64694048,24.0491433 C2.54957486,24.1475562 2.47099909,24.2566362 2.399256,24.3691573 C-2.12124203,29.635625 1.08886274,39.5970927 6.05348466,44.5979143 C11.2511008,49.8327247 19.678181,49.8327247 24.8754555,44.5979143 C25.1040085,44.3673666 25.7148497,43.746264 25.8149484,43.6457865 L40.5721606,28.7819944 C41.3931066,27.9554635 41.3931066,26.6141573 40.5721606,25.7872823 C39.7512147,24.9600632 38.4198679,24.9604073 37.598922,25.7872823 L34.0828272,29.3287711 C33.4381643,29.6887008 32.6127771,29.600611 32.0654798,29.049361 C31.5017841,28.4815941 31.4225251,27.6154916 31.8188202,26.9586025 L45.1804585,13.5004635 C46.0017461,12.6729003 46.0014045,11.3326264 45.1804585,10.5057514 C44.359171,9.6785323 43.0281658,9.6785323 42.2072199,10.5057514 L33.0770574,19.7015098 C32.4323945,20.0617837 31.8027056,20.2852822 30.9795855,19.4251747 C30.4308387,18.8517698 30.375327,18.1537106 30.8130504,17.3309972 Z" id="Fill-2454"></path>
                                </g>
                            </g>
                        </g>
                        <g id="Group-2450" transform="translate(33.196629, 13.584270)"></g>
                    </g>
                    <g id="Group-14" transform="translate(0.000000, 22.000000)">
                        <g id="Group-2463" transform="translate(0.823970, 0.883521)">
                            <mask id="mask-2" fill="white">
                                <use xlink:href="#path-1"></use>
                            </mask>
                            <g id="Clip-2462"></g>
                            <path d="M11.5550562,0.530337079 C11.194382,0.614606742 10.835206,0.714981273 10.4775281,0.829962547 C7.83370787,1.68089888 5.59775281,3.21011236 3.90037453,5.16741573 C2.99775281,6.20262172 2.24981273,7.3576779 1.67228464,8.59475655 C0.157303371,11.8337079 -0.183895131,15.6303371 0.998501873,19.3033708 C1.88838951,22.0681648 3.51835206,24.3850187 5.60074906,26.106367 C5.66217228,26.1573034 5.72359551,26.2082397 5.78726592,26.258427 C8.85580524,28.7157303 12.8629213,29.9033708 16.9089888,29.3614232 C16.9153558,29.3614232 16.9235955,29.3610487 16.929588,29.3588015 C17.7764045,29.2430712 18.628839,29.0516854 19.4730337,28.7801498 C19.8164794,28.6696629 20.1520599,28.5486891 20.4820225,28.4149813 C22.5973783,27.5629213 24.4161049,26.2602996 25.8617978,24.6535581 C26.2378277,24.2393258 26.5898876,23.8026217 26.9149813,23.3490637 C29.5224719,19.7003745 30.4307116,14.905618 28.9509363,10.3071161 C27.1917603,4.84194757 22.5318352,1.11910112 17.2217228,0.295505618 C16.4842697,0.180524345 15.7340824,0.121348315 14.9775281,0.121348315 C13.8445693,0.121348315 12.6970037,0.253932584 11.5550562,0.530337079" id="Fill-2461" fill="url(#radialGradient-3)" mask="url(#mask-2)"></path>
                        </g>
                        <g id="Group-2488" transform="translate(0.823970, 0.883521)">
                            <path d="M0.998314607,19.3033708 C-0.183707865,15.6303371 0.157490637,11.8340824 1.67209738,8.59475655 C2.25,7.3576779 2.99756554,6.20262172 3.90018727,5.16741573 C5.59756554,3.20973783 7.8335206,1.68089888 10.4777154,0.829962547 C10.8350187,0.714981273 11.1941948,0.614606742 11.5548689,0.530337079 C13.4597378,0.0696629213 15.3799625,0.00786516854 17.2215356,0.295505618 C22.5316479,1.11910112 27.191573,4.84194757 28.9511236,10.3071161 C30.4305243,14.905618 29.5222846,19.7007491 26.914794,23.3490637 C26.5900749,23.8026217 26.238015,24.2393258 25.861985,24.6535581 C24.4159176,26.2602996 22.597191,27.5629213 20.4818352,28.4149813 C20.1522472,28.5490637 19.8166667,28.6696629 19.473221,28.7801498 C18.6290262,29.0516854 17.7762172,29.2430712 16.9297753,29.359176 C16.9237828,29.3610487 16.9155431,29.3614232 16.9088015,29.3614232 C12.8627341,29.9033708 8.85561798,28.7157303 5.78707865,26.258427 C5.72340824,26.2082397 5.66198502,26.1573034 5.60093633,26.106367 C3.51853933,24.3846442 1.88820225,22.0681648 0.998314607,19.3033708 Z" id="Stroke-2464" stroke="#000000" stroke-width="2" opacity="0.545535714"></path>
                            <path d="M10.2182397,7.70752809 C10.2238577,7.72513109 10.2249813,7.74385768 10.2204869,7.76220974 L8.05494382,16.8970412 C8.04146067,16.9520974 7.98677903,16.9854307 7.93172285,16.9726966 C7.87666667,16.9599625 7.84333333,16.9045318 7.85606742,16.8502247 L10.021985,7.71539326 C10.0350936,7.66033708 10.0901498,7.62700375 10.1448315,7.63973783 C10.1807865,7.64835206 10.2077528,7.67494382 10.2182397,7.70752809" id="Fill-2466" fill="#565555"></path>
                            <path d="M17.3041573,7.17022472 C17.3225094,7.1758427 17.3393633,7.18595506 17.3528464,7.20168539 L22.935618,13.6544944 C22.9723221,13.6975655 22.9678277,13.761985 22.9247566,13.7983146 C22.882809,13.8353933 22.818015,13.8305243 22.7816854,13.7882022 L17.1989139,7.33464419 C17.1622097,7.2923221 17.1663296,7.22790262 17.2094007,7.1911985 C17.236367,7.167603 17.2723221,7.16123596 17.3041573,7.17022472" id="Fill-2468" fill="#565555"></path>
                            <path d="M5.60078652,26.1064045 L5.94348315,22.8592135 L6.14685393,22.8794382 L5.78730337,26.2584644 C5.72363296,26.2079026 5.66220974,26.1573408 5.60078652,26.1064045" id="Fill-2470" fill="#565555"></path>
                            <polygon id="Fill-2472" fill="#565555" points="25.7155805 4.79247191 23.7961049 5.72093633 23.7107116 5.54265918 25.5702622 4.64003745"></polygon>
                            <path d="M10.190824,7.62194757 C10.1964419,7.63955056 10.197191,7.65827715 10.1930712,7.67662921 L8.02715356,16.8118352 C8.01404494,16.8665169 7.9593633,16.8998502 7.90468165,16.8867416 C7.84962547,16.8740075 7.81554307,16.8189513 7.82865169,16.7642697 L9.99456929,7.6294382 C10.0076779,7.57513109 10.0627341,7.54104869 10.1174157,7.55378277 C10.1533708,7.56277154 10.1803371,7.5893633 10.190824,7.62194757" id="Fill-2474" fill="#FFFDFD"></path>
                            <path d="M17.2178652,7.14535581 C17.2358427,7.15059925 17.2534457,7.16146067 17.2665543,7.17681648 L22.8485768,13.6296255 C22.88603,13.6726966 22.881161,13.7371161 22.8384644,13.7734457 C22.7961423,13.8105243 22.7313483,13.8052809 22.6950187,13.7633333 L17.1126217,7.30977528 C17.0755431,7.26707865 17.080412,7.20303371 17.1231086,7.16632959 C17.1497004,7.14273408 17.1856554,7.13636704 17.2178652,7.14535581" id="Fill-2476" fill="#FFFDFD"></path>
                            <path d="M12.4881273,22.4872659 C12.5001124,22.4722846 12.5162172,22.4606742 12.5353184,22.4539326 L20.6330712,19.7640449 C20.6866292,19.7460674 20.7446816,19.7752809 20.7619101,19.8284644 C20.7798876,19.8816479 20.7506742,19.9397004 20.6974906,19.9569288 L12.5997378,22.647191 C12.5465543,22.6651685 12.4885019,22.6359551 12.4708989,22.5827715 C12.4596629,22.5486891 12.4671536,22.5131086 12.4881273,22.4872659" id="Fill-2478" fill="#565555"></path>
                            <path d="M12.4321348,22.5571161 C12.4437453,22.5425094 12.4602247,22.5305243 12.4797004,22.5241573 L20.5770787,19.8342697 C20.6306367,19.8166667 20.6883146,19.8455056 20.7059176,19.8990637 C20.7235206,19.9522472 20.6943071,20.0099251 20.6414981,20.0279026 L12.5437453,22.7177903 C12.4901873,22.7357678 12.4325094,22.7061798 12.4152809,22.6529963 C12.4036704,22.6192884 12.411161,22.5833333 12.4321348,22.5571161" id="Fill-2480" fill="#FFFDFD"></path>
                            <path d="M5.51501873,26.1338202 L5.85808989,22.8870037 L6.06108614,22.9068539 L5.70153558,26.2858801 C5.63786517,26.2353184 5.57644195,26.1851311 5.51501873,26.1338202" id="Fill-2482" fill="#FFFDFD"></path>
                            <polygon id="Fill-2484" fill="#FFFDFD" points="25.6298127 4.81988764 23.7103371 5.74835206 23.6253184 5.57007491 25.4844944 4.66782772"></polygon>
                            <path d="M12.0327341,17.7723221 C14.9604494,20.7000375 15.8207491,24.5873034 13.9537079,26.4543446 C12.0870412,28.3210112 8.20014981,27.4610861 5.27205993,24.5333708 C2.34434457,21.6052809 1.48441948,17.718764 3.35146067,15.8517228 C5.21812734,13.9850562 9.10501873,14.8449813 12.0327341,17.7723221" id="Fill-2486" fill="#000000"></path>
                        </g>
                        <g id="Group-2491" transform="translate(4.194757, 18.111985)">
                            <mask id="mask-5" fill="white">
                                <use xlink:href="#path-4"></use>
                            </mask>
                            <g id="Clip-2490"></g>
                            <path d="M0.859925094,0.537453184 C-0.36928839,1.76741573 0.303370787,4.4340824 2.36329588,6.49363296 C4.42284644,8.55355805 7.08951311,9.22659176 8.31872659,7.99700375 C8.45692884,7.85842697 8.57003745,7.70149813 8.66067416,7.53071161 C7.30561798,8.24794007 5,7.51423221 3.17153558,5.68539326 C1.34269663,3.85692884 0.608614232,1.55131086 1.32659176,0.196254682 C1.15505618,0.286891386 0.998127341,0.399625468 0.859925094,0.537453184" id="Fill-2489" mask="url(#mask-5)"></path>
                        </g>
                        <g id="Group-2494" transform="translate(4.943820, 17.737453)">
                            <mask id="mask-7" fill="white">
                                <use xlink:href="#path-6"></use>
                            </mask>
                            <g id="Clip-2493"></g>
                            <path d="M0.57752809,0.570786517 C-0.140449438,1.9258427 0.593632959,4.23146067 2.42247191,6.05992509 C4.25093633,7.88876404 6.55655431,8.62247191 7.91161049,7.90524345 C8.62996255,6.5494382 7.89513109,4.24382022 6.0670412,2.41535581 C4.70524345,1.05393258 3.07827715,0.298876404 1.77715356,0.298876404 C1.33108614,0.298876404 0.923595506,0.387265918 0.57752809,0.570786517" id="Fill-2492" mask="url(#mask-7)"></path>
                        </g>
                        <g id="Group-2499" transform="translate(6.067416, 2.381648)" fill="#000000">
                            <path d="M8.83842697,9.83363296 C4.80921348,10.933633 0.974007491,9.74262172 0.272883895,7.17333333 C-0.428614232,4.60404494 2.26913858,1.62951311 6.29835206,0.529138577 C10.3275655,-0.570486891 14.1620225,0.620149813 14.8635206,3.18981273 C15.5650187,5.75872659 12.8676404,8.73325843 8.83842697,9.83363296" id="Fill-2495"></path>
                            <path d="M13.8510861,14.8810487 C14.7158801,10.7949064 17.5289888,7.92898876 20.1342322,8.48067416 C22.7402247,9.03235955 24.1510861,12.7915356 23.2866667,16.8776779 C22.4222472,20.9638202 19.6091386,23.8297378 17.0035206,23.2780524 C14.3979026,22.7267416 12.9866667,18.967191 13.8510861,14.8810487" id="Fill-2497"></path>
                        </g>
                        <g id="Group-2502" transform="translate(7.940075, 3.130712)">
                            <mask id="mask-9" fill="white">
                                <use xlink:href="#path-8"></use>
                            </mask>
                            <g id="Clip-2501"></g>
                            <path d="M4.66067416,0.636329588 C1.83820225,1.40674157 -0.0734082397,3.41161049 0.391011236,5.11385768 C0.405243446,5.16479401 0.420973783,5.21423221 0.438576779,5.26367041 C0.822846442,3.88052434 2.47640449,2.51498127 4.69250936,1.91011236 C7.43108614,1.16254682 10.0213483,1.85093633 10.5973783,3.44756554 C10.7029963,3.06891386 10.7131086,2.68913858 10.6134831,2.32284644 C10.2719101,1.07340824 8.74531835,0.334456929 6.84082397,0.334082397 C6.15093633,0.334082397 5.41161049,0.431086142 4.66067416,0.636329588" id="Fill-2500" mask="url(#mask-9)"></path>
                        </g>
                        <g id="Group-2505" transform="translate(8.314607, 4.628839)">
                            <mask id="mask-11" fill="white">
                                <use xlink:href="#path-10"></use>
                            </mask>
                            <g id="Clip-2504"></g>
                            <path d="M4.31797753,0.411985019 C2.10187266,1.01685393 0.448314607,2.382397 0.0640449438,3.76554307 C0.640449438,5.36179775 3.23033708,6.0505618 5.96891386,5.30262172 C8.18501873,4.69775281 9.83895131,3.33183521 10.2228464,1.9494382 C9.80449438,0.790636704 8.32509363,0.11011236 6.49775281,0.11011236 C5.80786517,0.109737828 5.06853933,0.207116105 4.31797753,0.411985019" id="Fill-2503" mask="url(#mask-11)"></path>
                        </g>
                        <g id="Group-2508" transform="translate(22.921348, 12.494007)">
                            <mask id="mask-13" fill="white">
                                <use xlink:href="#path-12"></use>
                            </mask>
                            <g id="Clip-2507"></g>
                            <path d="M2.62546816,0.0625468165 C4.24719101,0.676404494 4.90337079,3.35393258 4.08764045,6.16516854 C3.39438202,8.55355805 1.85543071,10.2906367 0.367041199,10.5445693 C0.415355805,10.5632959 0.464794007,10.5805243 0.515730337,10.5947566 C2.24606742,11.0966292 4.32996255,9.15617978 5.17041199,6.26067416 C6.01048689,3.36441948 5.28913858,0.61011236 3.55917603,0.1082397 C3.37640449,0.0550561798 3.18988764,0.0299625468 3.00149813,0.0299625468 C2.87677903,0.0299625468 2.75131086,0.04082397 2.62546816,0.0625468165" id="Fill-2506" mask="url(#mask-13)"></path>
                        </g>
                        <g id="Group-2511" transform="translate(21.423221, 12.494007)">
                            <mask id="mask-15" fill="white">
                                <use xlink:href="#path-14"></use>
                            </mask>
                            <g id="Clip-2510"></g>
                            <path d="M0.402996255,4.44269663 C-0.413108614,7.25393258 0.243445693,9.93108614 1.86516854,10.5445693 C3.35355805,10.2906367 4.89250936,8.55355805 5.58576779,6.16516854 C6.40149813,3.35393258 5.74531835,0.676404494 4.12359551,0.0625468165 C2.63483146,0.316853933 1.09625468,2.05393258 0.402996255,4.44269663" id="Fill-2509" mask="url(#mask-15)"></path>
                        </g>
                        <g id="Group-2524" transform="translate(8.314607, 10.246816)" fill="#A22400">
                            <path d="M9.83494382,12.2322472 C10.0031086,12.4007865 10.0034831,12.6741948 9.83494382,12.8427341 C9.66640449,13.0112734 9.39262172,13.0112734 9.22445693,12.8431086 C9.05554307,12.6745693 9.05554307,12.4007865 9.22445693,12.2322472 C9.39299625,12.0637079 9.66640449,12.0637079 9.83494382,12.2322472" id="Fill-2512"></path>
                            <path d="M9.39842697,11.0307491 C9.52052434,11.1528464 9.52089888,11.3513483 9.39842697,11.4738202 C9.27595506,11.5962921 9.07745318,11.5962921 8.95498127,11.4741948 C8.83250936,11.3513483 8.8328839,11.153221 8.95535581,11.0307491 C9.07782772,10.9086517 9.27595506,10.9082772 9.39842697,11.0307491" id="Fill-2514"></path>
                            <path d="M12.4389139,0.342696629 C12.5089513,0.114981273 12.7508989,-0.0127340824 12.9786142,0.0573033708 C13.2063296,0.128089888 13.3340449,0.36928839 13.263633,0.597378277 C13.193221,0.824719101 12.9516479,0.952808989 12.7239326,0.882022472 C12.4962172,0.811985019 12.3685019,0.570037453 12.4389139,0.342696629" id="Fill-2516"></path>
                            <path d="M11.6408614,1.27172285 C11.6914232,1.10655431 11.8670787,1.01404494 12.0326217,1.06498127 C12.1977903,1.1159176 12.2902996,1.29157303 12.2393633,1.45674157 C12.1880524,1.62228464 12.0131461,1.71479401 11.847603,1.66385768 C11.6824345,1.61254682 11.5895506,1.43726592 11.6408614,1.27172285" id="Fill-2518"></path>
                            <path d="M0.653220974,4.33928839 C0.417640449,4.37449438 0.197790262,4.21194757 0.16258427,3.97599251 C0.127378277,3.74041199 0.289925094,3.5205618 0.525505618,3.48535581 C0.761460674,3.45014981 0.981310861,3.61307116 1.01651685,3.84827715 C1.05134831,4.08385768 0.88917603,4.3040824 0.653220974,4.33928839" id="Fill-2520"></path>
                            <path d="M1.88235955,4.51779026 C1.71157303,4.54363296 1.55202247,4.42565543 1.52617978,4.25449438 C1.50071161,4.08333333 1.61868914,3.9241573 1.78985019,3.89868914 C1.96101124,3.87247191 2.1205618,3.99082397 2.14602996,4.16198502 C2.17149813,4.33314607 2.0535206,4.4923221 1.88235955,4.51779026" id="Fill-2522"></path>
                        </g>
                        <g id="Group-2527" transform="translate(10.936330, 12.494007)">
                            <mask id="mask-17" fill="white">
                                <use xlink:href="#path-16"></use>
                            </mask>
                            <g id="Clip-2526"></g>
                            <path d="M0.213108614,2.17340824 C0.213108614,2.17340824 3.98164794,3.62284644 6.22434457,7.9494382 C5.75617978,5.44531835 7.17902622,1.77228464 8.34681648,0.0528089888 C5.26779026,1.98464419 1.69925094,2.38876404 0.213108614,2.17340824 M4.63970037,3.51198502 C4.54007491,3.35655431 4.25917603,3.18689139 4.25917603,3.18689139 C4.25917603,3.18689139 4.56853933,3.16292135 4.74756554,3.0505618 C4.90187266,2.95318352 5.08726592,2.6741573 5.08726592,2.6741573 C5.08726592,2.6741573 5.11423221,2.99138577 5.22359551,3.1659176 C5.32996255,3.33558052 5.59775281,3.50374532 5.59775281,3.50374532 C5.59775281,3.50374532 5.25992509,3.51835206 5.1011236,3.62434457 C4.9411985,3.7340824 4.77003745,4.01460674 4.77003745,4.01460674 C4.77003745,4.01460674 4.72846442,3.64831461 4.63970037,3.51198502" id="Fill-2525" mask="url(#mask-17)"></path>
                        </g>
                        <g id="Group-2530" transform="translate(21.048689, 3.130712)">
                            <mask id="mask-19" fill="white">
                                <use xlink:href="#path-18"></use>
                            </mask>
                            <g id="Clip-2529"></g>
                            <path d="M0.84494382,6.88951311 C2.71348315,5.95655431 4.47565543,5.25543071 7.08651685,7.18726592 C6.32172285,5.72022472 5.37003745,4.34382022 4.19962547,3.16816479 C4.19625468,3.16516854 4.19475655,3.16329588 4.19138577,3.16067416 C4.14382022,3.11273408 4.09812734,3.06666667 4.04906367,3.02247191 C4.04719101,3.01722846 4.04419476,3.01460674 4.04082397,3.01273408 C2.90861423,1.91198502 1.57602996,1 0.0172284644,0.371910112 C0.0172284644,0.371910112 2.98913858,2.66554307 0.84494382,6.88951311 M2.74344569,4.5752809 C2.73520599,4.32621723 2.55168539,3.94868914 2.55168539,3.94868914 C2.55168539,3.94868914 2.97490637,4.15617978 3.18277154,4.15617978 C3.41947566,4.15505618 3.79662921,3.96928839 3.79662921,3.96928839 C3.79662921,3.96928839 3.60786517,4.31985019 3.60636704,4.58951311 C3.60449438,4.82247191 3.77602996,5.21385768 3.77602996,5.21385768 C3.77602996,5.21385768 3.41573034,5.02509363 3.15280899,5.02397004 C2.89700375,5.02059925 2.53108614,5.19363296 2.53108614,5.19363296 C2.53108614,5.19363296 2.74831461,4.81947566 2.74344569,4.5752809" id="Fill-2528" mask="url(#mask-19)"></path>
                        </g>
                        <g id="Group-2533" transform="translate(13.558052, 23.729963)">
                            <mask id="mask-21" fill="white">
                                <use xlink:href="#path-20"></use>
                            </mask>
                            <g id="Clip-2532"></g>
                            <path d="M2.19737828,4.20786517 C1.68501873,4.59812734 1.02022472,4.9329588 0.152808989,5.19962547 C1.65168539,5.4340824 3.18389513,5.49925094 4.69213483,5.32134831 C6.46741573,5.11235955 8.21011236,4.56816479 9.83108614,3.56891386 C9.68988764,3.6071161 6.18164794,4.50786517 4.10224719,0.356928839 C3.84382022,1.83857678 3.52022472,3.20561798 2.19737828,4.20786517 M4.31011236,3.94456929 C4.12434457,3.80524345 3.7071161,3.71011236 3.7071161,3.71011236 C3.7071161,3.71011236 4.07378277,3.5340824 4.23258427,3.32134831 C4.38614232,3.11835206 4.46404494,2.72209738 4.46404494,2.72209738 C4.46404494,2.72209738 4.63707865,3.11835206 4.83632959,3.25955056 C5.03970037,3.40224719 5.45205993,3.47827715 5.45205993,3.47827715 C5.45205993,3.47827715 5.03333333,3.69400749 4.90973783,3.86217228 C4.77003745,4.05243446 4.69550562,4.46666667 4.69550562,4.46666667 C4.69550562,4.46666667 4.5258427,4.10674157 4.31011236,3.94456929" id="Fill-2531" mask="url(#mask-21)"></path>
                        </g>
                        <g id="Group-2536" transform="translate(2.322097, 7.625094)">
                            <mask id="mask-23" fill="white">
                                <use xlink:href="#path-22"></use>
                            </mask>
                            <g id="Clip-2535"></g>
                            <path d="M0.167041199,9.54981273 C0.836329588,8.117603 1.68651685,6.30449438 5.45505618,6.16816479 C3.47453184,4.84681648 2.20861423,3.08614232 2.87940075,0.0505617978 C2.87940075,0.0505617978 -0.308614232,3.76029963 0.167041199,9.54981273 M2.09925094,5.52247191 C1.9659176,5.31348315 1.61235955,5.08651685 1.61235955,5.08651685 C1.61235955,5.08651685 2.08314607,5.04494382 2.26104869,4.93707865 C2.46217228,4.81385768 2.68951311,4.45992509 2.68951311,4.45992509 C2.68951311,4.45992509 2.7082397,4.85655431 2.84606742,5.08951311 C2.96516854,5.28951311 3.31573034,5.53670412 3.31573034,5.53670412 C3.31573034,5.53670412 2.9093633,5.56029963 2.68277154,5.69550562 C2.46217228,5.8258427 2.23857678,6.16179775 2.23857678,6.16179775 C2.23857678,6.16179775 2.23071161,5.72883895 2.09925094,5.52247191" id="Fill-2534" mask="url(#mask-23)"></path>
                        </g>
                    </g>
                </g>
            </g>
        </g>
    </g>
</svg>