<?xml version="1.0" encoding="UTF-8"?>
<svg width="167px" height="31px" viewBox="0 0 167 31" version="1.1" xmlns="http://www.w3.org/2000/svg" xmlns:xlink="http://www.w3.org/1999/xlink">
    <!-- Generator: Sketch 50.2 (55047) - http://www.bohemiancoding.com/sketch -->
    <title>Group 15</title>
    <desc>Created with Sketch.</desc>
    <defs>
        <path d="M12.9544683,19.7198764 C12.3274244,22.4215673 9.77518829,24.5451754 6.7361561,24.6266432 L6.7361561,25.3429968 L19.2574263,25.3429968 L19.2574263,24.6274789 C16.1682459,24.5639426 13.608958,22.4774152 13.0169951,19.7182051 C13.0097659,19.6971218 12.9993405,19.6771846 12.9867083,19.6771846 C12.9771454,19.6771846 12.966238,19.6886933 12.9544683,19.7198764 Z" id="path-1"></path>
        <path d="M0.266950244,14.8748314 C2.31765268,8.24630407 10.6319961,2.22200465 12.9839941,0.0125353525 C15.3359415,2.22200465 23.6502849,8.24630407 25.7010127,14.8748314 C26.0521522,16.0099135 26.1422771,17.3887545 25.5880078,18.6061163 C24.7311493,21.0513696 22.2862361,22.8168726 19.4019102,22.8168726 C16.2481483,22.8168726 13.6182166,20.706922 13.0169951,17.9046619 C13.0042615,17.8675811 12.9817873,17.8339625 12.9544683,17.9063333 C12.3150459,20.6613889 9.67377561,22.8168726 6.55562732,22.8168726 C3.18201951,22.8168726 0.407400976,20.4025876 0.074702439,17.3090774 C-0.0665092683,16.481386 0.0323668293,15.6331127 0.266950244,14.8748314 Z M10.6627902,7.05909874 C10.2772546,7.38520892 9.90630439,7.69899864 9.63194732,8.04413868 C9.63603122,7.8443371 9.66598829,7.64093011 9.72630829,7.43537421 C9.74457171,7.37286458 9.71306732,7.30787176 9.6458478,7.26990755 C9.57862829,7.23182396 9.48840195,7.22807529 9.41618537,7.26011804 C8.30673366,7.75210078 7.22165854,8.71462484 6.73841366,9.84333186 C6.73146341,9.85378993 6.72593366,9.86510756 6.72202732,9.87695048 C6.72048,9.88182136 6.71916098,9.88666837 6.71817171,9.89149149 C6.60838829,10.1584587 6.53246829,10.4344275 6.49792,10.7154342 C6.49743805,10.7185621 6.4970322,10.7216422 6.4968039,10.7246985 C6.48899122,10.7899778 6.48341073,10.8554959 6.48021463,10.921205 C6.34093073,10.6821499 6.24164878,10.4106939 6.19221073,10.0976682 C6.18198829,10.0329858 6.12217561,9.97928671 6.04044683,9.96161784 C5.95866732,9.9442116 5.87120585,9.96586792 5.8186478,10.017036 C5.10974829,10.7066237 4.62348488,11.850015 4.7007239,13.0486573 C4.69681756,13.0660158 4.69653854,13.0841383 4.70047024,13.102428 C4.70244878,13.1117639 4.70455415,13.121052 4.70686244,13.1302684 C4.73770732,13.4901166 4.81981659,13.8542149 4.96242341,14.2116515 C4.73560195,14.0369206 4.52701854,13.830529 4.34430829,13.5874148 C4.30268293,13.532116 4.22189268,13.5005747 4.13985951,13.50769 C4.05716683,13.5144471 3.98748683,13.5580702 3.96214634,13.6189562 C3.8086322,13.9874478 3.7648761,14.3941424 3.81431415,14.8057317 C3.81355317,14.8203205 3.81540488,14.835148 3.81994537,14.849689 C3.94431415,15.7634804 4.52435512,16.6954421 5.37862634,17.2819533 C5.03885073,17.2325043 4.73798634,17.1562416 4.50378341,17.0524012 C4.42717854,17.0184244 4.33073756,17.0251338 4.26306146,17.0690195 C4.19541073,17.1129051 4.17085659,17.1847745 4.2017522,17.2485018 C4.37172878,17.5993246 4.72198049,18.0455831 5.27939512,18.4448281 C5.29220488,18.4597034 5.30843902,18.4731938 5.32802146,18.4845354 C5.34126244,18.4923192 5.35468098,18.4996972 5.36830244,18.506908 C6.13556878,19.0289994 7.26888976,19.4555357 8.83061463,19.4555357 C8.91338341,19.4555357 8.99736976,19.4543896 9.08252293,19.4519303 C9.19852098,19.4485637 9.28902634,19.3737097 9.28471415,19.2845296 C9.28035122,19.1953973 9.1809678,19.125462 9.06684683,19.1292584 C7.96145366,19.1610624 7.07960976,18.9675165 6.39665951,18.6743325 C7.01510439,18.634291 7.66913756,18.420617 8.07646244,18.2400124 C8.17691122,18.1953866 8.21138341,18.096608 8.15334634,18.0195096 C8.09533463,17.9423396 7.96680585,17.9159318 7.86628098,17.9603905 C7.2548878,18.2316078 6.16681951,18.5241471 5.61899317,18.2473904 C5.27381463,18.0089799 5.01297756,17.7502502 4.82915122,17.5089984 C6.42177171,17.8983823 9.16153756,17.6074905 10.0575863,16.6833365 C10.0995668,16.6401194 10.1105502,16.5835074 10.0869854,16.5326496 C10.063319,16.4818397 10.0081737,16.4434934 9.93996488,16.4303612 C9.15593171,16.2796265 8.18198439,16.2023849 6.90209951,16.7699379 C6.8016,16.8145876 6.76717854,16.9132946 6.82521561,16.9904407 C6.88320195,17.0676824 7.01173073,17.0942334 7.11228098,17.0496076 C8.07943024,16.620803 8.82878829,16.596759 9.48206049,16.6846736 C8.78148098,17.1484578 7.40416585,17.3774846 6.20390439,17.348331 C6.19081561,17.3381117 6.17574829,17.3290624 6.15875317,17.3214934 C5.94839415,17.2282304 5.75010927,17.1107801 5.56651122,16.974491 C6.40163122,16.2974864 8.0536078,15.9127347 9.59067707,16.0519845 C10.2972937,16.1160462 11.4716566,16.338674 12.3008156,17.0917264 C11.9625873,17.0060084 11.5588137,16.95995 11.1346712,16.9838985 C10.4939805,17.020239 9.32192585,17.2600821 8.67058146,18.4580798 C8.62588683,18.5403595 8.67641561,18.6348641 8.78353561,18.6692468 C8.81006829,18.6777469 8.83741268,18.6817582 8.86442732,18.6817582 C8.94666341,18.6816627 9.02479024,18.6444148 9.05842537,18.5824544 C9.59491317,17.595743 10.5004741,17.3436511 11.1656176,17.3059018 C11.9434361,17.2628996 12.6558107,17.5081627 12.8076761,17.6978644 C12.8240117,17.7191625 12.8468663,17.737882 12.8755044,17.7518977 C12.8765444,17.752423 12.8775844,17.7529244 12.878599,17.7534497 C12.8819727,17.7550017 12.8854224,17.756506 12.8889229,17.7579624 C12.9051317,17.7646718 12.9219746,17.7695905 12.939122,17.7728377 C12.9550263,17.7757985 12.9716917,17.7773505 12.9887883,17.7773505 C13.0125307,17.7773505 13.03536,17.774342 13.0566673,17.7687309 C13.067042,17.7660806 13.0780254,17.7623797 13.0887298,17.7579624 C13.0902263,17.7573416 13.0917229,17.7567208 13.0932449,17.7560523 C13.0956293,17.7550017 13.0979629,17.7539273 13.1002712,17.7528289 C13.1297463,17.7386938 13.1532605,17.7196401 13.1699259,17.6978644 C13.3218166,17.5081627 14.0345971,17.2625653 14.8120351,17.3059018 C15.4772039,17.3436511 16.3826888,17.595743 16.9191766,18.5824544 C16.9528878,18.6444148 17.0309385,18.6817582 17.1132507,18.6817582 C17.1401893,18.6817582 17.1676605,18.6777469 17.1940917,18.6692468 C17.3012117,18.6348641 17.3517659,18.5403595 17.3070712,18.4580798 C16.6557268,17.2600821 15.4836215,17.020239 14.8429815,16.9838985 C14.4189405,16.9600932 14.0150654,17.0060084 13.6767863,17.0917741 C14.5058693,16.338674 15.6802829,16.1160462 16.3868234,16.0520084 C17.923639,15.9126153 19.5758693,16.2973432 20.4111668,16.9744432 C20.227518,17.1107801 20.0292332,17.2282304 19.8188741,17.3214934 C19.8019298,17.3290624 19.7868371,17.3381117 19.7737483,17.348331 C18.5734868,17.3774846 17.1961463,17.14841 16.4955922,16.6846736 C17.1490166,16.596759 17.8982732,16.6206836 18.865321,17.0496076 C18.9657444,17.0942334 19.0943239,17.0676824 19.1523863,16.9904407 C19.2104234,16.9132946 19.176002,16.8145876 19.0755024,16.7699379 C17.7955668,16.2025281 16.821518,16.2798892 16.0376624,16.4303612 C15.9694537,16.4434934 15.9142829,16.4818397 15.8906673,16.5326496 C15.8670771,16.5835074 15.8780859,16.6401194 15.9200663,16.6833365 C16.8159883,17.6075382 19.555881,17.8981196 21.1485015,17.5089984 C20.9649034,17.7499159 20.7047512,18.0083352 20.3604098,18.2465069 C19.81304,18.5246246 18.7234244,18.2318704 18.1113717,17.9603905 C18.0107707,17.9159318 17.882318,17.9423396 17.8243063,18.0195096 C17.7662439,18.096608 17.8006907,18.1953866 17.9011902,18.2400124 C18.308718,18.4207364 18.9630302,18.634482 19.5817541,18.6743803 C18.8989561,18.9675643 18.0171122,19.1611101 16.9108312,19.1292584 C16.7966088,19.1256769 16.6972761,19.195445 16.6929385,19.2845296 C16.6885756,19.3737097 16.779081,19.4485637 16.8951298,19.4519303 C16.9804351,19.4543896 17.0640917,19.4555357 17.147038,19.4555357 C18.7081288,19.4554879 19.8412468,19.0291188 20.6086146,18.5073139 C20.622439,18.4999598 20.6361112,18.4924147 20.6496312,18.4845354 C20.6693405,18.4731461 20.6856254,18.4595363 20.6985112,18.4445655 C21.2557737,18.0453444 21.6059746,17.5991813 21.7758751,17.2485018 C21.8067454,17.1847745 21.782242,17.1129051 21.7145659,17.0690195 C21.6469659,17.0251338 21.5505756,17.0184244 21.4738185,17.0524012 C21.2396156,17.1562416 20.938802,17.2325043 20.5989756,17.2819533 C21.4532215,16.6954421 22.0332117,15.7635998 22.1576059,14.8498323 C22.1622732,14.8351958 22.1640995,14.8202727 22.1632878,14.8055407 C22.2127259,14.394023 22.1689698,13.9873523 22.015481,13.6189562 C21.9901151,13.5580702 21.9205112,13.5144471 21.8377932,13.50769 C21.7544156,13.5005747 21.6748937,13.532116 21.6333444,13.5874148 C21.4506341,13.8305768 21.2420254,14.0369684 21.0151785,14.2117948 C21.1578107,13.8542149 21.2399454,13.4901883 21.2707902,13.1302684 C21.2730478,13.121052 21.2752039,13.1117639 21.2771824,13.102428 C21.2811395,13.0840667 21.2808351,13.0658964 21.2769034,13.0485618 C21.3540663,11.8499195 20.8677776,10.7066237 20.1589288,10.017036 C20.1063454,9.96586792 20.0188585,9.94406834 19.9371044,9.96161784 C19.8554771,9.97928671 19.7955883,10.0329858 19.7853405,10.0976682 C19.7359532,10.4106939 19.6366712,10.6821499 19.4973873,10.921205 C19.4941912,10.8556869 19.4886107,10.7904076 19.4808741,10.7253193 C19.4805951,10.721881 19.4801639,10.7183472 19.4796059,10.7148134 C19.4450576,10.4340216 19.3691376,10.1583393 19.2594302,9.89149149 C19.258441,9.88666837 19.257122,9.88182136 19.2555746,9.87695048 C19.2516429,9.86501205 19.2460878,9.85378993 19.2391629,9.84328411 C18.755918,8.71457709 17.6708429,7.75205303 16.5614673,7.26011804 C16.4891746,7.22807529 16.3990751,7.23182396 16.3318049,7.26990755 C16.2645854,7.30787176 16.2330302,7.37286458 16.2513444,7.43537421 C16.3116644,7.64093011 16.3415707,7.8443371 16.3457054,8.04413868 C16.0713229,7.69904639 15.7003727,7.38525667 15.3148624,7.05909874 C14.4491259,6.32662824 13.4678985,5.49659689 13.1976,4.01821323 C13.186642,3.94708406 13.1146029,3.8877023 13.0178829,3.87733974 C13.0144585,3.87695771 13.0109327,3.87659956 13.0074576,3.8764563 C12.9918829,3.87531021 12.9758771,3.87562061 12.959719,3.87733974 C12.8630751,3.8877023 12.79096,3.94708406 12.780078,4.01821323 C12.5097541,5.49659689 11.5285268,6.32662824 10.6627902,7.05909874 Z M10.9739785,7.27602003 C11.7260761,6.63979717 12.5613483,5.93318531 12.9887883,4.81049526 C13.4162029,5.93318531 14.2515259,6.63984492 15.0036741,7.27606778 C15.0722634,7.33411244 15.1397112,7.39120201 15.2056624,7.44755141 C14.3795473,7.94392749 13.8544234,9.0722286 13.9880254,10.1326239 C13.993961,10.1794703 14.0261502,10.2219234 14.0762985,10.2490475 C14.1120137,10.2684116 14.1542985,10.2784399 14.1972176,10.2784399 C14.214441,10.2784399 14.2317659,10.2768402 14.2488117,10.2735452 C15.1750712,10.093251 15.6328488,8.64657579 15.6369834,8.63203478 C15.6621971,8.54502749 15.5907415,8.45880814 15.4774829,8.43949176 C15.3644273,8.4203664 15.2519551,8.4749489 15.2267415,8.56207557 C15.1239844,8.91717226 14.7878615,9.58648846 14.3883746,9.85436297 C14.3698322,8.97426184 14.8237795,8.07181196 15.483241,7.69049848 C15.8266946,8.00101707 16.1057698,8.30298774 16.2571785,8.64850981 C16.261719,8.65875299 16.2674517,8.66849475 16.274199,8.67754408 C15.9671961,9.9355443 14.7460078,10.9624404 13.9345288,11.3222647 C13.8340039,11.3668428 13.7996078,11.4656214 13.8576195,11.5428391 C13.8965307,11.5946281 13.9671493,11.6235429 14.0398224,11.6235429 C14.0754361,11.6235429 14.1115824,11.6165948 14.1446849,11.6018866 C15.1239844,11.167662 17.0200059,9.63285732 16.7427063,7.73483781 C17.5875161,8.20299144 18.3696468,8.94713772 18.7801932,9.80443645 C18.0695434,9.95524271 17.4355746,10.1582438 16.8716156,10.4164004 C17.2751102,9.92021536 17.5391688,9.43730582 17.6606459,8.97180252 C17.6835259,8.88438933 17.609762,8.7992922 17.49592,8.78179046 C17.382002,8.76450361 17.2714068,8.82087688 17.2485776,8.90829007 C17.0625444,9.62110991 16.5057385,10.3868409 15.5917815,11.188029 C15.4823024,11.2738663 15.376679,11.3630464 15.2747337,11.4557602 C14.2383863,12.3015742 13.5782654,13.1818425 13.1989444,14.3314895 L13.1989444,12.0270619 C13.1989444,10.7467607 13.1989444,8.60378845 14.2166985,7.3801709 C14.2792254,7.30510205 14.2505366,7.20527289 14.1527259,7.1572804 C14.0549405,7.1092879 13.9249912,7.13120686 13.8624644,7.20637122 C13.5690068,7.55922349 13.3550459,7.97799977 13.1989444,8.42712355 L13.1989444,6.35530436 C13.1989444,6.17816192 13.1048878,6.03468585 12.9887883,6.03468585 C12.8727395,6.03468585 12.7786576,6.17816192 12.7786576,6.35530436 L12.7786576,8.42712355 C12.6226322,7.97799977 12.4085951,7.55922349 12.1151629,7.20637122 C12.0526107,7.13135012 11.9228137,7.1092879 11.8249015,7.1572804 C11.7271161,7.20527289 11.6984273,7.30510205 11.7609034,7.3801709 C12.7786576,8.60378845 12.7786576,10.7467607 12.7786576,12.0270619 L12.7786576,14.2162598 C12.3988293,13.065013 11.73744,12.1840284 10.6987083,11.3371161 C9.59821073,10.4399191 8.9355278,9.58398139 8.72907512,8.79303646 C8.70629659,8.70564714 8.59537171,8.64920224 8.48173268,8.66653684 C8.36794146,8.68403858 8.2941522,8.76913572 8.3169561,8.85654891 C8.45413463,9.38198314 8.77283122,9.92957509 9.2685561,10.4932362 C8.66467122,10.1981659 7.97723122,9.96987923 7.19738341,9.80443645 C7.60795512,8.94720936 8.39013659,8.2030392 9.23499707,7.73483781 C8.9575961,9.63285732 10.8536683,11.167662 11.8329678,11.6018866 C11.8660702,11.6165948 11.9021659,11.6235429 11.9378302,11.6235429 C12.0105034,11.6235429 12.081122,11.5946281 12.1200332,11.5428391 C12.1780449,11.4656214 12.1436488,11.3668428 12.0431493,11.3222647 C11.2316195,10.9624404 10.0104566,9.9355443 9.70340293,8.67759183 C9.71020098,8.66849475 9.71593366,8.65875299 9.72044878,8.64850981 C9.87188293,8.30298774 10.150958,8.00101707 10.494361,7.69049848 C11.1538732,8.07176421 11.6077951,8.97426184 11.5892273,9.85436297 C11.1897912,9.58648846 10.8536683,8.91717226 10.7509112,8.56207557 C10.7256976,8.4749489 10.6139356,8.4203664 10.5001444,8.43949176 C10.3868605,8.45880814 10.3154049,8.54502749 10.3406185,8.63203478 C10.3448039,8.64657579 10.8026068,10.093251 11.7287902,10.2735452 C11.7458361,10.2768402 11.7632117,10.2784399 11.7804351,10.2784399 C11.8232527,10.2784399 11.8655883,10.2684116 11.9013541,10.2490475 C11.9515024,10.2219234 11.9837171,10.1794703 11.9896273,10.1326239 C12.1232293,9.0722286 11.5981054,7.94392749 10.7719395,7.44750365 C10.8378907,7.39113038 10.9053639,7.33404081 10.9739785,7.27602003 Z M15.8977698,11.4095824 C16.6782517,10.7998628 17.6690673,10.3732311 18.9093815,10.1119466 C18.9673932,10.2725185 19.0119356,10.4363376 19.0410556,10.6021624 C16.4414615,11.0029117 14.753922,13.1726499 14.1575454,14.4195235 C14.1196234,14.4987469 14.1676917,14.5871152 14.2677346,14.6220709 C14.3680059,14.6572176 14.4861093,14.6269895 14.5389717,14.553019 C15.0689151,13.812502 16.025842,13.4106067 17.0389288,12.9850255 C18.3451941,12.4363352 19.692121,11.8706446 20.1101502,10.5344715 C20.2782498,10.7537805 20.4239259,11.0036996 20.5408117,11.2745826 C20.2564351,11.6328549 19.8538283,11.9785202 19.3714459,12.2781987 C19.2812195,12.3342616 19.2672683,12.4359054 19.3402205,12.5052438 C19.3817698,12.5445929 19.4424702,12.5651509 19.5037795,12.5651509 C19.5501483,12.5651509 19.5969229,12.5534035 19.6357834,12.5291923 C20.0469639,12.2737815 20.4053327,11.9860653 20.690242,11.6839514 C20.8265073,12.1347227 20.8854829,12.6253444 20.8433249,13.1197626 C20.6327376,13.7471988 19.4244859,14.1534636 17.2488566,14.328099 C17.1334166,14.3373393 17.0496332,14.4167299 17.0617073,14.5053847 C17.0729698,14.588309 17.1642361,14.6499591 17.2704429,14.6499591 C17.2777737,14.6499591 17.2851551,14.6496964 17.2926127,14.6491234 C18.9486224,14.5162964 20.0795337,14.2496635 20.706958,13.8408677 C20.6290595,14.1015076 20.5191746,14.3582793 20.3737522,14.6056914 C18.7063785,15.4127532 16.5374205,15.0433304 16.0198556,14.9379379 C15.9079161,14.9149206 15.7926537,14.9663991 15.7628488,15.0525707 C15.7330946,15.1385991 15.7998829,15.2269673 15.9121268,15.2499607 C17.766041,15.6276449 20.3196722,15.5205572 21.721922,14.0713033 C21.7659063,14.2945997 21.771639,14.5290705 21.7432546,14.7663588 C21.4774459,15.080626 20.7940898,15.4245961 19.9526029,15.4984711 C19.8372644,15.5085949 19.7545463,15.5886063 19.7676605,15.6772133 C19.7798868,15.7594452 19.8708234,15.8202357 19.9762185,15.8202357 C19.9842088,15.8202357 19.9922751,15.8199492 20.0003415,15.8192329 C20.5984683,15.7667277 21.184039,15.5830907 21.6139141,15.3304258 C21.4401834,15.8454019 21.1202439,16.3427331 20.6967102,16.7366774 C19.7596195,15.9894033 18.0122166,15.5792943 16.3375376,15.7313899 C15.2139824,15.8332008 14.2711083,16.1668322 13.5830088,16.6941766 C14.882121,14.4546941 18.0567337,13.2928937 20.1529171,13.1766851 C20.2686868,13.1702622 20.3557678,13.0930205 20.3473717,13.0041747 C20.3390517,12.9152573 20.237842,12.8487125 20.1226302,12.8546817 C18.0746927,12.9682878 14.6723454,14.0598186 13.2344312,16.4924888 C13.3884527,14.2479682 14.0606478,12.9173823 15.5820663,11.6759527 C15.5838166,11.6745439 15.5855415,11.6731113 15.587241,11.6716548 C15.6946907,11.5840029 15.7981834,11.4965897 15.8977698,11.4095824 Z M6.93657171,10.6021624 C6.96566634,10.4362899 7.01018341,10.2724707 7.06824585,10.1119466 C8.47627902,10.4085449 9.5628,10.9182443 10.3851356,11.6670227 C10.4266595,11.7049392 10.486041,11.7244227 10.5458537,11.7244227 C10.5596527,11.7244227 10.5734771,11.723396 10.5870732,11.7213426 C12.0013717,12.9419994 12.6202224,14.2813958 12.7513893,16.506409 C11.3182693,14.0640209 7.90684098,12.9684072 5.85502244,12.8546817 C5.73915122,12.8495004 5.63855024,12.9152573 5.63025561,13.0041747 C5.62188488,13.0930205 5.70894049,13.1702622 5.82468488,13.1766851 C7.92094439,13.2928937 11.0955824,14.4546941 12.3946946,16.694296 C11.7065444,16.1668322 10.7636195,15.8332008 9.63993756,15.7313899 C7.96576585,15.5795569 6.21798244,15.9894033 5.28089171,16.7366774 C4.85735805,16.3427331 4.5374439,15.8454019 4.36373854,15.3304258 C4.79361366,15.5830907 5.37915902,15.7667277 5.97731122,15.8192329 C5.98537756,15.8199492 5.99346927,15.8202357 6.00138341,15.8202357 C6.10677854,15.8202357 6.19771512,15.7594452 6.21001756,15.6772133 C6.22310634,15.5886063 6.14033756,15.5085949 6.02504976,15.4984711 C5.18353756,15.4245961 4.50020683,15.080626 4.23437268,14.7664065 C4.20596293,14.5290228 4.21169561,14.294552 4.25573073,14.0711362 C5.65800585,15.5206527 8.21178927,15.6275972 10.0654751,15.2499607 C10.1776683,15.2269673 10.2445327,15.1385991 10.2147278,15.0525707 C10.1849483,14.9662559 10.0694829,14.9148251 9.95774634,14.9379379 C9.44013073,15.0433304 7.27122341,15.4127532 5.60387512,14.6056436 C5.45842732,14.3582316 5.34859317,14.1015076 5.27066927,13.8408677 C5.89811902,14.249568 7.02905561,14.5162964 8.68504,14.6491234 C8.6924722,14.6496964 8.69987902,14.6499591 8.70715902,14.6499591 C8.81344195,14.6499591 8.90465756,14.588309 8.91592,14.5053847 C8.92796878,14.4167299 8.84418537,14.3373393 8.72874537,14.328099 C6.55304,14.1534636 5.34478829,13.747151 5.13427707,13.1196432 C5.09216976,12.6252489 5.15109463,12.1347227 5.28736,11.6839514 C5.57226927,11.9860653 5.93063805,12.2737815 6.34186927,12.5291923 C6.38075512,12.5534035 6.42750439,12.5651509 6.4738478,12.5651509 C6.53518244,12.5651509 6.59593366,12.5445929 6.63738146,12.5052438 C6.71038439,12.4359054 6.69645854,12.3342616 6.60618146,12.2781987 C6.1236722,11.9785202 5.72114146,11.6328549 5.43679024,11.2745826 C5.5536761,11.0036996 5.6993522,10.7537805 5.86745171,10.5344715 C6.28550634,11.8706446 7.6324078,12.4363352 8.9387239,12.9850255 C9.95173463,13.4106067 10.9087376,13.812502 11.4386556,14.553019 C11.4916449,14.6269418 11.6099259,14.6570744 11.7099434,14.6220709 C11.809961,14.5871152 11.8580039,14.4987469 11.8201073,14.4195235 C11.2237307,13.1726499 9.53614049,11.0029117 6.93657171,10.6021624 Z M15.1972156,13.4877289 C15.9887824,12.4294109 17.3197034,11.2162514 19.0776585,10.9262431 C19.0861561,11.097082 19.0775571,11.2694968 19.0498829,11.4424131 C19.0479044,11.4544709 19.0477522,11.4665048 19.0492488,11.4782045 C18.4851883,12.0096079 17.6751551,12.3498293 16.8372702,12.7017981 C16.2729561,12.9387999 15.6981151,13.1802666 15.1972156,13.4877289 Z M6.92774439,11.4424131 C6.89999415,11.2694968 6.89139512,11.097082 6.89994341,10.9262431 C8.65805073,11.2162037 9.98881951,12.4293632 10.7803863,13.4877289 C10.2795376,13.180386 9.70462049,12.9387999 9.1404078,12.7017981 C8.30249756,12.3498293 7.49243902,12.0096079 6.92830244,11.478109 C6.92979902,11.4665048 6.9296722,11.4544709 6.92774439,11.4424131 Z" id="path-3"></path>
        <linearGradient x1="11.202567%" y1="8.52303341%" x2="75.4115513%" y2="61.228785%" id="linearGradient-5">
            <stop stop-color="#D43925" offset="0%"></stop>
            <stop stop-color="#821711" offset="100%"></stop>
        </linearGradient>
        <linearGradient x1="100%" y1="46.9144743%" x2="0%" y2="56.0178083%" id="linearGradient-6">
            <stop stop-color="#E6D3A4" offset="0%"></stop>
            <stop stop-color="#FFFEF8" offset="100%"></stop>
        </linearGradient>
        <linearGradient x1="50%" y1="0%" x2="50%" y2="98.3539559%" id="linearGradient-7">
            <stop stop-color="#19A9F0" offset="0%"></stop>
            <stop stop-color="#276D9E" offset="100%"></stop>
        </linearGradient>
        <linearGradient x1="50%" y1="0%" x2="63.1600926%" y2="100%" id="linearGradient-8">
            <stop stop-color="#F1ECC6" offset="0%"></stop>
            <stop stop-color="#AC8F55" offset="100%"></stop>
        </linearGradient>
        <linearGradient x1="87.5427246%" y1="12.2315574%" x2="16.4367676%" y2="100%" id="linearGradient-9">
            <stop stop-color="#1B8DBF" offset="0%"></stop>
            <stop stop-color="#055F9D" offset="96.7688764%"></stop>
        </linearGradient>
        <linearGradient x1="50%" y1="0%" x2="50%" y2="98.2975072%" id="linearGradient-10">
            <stop stop-color="#FFFCE4" offset="0%"></stop>
            <stop stop-color="#F4D595" offset="100%"></stop>
        </linearGradient>
        <linearGradient x1="50%" y1="0%" x2="50%" y2="100%" id="linearGradient-11">
            <stop stop-color="#1883D1" offset="0%"></stop>
            <stop stop-color="#0564B8" offset="100%"></stop>
        </linearGradient>
    </defs>
    <g id="Page-1" stroke="none" stroke-width="1" fill="none" fill-rule="evenodd">
        <g id="home_01" transform="translate(-35.000000, -24.000000)">
            <g id="Group-15" transform="translate(36.000000, 22.000000)">
                <g id="Logo_EN" transform="translate(39.000000, 5.000000)">
                    <g>
                        <path d="M50,1.45283019 L60.5783807,1.45283019 C62.7670112,1.45283019 64.5245478,1.9703504 65.8178294,3.00539084 C67.07795,4.04043127 67.7080103,5.46361186 67.7080103,7.27493261 C67.7080103,8.56873315 67.3432386,9.70080863 66.6468561,10.638814 C65.9173127,11.4797844 64.9556417,12.0943396 63.7618432,12.4824798 C65.3204134,12.7412399 66.5142119,13.3881402 67.3763996,14.3584906 C68.2385874,15.328841 68.7028424,16.5579515 68.7028424,18.1105121 C68.7028424,20.3746631 67.8738157,22.0566038 66.2489233,23.1563342 C64.8561585,24.0619946 62.9328165,24.5471698 60.5120586,24.5471698 L50,24.5471698 L50,1.45283019 Z M52.7192076,3.68463612 L52.7192076,11.5444744 L59.9151593,11.5444744 C61.5732127,11.5444744 62.8333333,11.1886792 63.6955211,10.541779 C64.5577089,9.86253369 65.0219638,8.85983827 65.0219638,7.53369272 C65.0219638,6.23989218 64.5908699,5.26954178 63.7286822,4.62264151 C62.8664944,3.97574124 61.6063738,3.68463612 59.9483204,3.68463612 L52.7192076,3.68463612 Z M52.7192076,13.7439353 L52.7192076,22.3153639 L60.2799311,22.3153639 C61.9379845,22.3153639 63.2312661,21.9919137 64.2260982,21.4097035 C65.3867356,20.6981132 65.9836348,19.5660377 65.9836348,18.0781671 C65.9836348,16.5902965 65.4530577,15.490566 64.4582257,14.7789757 C63.4965547,14.0673854 62.1037898,13.7439353 60.2799311,13.7439353 L52.7192076,13.7439353 Z M78.1205857,7.37196765 C80.6739879,7.37196765 82.7299742,8.21293801 84.2553833,9.95956873 C85.7144703,11.6091644 86.4440138,13.6792453 86.4440138,16.2021563 C86.4440138,18.6927224 85.7144703,20.7628032 84.2885443,22.3800539 C82.7299742,24.1266846 80.6739879,25 78.1205857,25 C75.5340224,25 73.5111972,24.1266846 71.9857881,22.3800539 C70.5267011,20.7628032 69.7971576,18.6927224 69.7971576,16.2021563 C69.7971576,13.6792453 70.5267011,11.6091644 71.9857881,9.95956873 C73.5111972,8.21293801 75.5340224,7.37196765 78.1205857,7.37196765 Z M78.1205857,9.53908356 C76.296727,9.53908356 74.870801,10.2183288 73.875969,11.5768194 C72.9474591,12.8059299 72.5163652,14.3261456 72.5163652,16.2021563 C72.5163652,18.0458221 72.9474591,19.5660377 73.875969,20.7951482 C74.870801,22.1536388 76.296727,22.8328841 78.1205857,22.8328841 C79.9112834,22.8328841 81.3372093,22.1536388 82.3983635,20.7951482 C83.2937123,19.5660377 83.7579673,18.0134771 83.7579673,16.2021563 C83.7579673,14.3261456 83.2937123,12.8059299 82.3983635,11.5768194 C81.3372093,10.2183288 79.9112834,9.53908356 78.1205857,9.53908356 Z M100.902239,1 L103.555125,1 L103.555125,24.5471698 L101.068045,24.5471698 L101.068045,21.7978437 C99.8742463,23.9326146 97.9509044,25 95.3643411,25 C92.8440999,25 90.8875969,24.0943396 89.494832,22.3477089 C88.2015504,20.7304582 87.5714901,18.6603774 87.5714901,16.1374663 C87.5714901,13.6792453 88.2015504,11.6738544 89.494832,10.0566038 C90.8875969,8.24528302 92.7777778,7.37196765 95.2316968,7.37196765 C97.6856158,7.37196765 99.5757967,8.53638814 100.902239,10.8975741 L100.902239,1 Z M95.795435,9.50673854 C93.9052541,9.50673854 92.4793282,10.1536388 91.5508183,11.4474394 C90.6886305,12.5795148 90.2906977,14.1320755 90.2906977,16.1374663 C90.2906977,18.1428571 90.6886305,19.7277628 91.5176572,20.8921833 C92.4461671,22.1859838 93.838932,22.8652291 95.6959518,22.8652291 C97.4203273,22.8652291 98.74677,22.2183288 99.708441,20.9245283 C100.537468,19.7601078 100.968562,18.2398922 100.968562,16.3638814 L100.968562,16.0404313 C100.968562,14.0997305 100.471146,12.5148248 99.5426357,11.3180593 C98.5809647,10.0889488 97.3208441,9.50673854 95.795435,9.50673854 Z M106.009044,1 L106.009044,24.5471698 L108.661929,24.5471698 L108.661929,15.0053908 C108.661929,13.4528302 109.093023,12.1266846 109.988372,11.0916442 C110.85056,10.0566038 111.944875,9.53908356 113.271318,9.53908356 C114.697244,9.53908356 115.791559,9.95956873 116.587425,10.8005391 C117.316968,11.6415094 117.714901,12.8382749 117.714901,14.3908356 L117.714901,24.5471698 L120.367786,24.5471698 L120.367786,14.0026954 C120.367786,11.8679245 119.837209,10.2183288 118.776055,9.08625337 C117.714901,7.92183288 116.156331,7.37196765 114.166667,7.37196765 C113.006029,7.37196765 111.978036,7.63072776 111.049526,8.14824798 C110.054694,8.69811321 109.258829,9.50673854 108.661929,10.574124 L108.661929,1 L106.009044,1 Z M124.977175,1.51752022 C124.413437,1.51752022 123.949182,1.67924528 123.551249,2.06738544 C123.153316,2.39083558 122.987511,2.84366577 122.987511,3.42587601 C122.987511,3.97574124 123.153316,4.42857143 123.551249,4.81671159 C123.949182,5.17250674 124.413437,5.36657682 124.977175,5.36657682 C125.540913,5.36657682 126.005168,5.17250674 126.403101,4.81671159 C126.801034,4.42857143 127,3.97574124 127,3.42587601 C127,2.84366577 126.801034,2.39083558 126.403101,2.06738544 C126.005168,1.67924528 125.540913,1.51752022 124.977175,1.51752022 Z M123.650732,7.82479784 L123.650732,24.5471698 L126.303618,24.5471698 L126.303618,7.82479784 L123.650732,7.82479784 Z" id="Bodhi" fill="#FFFFFF"></path>
                        <g id="logo">
                            <mask id="mask-2" fill="white">
                                <use xlink:href="#path-1"></use>
                            </mask>
                            <use id="Clip-2" fill="#FFFFFF" xlink:href="#path-1"></use>
                            <mask id="mask-4" fill="white">
                                <use xlink:href="#path-3"></use>
                            </mask>
                            <use id="Clip-5" fill="#FFFFFF" xlink:href="#path-3"></use>
                            <path d="M-15,4 L-15,22" id="Line" stroke="#FFFFFF" opacity="0.300000012" stroke-linecap="square" mask="url(#mask-4)"></path>
                            <path d="M-15,4 L-15,22" id="Line" stroke="#FFFFFF" opacity="0.300000012" stroke-linecap="square" mask="url(#mask-4)"></path>
                            <path d="M-15,4 L-15,22" id="Line" stroke="#FFFFFF" opacity="0.300000012" stroke-linecap="square" mask="url(#mask-4)"></path>
                        </g>
                    </g>
                </g>
                <g id="logo">
                    <path d="M10.2234404,20.0958587 L10.2314453,20.1018066 C10.9238709,23.6333323 11.3444438,25.9207652 11.4931641,26.9641054 C11.6418843,28.0074457 11.7082702,29.3510373 11.6923218,30.9948803 C10.0715533,31.6866479 8.51356986,32.0325317 7.01837158,32.0325317 C5.52317331,32.0325317 3.95111113,31.6866479 2.30218506,30.9948803 C2.32672119,29.6200382 2.41064453,28.2764466 2.55395508,26.9641054 C2.69726563,25.6517643 3.01055908,23.327399 3.49383545,19.9910095 L0.668334961,12.9960953 L0.678803712,12.9960953 C0.243621028,12.0854264 0,11.0659581 0,9.98967296 C0,6.12938318 3.13400675,3 7,3 C10.8659932,3 14,6.12938318 14,9.98967296 C14,11.349988 13.6108302,12.6195417 12.9375985,13.6933812 L10.2164307,19.9910095 L10.2234404,20.0958587 Z" id="Combined-Shape" stroke="#D3BB7D" stroke-width="0.8" fill="url(#linearGradient-5)"></path>
                    <path d="M6.5,23.5 L2.77526855,25.7409668" id="Line-2" stroke="#D3BB7D" stroke-linecap="round"></path>
                    <path d="M6.5,26.5 L2.58569336,28.8625488" id="Line-2" stroke="#D3BB7D" stroke-linecap="round"></path>
                    <path d="M9.59417726,10.518055 C10.9978602,10.5905611 12.5127439,8.59085184 12.0191599,6.19220498 C11.5255759,3.79355812 10.0021145,1.71590486 8.34526026,1.71590486 C6.68840601,1.71590486 5.84043462,3.60953741 5.84043462,6.23260122 C5.84043462,8.85566503 8.19049434,10.4455489 9.59417726,10.518055 Z" id="Oval-5" fill="url(#linearGradient-6)" transform="translate(8.977471, 6.117936) rotate(-45.000000) translate(-8.977471, -6.117936) "></path>
                    <path d="M9.55101937,9.52589877 C10.651954,9.52589877 11.5136364,7.82552908 11.3330056,6.16321353 C11.157244,4.54570885 9.62870961,2.62725891 8.46006202,2.62725891 C7.37426562,2.62725891 6.83154259,3.84502246 6.83154259,6.13620695 C6.83154259,8.02906624 8.17107892,9.52589877 9.55101937,9.52589877 Z" id="Oval-5" stroke="#060000" stroke-width="0.5" fill="#000000" transform="translate(9.093526, 6.076579) rotate(-45.000000) translate(-9.093526, -6.076579) "></path>
                    <path d="M9.590717,9.22935267 C10.5783532,9.02443671 11.0013053,7.98632347 11.0013053,6.23761426 C11.0013053,4.48890505 9.21920973,2.7497272 8.27171081,3.2456169 C7.32421189,3.7415066 7.21907809,4.55726791 7.21907809,6.30597712 C7.21907809,8.05468633 8.60308079,9.43426862 9.590717,9.22935267 Z" id="Oval-5" fill="url(#linearGradient-7)" transform="translate(9.110192, 6.204674) rotate(-45.000000) translate(-9.110192, -6.204674) "></path>
                    <g id="Group-16" transform="translate(4.000000, 9.000000)">
                        <path d="M6.57019043,15.0231934 C3.60684954,11.7896668 1.82821254,9.44479982 1.23427943,7.98859254 C0.343379775,5.80428163 1.41358891,2.65221563 3.99188967,1.4203461 C6.57019043,0.188476563 9.01470947,0.654602051 9.01470947,3.04217529 C9.01470947,4.05234667 8.25627794,5.30523886 7.49029541,7.02392578 C7.20367432,7.66703696 6.64835612,8.98541668 5.82434082,10.9790649 L6.57019043,15.0231934 Z" id="Path-18" fill="url(#linearGradient-8)"></path>
                        <path d="M5.22586556,8.91918945 C6.75479623,8.40759277 8.78491211,5.25744629 8.37634277,3.3626709 C7.96777344,1.46789551 5.93493652,0.96133482 3.77819824,2.39099121 C1.62145996,3.8206476 1.53662109,5.68713379 1.7532959,7.05712891 C1.9699707,8.42712402 3.6969349,9.43078613 5.22586556,8.91918945 Z" id="Path-19" fill="#000000"></path>
                        <path d="M5.06102046,7.00978139 C6.26550293,6.71240234 7.81262207,4.85492847 7.5715332,3.65136719 C7.33044434,2.44780591 5.81426048,2.11363288 4.66223145,2.8782959 C3.51020241,3.64295892 2.79724121,4.6953125 2.79724121,5.72302246 C2.79724121,6.75073242 3.856538,7.30716043 5.06102046,7.00978139 Z" id="Path-19" fill="url(#linearGradient-9)"></path>
                    </g>
                    <g id="Group-13" transform="translate(0.000000, 6.000000)">
                        <path d="M3,9 C4.65685425,9 6,7.209139 6,5 C6,2.790861 5.43713379,0 3,0 C0.562866211,4.47694214e-16 0,2.790861 0,5 C0,7.209139 1.34314575,9 3,9 Z" id="Oval-6" fill="url(#linearGradient-10)"></path>
                        <path d="M2.5,7.73962402 C3.61499605,7.73962402 4.75,6.7054904 4.75,4.85077437 C4.75,2.64875749 3.78988016,1.25 2.5,1.25 C1.21011984,1.25 0.25,2.64875749 0.25,4.85077437 C0.25,6.7054904 1.38500395,7.73962402 2.5,7.73962402 Z" id="Oval-5" stroke="#000000" stroke-width="0.5" fill="#000000"></path>
                        <path d="M2.5,6.66666667 C3.32842712,6.66666667 4,5.76772229 4,4.31046462 C4,2.85320695 3.32842712,2 2.5,2 C1.67157288,2 1,2.85320695 1,4.31046462 C1,5.76772229 1.67157288,6.66666667 2.5,6.66666667 Z" id="Oval-5" fill="url(#linearGradient-11)"></path>
                    </g>
                </g>
                <path d="M27,10 L27,28" id="Line" stroke="#FFFFFF" opacity="0.300000012" stroke-linecap="square"></path>
            </g>
        </g>
    </g>
</svg>