<?xml version="1.0" standalone="no"?><!DOCTYPE svg PUBLIC "-//W3C//DTD SVG 1.1//EN" "http://www.w3.org/Graphics/SVG/1.1/DTD/svg11.dtd"><svg t="1559082493067" class="icon" style="" viewBox="0 0 1024 1024" version="1.1" xmlns="http://www.w3.org/2000/svg" p-id="2091" xmlns:xlink="http://www.w3.org/1999/xlink" width="200" height="200"><defs><style type="text/css"></style></defs><path d="M42.666667 160h949.333333V213.333333H42.666667V160z m0 108.8h949.333333v53.333333H42.666667v-53.333333z m0 108.8h949.333333v53.333333H42.666667v-53.333333z m0 106.666667h949.333333v53.333333H42.666667v-53.333333z m0 108.8h949.333333v53.333333H42.666667v-53.333333z m0 108.8h949.333333v53.333333H42.666667v-53.333333zM42.666667 810.666667h949.333333v53.333333H42.666667V810.666667z" fill="#BD3D44" p-id="2092"></path><path d="M42.666667 213.333333h949.333333v53.333334H42.666667V213.333333z m0 108.8h949.333333v53.333334H42.666667v-53.333334z m0 108.8h949.333333v53.333334H42.666667v-53.333334z m0 108.8h949.333333v53.333334H42.666667v-53.333334z m0 106.666667h949.333333v53.333333H42.666667v-53.333333z m949.333333 108.8v53.333333H42.666667v-53.333333h949.333333z" fill="#FFFFFF" p-id="2093"></path><path d="M42.666667 160h535.466666v379.733333H42.666667z" fill="#192F5D" p-id="2094"></path><path d="M87.466667 177.066667l4.266666 14.933333H106.666667l-10.666667 8.533333 4.266667 14.933334-12.8-8.533334-12.8 8.533334 4.266666-14.933334-12.8-8.533333h14.933334l6.4-14.933333z m89.6 0l4.266666 14.933333h14.933334l-12.8 8.533333 4.266666 14.933334-10.666666-8.533334-12.8 8.533334 4.266666-14.933334-12.8-8.533333H170.666667l6.4-14.933333z m87.466666 0l4.266667 14.933333h14.933333l-12.8 8.533333 6.4 14.933334-12.8-8.533334-10.666666 8.533334 4.266666-14.933334-12.8-8.533333h14.933334l4.266666-14.933333z m89.6 0l4.266667 14.933333h14.933333l-10.666666 8.533333 4.266666 14.933334-12.8-8.533334-12.8 8.533334 4.266667-14.933334-12.8-8.533333h14.933333l6.4-14.933333z m89.6 0l4.266667 14.933333h14.933333l-12.8 8.533333 4.266667 14.933334-12.8-8.533334-12.8 8.533334 4.266667-14.933334-12.8-8.533333h14.933333l8.533333-14.933333z m89.6 0l4.266667 14.933333h17.066667l-12.8 8.533333 4.266666 14.933334-12.8-8.533334-12.8 8.533334 4.266667-14.933334L512 192h14.933333l6.4-14.933333zM132.266667 213.333333l4.266666 14.933334h14.933334l-12.8 10.666666 4.266666 14.933334-10.666666-10.666667-12.8 10.666667 4.266666-14.933334-12.8-10.666666H128l4.266667-14.933334z m89.6 0l4.266666 14.933334h14.933334l-12.8 10.666666 6.4 14.933334-12.8-10.666667-12.8 10.666667 4.266666-14.933334-12.8-10.666666h14.933334l6.4-14.933334z m87.466666 0l4.266667 14.933334h14.933333l-12.8 8.533333 4.266667 14.933333-12.8-8.533333-12.8 8.533333 4.266667-14.933333-12.8-8.533333h14.933333l8.533333-14.933334z m89.6 0l4.266667 14.933334h14.933333l-12.8 8.533333 4.266667 14.933333-12.8-8.533333-12.8 8.533333 4.266667-14.933333-12.8-8.533333h14.933333l8.533333-14.933334z m89.6 0l4.266667 14.933334h14.933333l-12.8 8.533333 4.266667 14.933333-12.8-8.533333-12.8 8.533333 4.266667-14.933333-12.8-8.533333h14.933333l8.533333-14.933334zM87.466667 251.733333l4.266666 14.933334H106.666667l-10.666667 10.666666 4.266667 14.933334-12.8-10.666667-12.8 10.666667 4.266666-14.933334-12.8-10.666666h14.933334l6.4-14.933334z m89.6 0l4.266666 14.933334h14.933334l-12.8 10.666666 4.266666 14.933334-10.666666-10.666667-12.8 10.666667 4.266666-14.933334-12.8-10.666666H170.666667l6.4-14.933334z m87.466666 0l6.4 14.933334h14.933334l-12.8 8.533333 4.266666 17.066667-12.8-8.533334-10.666666 8.533334 4.266666-14.933334-12.8-10.666666h14.933334l4.266666-14.933334z m89.6 0l6.4 14.933334h14.933334l-12.8 10.666666 4.266666 14.933334-12.8-8.533334-12.8 8.533334 4.266667-14.933334-10.666667-10.666666h14.933334l4.266666-14.933334z m89.6 0l4.266667 14.933334h14.933333l-12.8 8.533333 4.266667 14.933333-12.8-8.533333-12.8 8.533333 4.266667-14.933333-10.666667-8.533333h14.933333l6.4-14.933334z m89.6 0l4.266667 14.933334h17.066667l-12.8 8.533333 4.266666 14.933333-12.8-8.533333-12.8 8.533333 4.266667-14.933333-12.8-8.533333h14.933333l6.4-14.933334zM132.266667 290.133333l4.266666 14.933334h14.933334l-12.8 8.533333 4.266666 14.933333-10.666666-8.533333-12.8 8.533333 4.266666-14.933333-12.8-8.533333H128l4.266667-14.933334z m89.6 0l4.266666 14.933334h14.933334l-12.8 8.533333 6.4 14.933333-12.8-8.533333-12.8 8.533333 4.266666-14.933333-12.8-8.533333h14.933334l6.4-14.933334z m87.466666 0l4.266667 14.933334h14.933333l-12.8 8.533333 4.266667 14.933333-12.8-8.533333-12.8 8.533333 4.266667-14.933333-12.8-8.533333h14.933333l8.533333-14.933334z m89.6 0l4.266667 14.933334h14.933333l-12.8 8.533333 4.266667 14.933333-12.8-8.533333-12.8 8.533333 4.266667-14.933333-12.8-8.533333h14.933333l8.533333-14.933334z m89.6 0l4.266667 14.933334h14.933333l-12.8 8.533333 4.266667 14.933333-12.8-8.533333-12.8 8.533333 4.266667-14.933333-12.8-8.533333h14.933333l8.533333-14.933334zM87.466667 328.533333l4.266666 14.933334H106.666667l-10.666667 8.533333 4.266667 14.933333-12.8-8.533333-12.8 8.533333 4.266666-14.933333-12.8-8.533333h14.933334l6.4-14.933334z m89.6 0l4.266666 14.933334h14.933334l-12.8 8.533333 4.266666 14.933333-10.666666-8.533333-12.8 8.533333 4.266666-14.933333-12.8-8.533333H170.666667l6.4-14.933334z m87.466666 0l4.266667 14.933334h14.933333l-10.666666 8.533333 4.266666 14.933333-12.8-8.533333-10.666666 8.533333 4.266666-14.933333-12.8-8.533333h14.933334l4.266666-14.933334z m89.6 0l4.266667 14.933334h14.933333l-10.666666 8.533333 4.266666 14.933333-12.8-8.533333-12.8 8.533333 6.4-14.933333-12.8-8.533333h14.933334l4.266666-14.933334z m89.6 0l4.266667 14.933334h14.933333l-10.666666 8.533333 4.266666 14.933333-12.8-8.533333-12.8 8.533333 4.266667-14.933333-12.8-8.533333h14.933333l6.4-14.933334z m89.6 0l4.266667 14.933334h17.066667l-12.8 8.533333 4.266666 14.933333-12.8-8.533333-12.8 8.533333 4.266667-14.933333-12.8-8.533333h14.933333l6.4-14.933334zM132.266667 364.8l4.266666 14.933333h14.933334l-12.8 8.533334 4.266666 14.933333-10.666666-8.533333-12.8 8.533333 4.266666-14.933333-12.8-8.533334H128l4.266667-14.933333z m89.6 0l4.266666 14.933333h14.933334l-12.8 8.533334 6.4 17.066666-12.8-10.666666-12.8 8.533333 4.266666-12.8-12.8-8.533333h14.933334l6.4-17.066667z m87.466666 0l4.266667 14.933333h14.933333l-12.8 8.533334 4.266667 14.933333-10.666667-8.533333-12.8 8.533333 4.266667-14.933333-12.8-8.533334h14.933333l6.4-14.933333z m89.6 0l4.266667 14.933333h14.933333l-12.8 8.533334 4.266667 14.933333-10.666667-8.533333-12.8 8.533333 4.266667-14.933333-12.8-8.533334h14.933333l6.4-14.933333z m89.6 0l4.266667 14.933333h14.933333l-12.8 8.533334 4.266667 14.933333-10.666667-8.533333-12.8 8.533333 4.266667-14.933333-12.8-8.533334h14.933333l6.4-14.933333zM87.466667 403.2l4.266666 14.933333H106.666667l-12.8 8.533334 4.266666 14.933333-12.8-8.533333-12.8 8.533333 4.266667-14.933333-12.8-8.533334h14.933333l8.533334-14.933333z m89.6 0l4.266666 14.933333h14.933334l-12.8 8.533334 4.266666 14.933333-12.8-8.533333-12.8 8.533333 4.266667-14.933333-12.8-8.533334H170.666667l6.4-14.933333z m87.466666 0l4.266667 14.933333h14.933333l-12.8 8.533334 4.266667 14.933333-12.8-8.533333-12.8 8.533333 4.266667-14.933333-12.8-8.533334h14.933333l8.533333-14.933333z m89.6 0l4.266667 14.933333h14.933333l-10.666666 10.666667 4.266666 14.933333-12.8-8.533333-12.8 8.533333 4.266667-14.933333-12.8-8.533333h14.933333l6.4-17.066667z m89.6 0l4.266667 14.933333h14.933333l-12.8 8.533334 4.266667 14.933333-12.8-8.533333-12.8 8.533333 4.266667-14.933333-12.8-8.533334h14.933333l8.533333-14.933333z m89.6 0l4.266667 14.933333h17.066667l-12.8 8.533334 4.266666 14.933333-12.8-8.533333-12.8 8.533333 4.266667-14.933333-12.8-8.533334h14.933333l6.4-14.933333zM132.266667 441.6l4.266666 14.933333h14.933334l-12.8 8.533334 6.4 14.933333-12.8-8.533333-12.8 8.533333 4.266666-14.933333-12.8-8.533334H128l4.266667-14.933333z m89.6 0l4.266666 14.933333h14.933334l-12.8 8.533334 6.4 14.933333-12.8-8.533333-12.8 8.533333 4.266666-14.933333-12.8-8.533334h14.933334l6.4-14.933333z m87.466666 0l4.266667 14.933333h14.933333l-12.8 8.533334 4.266667 14.933333-12.8-8.533333-10.666667 8.533333 4.266667-14.933333-12.8-8.533334h14.933333l6.4-14.933333z m89.6 0l4.266667 14.933333h14.933333l-12.8 8.533334 4.266667 14.933333-12.8-8.533333-10.666667 8.533333 4.266667-14.933333-12.8-8.533334h14.933333l6.4-14.933333z m89.6 0l4.266667 14.933333h14.933333l-12.8 8.533334 4.266667 14.933333-12.8-8.533333-10.666667 8.533333 4.266667-14.933333-12.8-8.533334h14.933333l6.4-14.933333zM87.466667 480l4.266666 14.933333H106.666667l-12.8 8.533334 4.266666 14.933333-12.8-8.533333-12.8 8.533333 4.266667-14.933333-12.8-8.533334h14.933333l8.533334-14.933333z m89.6 0l4.266666 14.933333h14.933334l-12.8 8.533334 4.266666 14.933333-12.8-8.533333-12.8 8.533333 4.266667-14.933333-12.8-8.533334H170.666667l6.4-14.933333z m87.466666 0l4.266667 14.933333h14.933333l-12.8 8.533334 4.266667 14.933333-12.8-8.533333-12.8 8.533333 4.266667-14.933333-12.8-8.533334h14.933333l8.533333-14.933333z m89.6 0l4.266667 14.933333h14.933333l-10.666666 8.533334 4.266666 14.933333-12.8-8.533333-12.8 8.533333 4.266667-14.933333-12.8-8.533334h14.933333l6.4-14.933333z m89.6 0l4.266667 14.933333h14.933333l-12.8 8.533334 4.266667 14.933333-12.8-8.533333-12.8 8.533333 4.266667-14.933333-12.8-8.533334h14.933333l8.533333-14.933333z m89.6 0l4.266667 14.933333h17.066667l-12.8 8.533334 4.266666 14.933333-12.8-8.533333-12.8 8.533333 4.266667-14.933333-12.8-8.533334h14.933333l6.4-14.933333z" fill="#FFFFFF" p-id="2095"></path><path d="M74.666667 159.658667c-17.066667 0-32 14.933333-32 32v640c0 17.066667 14.933333 32 32 32h874.666666c17.066667 0 32-14.933333 32-32v-640c0-17.066667-14.933333-32-32-32h-874.666666z m0-32h874.666666c36.266667 0 64 27.733333 64 64v640c0 36.266667-27.733333 64-64 64h-874.666666c-36.266667 0-64-27.733333-64-64v-640c0-34.133333 29.866667-64 64-64z" fill="#EFEFEF" p-id="2096"></path></svg>